<svg viewBox="0 0 48 55">
  <g fill="none">
    <g transform="translate(1.000000, 0.000000)">
      <g transform="translate(0.000000, 22.000000)">
        <path d="M12.3795697,30 C18.8136574,30 24.7355735,25.5559075 24.0295162,16.4634146 C23.3234588,7.3709218 16.9579104,0 12.3795697,0 C7.80122893,0 1.4356805,7.3709218 0.729623135,16.4634146 C0.0235657704,25.5559075 5.94548185,30 12.3795697,30 Z" stroke="#F29C22" stroke-width="3" />
        <path d="M9.67030859,24.3500044 C11.0116467,26.0109121 19.2659108,23.7972055 19.2659108,19.7560976 C19.2659108,16.6728951 20.775963,14.035088 18.0771532,12.957794 C17.2386728,12.6230947 16.3237592,12.4390244 15.3658537,12.4390244 C11.3247457,12.4390244 8.04878049,15.7149896 8.04878049,19.7560976 C8.04878049,21.4960501 8.65609434,23.0941569 9.67030859,24.3500044 Z" fill="#FFE636" />
        <ellipse stroke="#EF9610" stroke-width="3" cx="12.4390244" cy="17.5609756" rx="7.31707317" ry="7.31707317" />
      </g>
      <path d="M33.8895994,4 C33.8895993,12.842041 27.974072,13.6181641 29.1562009,25.2941895 C32.305615,25.6206055 35.3534666,29.5102539 44.1977048,27.0432129 C44.1977048,27.0432129 44.1977053,19.4503679 44.1977048,19.4503679 C43.2311525,11.557373 39.4745607,8.34716797 39.4745603,4 C39.4745608,4 33.8895994,4.12060543 33.8895994,4 Z" fill="#D3EEFF" />
      <path d="M27.707082,5 L27.707082,5.2656 C27.707082,7.5072 26.63624,10.0504 25.4688,12.793 C24.30136,15.5356 23.049744,18.4852 23.00005,21.672 C22.9999833,21.6786665 23.00005,46.692 23.00005,46.692 C23.00005,48.2356 23.471912,49.806 24.363332,51.0592 C25.289308,52.361 26.670856,54.0044 28.707082,54.0044 L41.293018,54.0044 C42.244238,54.0044 43.024662,53.5436 43.753956,52.9928 C44.48325,52.4418 45.141378,51.7556 45.636768,51.0592 C46.528206,49.806 47.00005,48.2356 47.00005,46.692 L47.00005,21.692 C47.00005,18.5522 45.775492,15.6048 44.609426,12.8442 C43.443358,10.0838 42.343794,7.4974 42.293018,5.2466 L42.293018,5 L43.0337334,5 L43.5555633,2.44141102 C43.8297037,1.09727122 42.9339147,0 41.5528429,0 L28.432932,0 C27.0521681,0 26.2212186,1.07994536 26.577642,2.41212547 L27.270025,5 L27.707082,5 Z M30.707082,5 L39.293018,5 L39.293018,5.2656 C39.292922,5.27359971 39.292922,5.28160029 39.293018,5.2896 C39.356978,8.125 40.611392,10.8758 41.769582,13.6176 C42.92777,16.3594 44.00005,19.0808 44.00005,21.688 L44.00005,45.688 C44.00005,46.8072 43.621902,48.0318 43.007862,48.895 C42.645,49.4052 42.094384,49.9844 41.550832,50.395 C41.007278,50.8056 40.450984,51.0004 40.293018,51.0004 L29.707082,51.0004 C28.915406,51.0004 27.782782,50.0064 26.992238,48.895 C26.378204,48.0314 26.00005,46.8068 26.00005,45.6876 L26.00005,21.7032 C26.04171,19.0316 27.145982,16.3096 28.308644,13.5782 C29.471306,10.8468 30.707082,8.1118 30.707082,5.2656 L30.707082,5 L30.707082,5 Z M36.953174,8.004 C36.6720194,8.01768094 36.4096475,8.14921275 36.2304673,8.36630612 C36.051287,8.58339948 35.9718903,8.86595172 36.011768,9.1446 C36.011768,9.1446 36.264034,11.3364 36.714894,12.6524 C37.122794,13.843 38.128956,15.4962 38.128956,15.4962 C38.3096713,15.8046727 38.6412393,15.9932898 38.998742,15.99099 C39.3562446,15.9886901 39.6853586,15.7958228 39.8620902,15.4850506 C40.0388219,15.1742784 40.0363165,14.7928239 39.855518,14.4844 C39.855518,14.4844 38.844922,12.6914 38.609426,12.004 C38.330834,11.1908 37.992238,8.8868 37.992238,8.8868 C37.9312221,8.36545257 37.4775304,7.97999123 36.953174,8.004 L36.953174,8.004 Z" fill="#5FB5EB" />
    </g>
  </g>
</svg>