<svg viewBox="0 0 44 42">
  <g transform="translate(0.000000, 1.000000)">
    <path d="M16.3457027,8.64135742 C16.3457027,8.64135742 27.4114685,8.06199352 28.1333005,8.00683594 C29.5052568,7.90200018 32.7900387,7.62011719 32.7900387,7.62011719 C32.7900387,7.62011719 39.1925405,11.3561907 41.2729489,14.8222656 C42.6923228,17.1870208 41.2510333,22.1695032 41.2729489,24.8754883 C41.3095391,29.3934055 34.4837072,33.4666535 33.6445309,35.6677246 C32.0071285,39.9624588 22.8522946,40.2392578 22.8522946,40.2392578 C22.8522946,40.2392578 15.4374302,38.5238358 12.3359377,37.0571289 C9.81365103,35.8643306 8.08747218,33.2689702 5.56518555,32.0761719 C-0.34179668,10.2631836 16.3457027,8.64135742 16.3457027,8.64135742 Z" fill="#FFD9D9" />
    <path d="M43.2884139,18.5362319 C42.7145008,11.2666667 36.2739211,6.48405797 30.4072544,5.97391304 C30.0884139,4.69855072 28.8130515,3.86956522 27.2826168,3.86956522 L26.5811675,3.86956522 C25.9434863,3.86956522 25.4333414,3.55072464 25.3058052,3.29565217 L25.1145008,2.78550725 L25.1145008,2.78550725 C24.668124,1.70144928 23.4565298,1 22.1173994,1 L22.1173994,1 C20.7145008,1 19.5666747,1.70144928 19.1202979,2.78550725 L18.9289936,3.29565217 C18.8014573,3.61449275 18.3550805,3.93333333 17.6536312,3.93333333 L16.952182,3.93333333 C15.4217472,3.93333333 14.210153,4.76231884 13.8275443,5.97391304 C7.83334139,6.29275362 1.01015298,11.3304348 0.181167476,18.5362319 C-0.520281799,24.3391304 0.818848636,29.1855072 4.13479066,32.9478261 C8.02464574,37.284058 14.5927617,39.8985507 21.7347907,39.8985507 C28.6855153,39.8985507 34.9347907,37.4753623 38.8246457,33.2666667 C42.268124,29.5043478 43.7347907,24.5304348 43.2884139,18.5362319 L43.2884139,18.5362319 Z M16.952182,5.7826087 L17.6536312,5.7826087 C18.9927617,5.7826087 20.2043559,5.08115942 20.6507327,3.99710145 L20.842037,3.48695652 C21.0333414,3.04057971 21.6072544,2.91304348 22.1173994,2.91304348 L22.1173994,2.91304348 C22.6275443,2.91304348 23.2014573,3.10434783 23.3927617,3.48695652 L23.584066,3.99710145 C24.0304428,5.08115942 25.242037,5.7826087 26.5811675,5.7826087 L27.2826168,5.7826087 C27.984066,5.7826087 28.494211,6.10144928 28.5579791,6.48405797 C28.6217472,6.80289855 28.3666747,6.9942029 28.1116023,7.12173913 L27.5376892,7.44057971 C26.326095,8.14202899 25.8159501,9.4173913 26.326095,10.5652174 L26.5173994,11.0753623 C26.5811675,11.1391304 26.6449356,11.3942029 26.326095,11.6492754 C25.8797182,12.0318841 25.0507327,12.1594203 24.4130515,11.7768116 L23.9029066,11.5217391 C22.8188486,10.9478261 21.4159501,10.9478261 20.3318921,11.5217391 L19.7579791,11.8405797 C19.0565298,12.2231884 18.2275443,12.0318841 17.8449356,11.7130435 C17.526095,11.457971 17.6536312,11.2666667 17.6536312,11.1391304 L17.8449356,10.6289855 C18.3550805,9.48115942 17.8449356,8.2057971 16.6333414,7.50434783 L16.0594283,7.18550725 C15.8043559,7.05797101 15.5492834,6.80289855 15.6130515,6.54782609 C15.7405878,6.16521739 16.1869646,5.7826087 16.952182,5.7826087 L16.952182,5.7826087 Z M21.5480061,37.3600121 C15.1365051,37.3600121 9.34149456,35.0789973 5.9507969,31.2567563 C3.11494068,28.0510058 1.94360876,23.8588705 2.56009925,18.7419995 C3.29988783,12.5770946 9.15654741,8.38495935 14.2117694,8.20001221 C14.4583656,8.5699065 29.3157862,8.63155555 29.5623824,8.3233103 C34.4943063,8.69320459 39.9810716,12.7003927 40.474264,18.8036485 C40.9674563,23.9821686 39.6728263,28.297602 36.652023,31.5650015 C33.2613253,35.2639444 27.712911,37.3600121 21.5480061,37.3600121 Z" fill="#EB5858" />
    <path d="M15.6442711,3.49755326 L16.4992286,3.49755326 C18.1314201,3.49755326 19.6081648,2.6425958 20.1522286,1.3212979 L20.3853989,0.699510653 C20.6185691,0.155446812 21.3180797,0 21.939867,0 C22.5616542,0 23.2611649,0.233170218 23.4943351,0.699510653 L23.7275053,1.3212979 C24.2715692,2.6425958 25.7483139,3.49755326 27.3805054,3.49755326 L28.2354629,3.49755326 C29.0904203,3.49755326 29.7122076,3.88617029 29.789931,4.35251073 C29.8676544,4.74112776 29.5567608,4.97429798 29.2458671,5.12974479 L28.5463565,5.51836182 C27.0696118,6.37331928 26.4478245,7.9277874 27.0696118,9.3268087 L27.302782,9.94859595 C27.3805054,10.0263194 27.4582288,10.337213 27.0696118,10.6481066 C26.5255479,11.114447 25.5151436,11.2698939 24.7379096,10.8035534 L24.1161223,10.4926598 C22.7948244,9.79314914 21.0849095,9.79314914 19.7636116,10.4926598 L19.064101,10.8812768 C18.2091435,11.3476173 17.1987392,11.114447 16.7323988,10.72583 C16.3437818,10.4149364 16.4992286,10.1817662 16.4992286,10.0263194 L16.7323988,9.40453211 C17.354186,8.0055108 16.7323988,6.45104269 15.2556541,5.59608522 L14.5561434,5.20746819 C14.2452498,5.05202138 13.9343562,4.74112776 14.0120796,4.43023413 C14.1675264,3.9638937 14.7115902,3.49755326 15.6442711,3.49755326 Z" stroke="#428C1F" stroke-width="2" fill="#E1F3D7" />
    <ellipse fill="#458D22" transform="translate(20.000000, 6.500000) rotate(14.000000) translate(-20.000000, -6.500000)" cx="20" cy="6.5" rx="1" ry="1.5" />
  </g>
</svg>