<svg viewBox="0 0 33 36">
  <g fill="none" transform="translate(2.000000, 1.000000)">
    <path d="M1.96826167,23.1147467 C1.96826167,7.48242201 26.6819524,2.38282953 27.9150391,0.998046875 C28.9008074,-0.108992043 24.496582,8.86767578 24.496582,8.86767578 L24.496582,20.1137695 L20,27.2275391 L8.14794922,27.2275391 C8.14794922,27.2275391 5.89550777,21.6254889 1.96826167,23.1147467 Z" fill="#EBFBCB" />
    <path d="M0.968750003,32.7822266 C0.968750003,32.7822266 1.57470701,30.3334961 2.18066407,26.5336914 C-0.73681643,21.6210938 -1.08007809,15.0302734 3.49804693,9.87402344 C8.59469906,4.13376681 21.9716799,0.5 29.5,0.5 C19.8222659,11.0585938 27.2978518,16.6411133 23.4902346,23.4160156 C19.6826174,30.190918 8.60351562,27.4277344 8.60351562,27.4277344" stroke="#74B827" stroke-width="3" stroke-linecap="round" stroke-linejoin="round" />
    <path d="M0.5,32.5 C0.5,32.5 3.61547192,24.5810151 6.06591797,21.1503906 C8.61547192,17.5810151 15.5,11.5 15.5,11.5" stroke="#74B827" stroke-width="3" stroke-linecap="round" stroke-linejoin="round" />
  </g>
</svg>