<svg width="232px" height="25px" viewBox="0 0 232 25">
    <g stroke="none" stroke-width="1" fill-rule="evenodd">
        <g transform="translate(-23.000000, -19.000000)">
            <g>
                <g>
                    <path d="M23,19 L23,41.0574184 L27.8498104,41.0574184 L27.8498104,31.9437759 L37.0866203,31.9437759 L37.0866203,28.1748529 L27.8498104,28.1748529 L27.8498104,23.0779612 L38.5078976,23.0779612 L38.5078976,19 L23,19 Z M40.341226,41.0566719 L44.727479,41.0566719 L44.727479,19 L40.341226,19 L40.341226,41.0566719 Z M47.6394554,29.9977307 C47.8857902,25.8891643 51.562151,24.6530113 55.1459497,24.6530113 C58.3274014,24.6530113 62.1575349,25.3643964 62.1575349,29.1945299 L62.1575349,37.504225 C62.1575349,38.9561076 62.3128005,40.4087367 62.7144009,41.0574184 L58.2654444,41.0574184 C58.1109253,40.5625093 57.9877579,40.0377415 57.9571527,39.5122272 C56.567227,40.9641098 54.5278732,41.4896241 52.5810815,41.4896241 C49.5541489,41.4896241 47.1452928,39.9757845 47.1452928,36.7017706 C47.1452928,33.0873668 49.8631871,32.222209 52.5810815,31.8512138 C55.2691171,31.4496133 57.7712818,31.5421755 57.7712818,29.7506494 C57.7712818,27.8665612 56.4739184,27.5881282 54.9294736,27.5881282 C53.2611149,27.5881282 52.1802275,28.2674151 52.0249619,29.9977307 L47.6394554,29.9977307 Z M72.6909618,41.0566719 L67.8097996,41.0566719 L62.3419128,25.0859634 L66.9446418,25.0859634 L70.3127109,35.9903855 L70.3731749,35.9903855 L73.7404974,25.0859634 L78.0968917,25.0859634 L72.6909618,41.0566719 Z M57.7712818,33.2411394 C57.0300379,33.8898211 55.4855931,33.9211729 54.1262727,34.1682542 C52.7676988,34.4459407 51.5315458,34.9094981 51.5315458,36.5158998 C51.5315458,38.1529068 52.798304,38.5552537 54.2188349,38.5552537 C57.6481144,38.5552537 57.7712818,35.8366128 57.7712818,34.8781464 L57.7712818,33.2411394 Z M85.7250605,24.6530113 C90.7607417,24.6530113 94.0048968,27.9897286 94.0048968,33.0866203 C94.0048968,38.1529068 90.7607417,41.4888776 85.7250605,41.4888776 C80.7207309,41.4888776 77.4773223,38.1529068 77.4773223,33.0866203 C77.4773223,27.9897286 80.7207309,24.6530113 85.7250605,24.6530113 Z M85.7250605,38.1842585 C88.7221343,38.1842585 89.6178973,35.6201368 89.6178973,33.0866203 C89.6178973,30.5224986 88.7221343,27.9583769 85.7250605,27.9583769 C82.7600848,27.9583769 81.8635753,30.5224986 81.8635753,33.0866203 C81.8635753,35.6201368 82.7600848,38.1842585 85.7250605,38.1842585 Z M95.5784539,25.0859634 L99.7489773,25.0859634 L99.7489773,28.0516855 L99.8094413,28.0516855 C100.614135,26.0436834 102.77591,24.6530113 104.90708,24.6530113 C105.216864,24.6530113 105.587113,24.7149682 105.865546,24.8075304 L105.865546,28.8854916 C105.463199,28.7929294 104.815264,28.7309725 104.289749,28.7309725 C101.0762,28.7309725 99.9647069,31.0480129 99.9647069,33.8592159 L99.9647069,41.0566719 L95.5784539,41.0566719 L95.5784539,25.0859634 Z M107.535398,19 L117.482846,19 C122.981338,19 125.113254,22.49049 125.113254,26.0742886 C125.113254,29.6580872 122.981338,33.1485772 117.482846,33.1485772 L112.385208,33.1485772 L112.385208,41.0566719 L107.535398,41.0566719 L107.535398,19 Z M112.385208,29.3796542 L116.154131,29.3796542 C118.408468,29.3796542 120.417217,28.8854916 120.417217,26.0742886 C120.417217,23.2630856 118.408468,22.768923 116.154131,22.768923 L112.385208,22.768923 L112.385208,29.3796542 Z M126.992117,25.0859634 L131.161894,25.0859634 L131.161894,28.0516855 L131.223851,28.0516855 C132.027052,26.0436834 134.189573,24.6530113 136.321489,24.6530113 C136.629781,24.6530113 137.00003,24.7149682 137.278463,24.8075304 L137.278463,28.8854916 C136.877609,28.7929294 136.228181,28.7309725 135.702666,28.7309725 C132.490609,28.7309725 131.37837,31.0480129 131.37837,33.8592159 L131.37837,41.0566719 L126.992117,41.0566719 L126.992117,25.0859634 Z M138.797528,22.6144039 L143.184527,22.6144039 L143.184527,19.0007465 L138.797528,19.0007465 L138.797528,22.6144039 Z M138.797528,41.0566719 L143.184527,41.0566719 L143.184527,25.0852169 L138.797528,25.0852169 L138.797528,41.0566719 Z M145.500075,25.0859634 L149.670598,25.0859634 L149.670598,27.3104416 L149.762414,27.3104416 C150.874653,25.5181691 152.789346,24.6530113 154.643576,24.6530113 C159.309008,24.6530113 160.483204,27.2790899 160.483204,31.2331373 L160.483204,41.0566719 L156.096205,41.0566719 L156.096205,32.0363381 C156.096205,29.4110059 155.322863,28.1136425 153.285748,28.1136425 C150.906005,28.1136425 149.887074,29.4416112 149.887074,32.6850199 L149.887074,41.0566719 L145.500075,41.0566719 L145.500075,25.0859634 Z M168.929503,25.0859634 L172.14156,25.0859634 L172.14156,28.0210803 L168.929503,28.0210803 L168.929503,35.929175 C168.929503,37.4116628 169.299752,37.782658 170.782986,37.782658 C171.245797,37.782658 171.67875,37.7520528 172.14156,37.6594906 L172.14156,41.0880236 C171.401063,41.2119375 170.443343,41.2417963 169.578185,41.2417963 C166.89015,41.2417963 164.542504,40.6244663 164.542504,37.4430145 L164.542504,28.0210803 L161.88582,28.0210803 L161.88582,25.0859634 L164.542504,25.0859634 L164.542504,20.2973635 L168.929503,20.2973635 L168.929503,25.0859634 Z M176.331492,20.1338867 C177.816219,20.1338867 179.062823,21.3065898 179.062823,22.8435699 C179.062823,24.4089158 177.816219,25.5823654 176.331492,25.5823654 C174.837807,25.5823654 173.585232,24.4089158 173.585232,22.8435699 C173.585232,21.3065898 174.837807,20.1338867 176.331492,20.1338867 Z M176.331492,25.1815115 C177.591532,25.1815115 178.567167,24.1767639 178.567167,22.8435699 C178.567167,21.5394882 177.591532,20.5347407 176.331492,20.5347407 C175.055776,20.5347407 174.080141,21.5394882 174.080141,22.8435699 C174.080141,24.1767639 175.055776,25.1815115 176.331492,25.1815115 Z M175.267773,21.2625481 L176.497955,21.2625481 C177.256367,21.2625481 177.61318,21.5611358 177.61318,22.1732406 C177.61318,22.7487683 177.248903,22.9883849 176.774895,23.0398913 L177.685587,24.4462393 L177.154101,24.4462393 L176.28745,23.0764683 L175.762683,23.0764683 L175.762683,24.4462393 L175.267773,24.4462393 L175.267773,21.2625481 Z M175.762683,22.6756143 L176.279986,22.6756143 C176.71667,22.6756143 177.117524,22.6539667 177.117524,22.151593 C177.117524,21.7290914 176.753994,21.6634021 176.418829,21.6634021 L175.762683,21.6634021 L175.762683,22.6756143 Z M188.335463,37.1384551 C188.335463,38.3133976 188.064495,39.2569347 187.525544,39.9690663 C186.9851,40.6819444 186.260279,41.0380102 185.351826,41.0380102 C184.380669,41.0380102 183.630468,40.6946344 183.099728,40.0086292 L183.036278,40.8961811 L181.828491,40.8961811 L181.828491,29.9857872 L183.143023,29.9857872 L183.143023,34.0562838 C183.673017,33.3978979 184.404556,33.068705 185.337643,33.068705 C186.269983,33.068705 187.003016,33.4210385 187.535248,34.1271984 C188.068227,34.8326117 188.335463,35.7985429 188.335463,37.0249918 L188.335463,37.1384551 Z M187.020931,36.9899077 C187.020931,36.0941447 186.84775,35.4036607 186.502881,34.9154698 C186.15652,34.4280254 185.659371,34.18393 185.010689,34.18393 C184.144039,34.18393 183.520737,34.5862769 183.143023,35.3909707 L183.143023,38.7157445 C183.54537,39.5204383 184.173151,39.9227852 185.024872,39.9227852 C185.654892,39.9227852 186.144576,39.6794363 186.495417,39.1912454 C186.846257,38.703801 187.020931,37.9692753 187.020931,36.9899077 Z M192.426861,38.971037 L194.216894,33.2105342 L195.622496,33.2105342 L192.533606,42.0823206 C192.054373,43.3610224 191.295214,44 190.253143,44 L190.004568,43.9790989 L189.514138,43.8865367 L189.514138,42.8213251 L189.869457,42.849691 C190.314353,42.849691 190.661461,42.7593682 190.910036,42.5794691 C191.15861,42.39957 191.363142,42.0703771 191.52438,41.5926368 L191.816249,40.8110836 L189.073721,33.2105342 L190.509182,33.2105342 L192.426861,38.971037 Z M202.601983,41.0521931 L202.189932,39.7279568 L198.942044,30.6598489 C199.290645,30.6643277 199.556388,30.6673136 199.738527,30.6673136 L200.451405,30.6598489 L200.688036,31.4817115 C200.744021,31.6593712 200.802245,31.8370308 200.863456,32.0146905 L203.574632,39.9332358 L207.454779,32.0452958 C207.540623,31.8676361 207.62572,31.6862441 207.709325,31.5011197 C207.792929,31.3159953 207.916097,31.0353229 208.078081,30.6598489 C208.443851,30.6643277 208.707354,30.6673136 208.870085,30.6673136 L209.624018,30.6598489 C209.147025,31.5227673 208.538652,32.6850199 207.797408,34.1466066 L205.82673,38.0148099 C205.253441,39.1315279 204.759279,40.1437401 204.343495,41.0521931 C203.982951,41.042489 203.699292,41.0372637 203.491774,41.0372637 C203.283509,41.0372637 202.987161,41.042489 202.601983,41.0521931 Z M210.339882,31.6795258 C210.354812,31.202532 210.362276,30.8419874 210.362276,30.5986384 C210.641456,30.609089 210.887791,30.6135678 211.101281,30.6135678 C211.37001,30.6135678 211.613359,30.609089 211.832074,30.5986384 C211.821624,30.7561434 211.806694,31.1166881 211.78654,31.6795258 C211.511839,31.675047 211.275955,31.6720612 211.07814,31.6720612 C210.880326,31.6720612 210.633991,31.675047 210.339882,31.6795258 Z M209.989042,41.0521931 L210.121167,39.1337673 L210.268968,35.8597534 L210.330925,33.3396733 L211.031859,33.347138 L211.717865,33.3396733 C211.661133,34.1316772 211.60888,34.960258 211.562599,35.8254158 C211.515571,36.6913201 211.478248,37.6363501 211.449882,38.6619987 C211.421516,39.686901 211.407333,40.4841301 211.407333,41.0521931 C211.087098,41.042489 210.857932,41.0372637 210.721328,41.0372637 C210.594428,41.0372637 210.350333,41.042489 209.989042,41.0521931 Z M215.520379,41.0521931 L215.260607,40.2833298 C215.174763,40.0347556 214.970977,39.468932 214.650742,38.5858589 L212.738288,33.3396733 C213.047326,33.3448986 213.291422,33.347138 213.469081,33.347138 C213.66167,33.347138 213.89009,33.3448986 214.15434,33.3396733 L214.314831,33.8726524 C214.360365,34.0249321 214.439491,34.268281 214.550715,34.6034457 L216.342988,39.9100952 L218.757069,34.0936072 L219.045953,33.3396733 C219.346033,33.3448986 219.58565,33.347138 219.76331,33.347138 C219.941716,33.347138 220.180586,33.3448986 220.481413,33.3396733 L219.492341,35.4641247 L217.506733,39.8951659 L217.020035,41.0521931 C216.705025,41.042489 216.459437,41.0372637 216.281777,41.0372637 C216.098892,41.0372637 215.845093,41.042489 215.520379,41.0521931 Z M221.623511,34.5653758 C221.669045,34.3421815 221.717566,34.0122421 221.768326,33.5755576 C222.377445,33.4180526 222.906691,33.310561 223.355319,33.2523364 C223.804694,33.1941119 224.242871,33.1642531 224.669105,33.1642531 C225.125944,33.1642531 225.553671,33.2060554 225.951539,33.2904064 C226.350154,33.3740109 226.681586,33.5098683 226.94509,33.6972321 C227.20934,33.8853423 227.38476,34.1010719 227.470604,34.3444209 C227.557194,34.5885163 227.60049,34.8497805 227.60049,35.12896 C227.60049,35.4790541 227.573617,36.0665253 227.520617,36.8913738 C227.467618,37.7162223 227.427309,38.4791138 227.399689,39.1793019 C227.37207,39.8802365 227.357887,40.5042847 227.357887,41.0521931 C227.083933,41.042489 226.859992,41.0372637 226.687558,41.0372637 C226.524828,41.0372637 226.293422,41.042489 225.994088,41.0521931 L226.155325,38.9740229 L226.271028,36.5144069 C226.093368,36.6517572 225.95975,36.7480517 225.870921,36.8040369 C225.782091,36.8600221 225.682064,36.9115285 225.570093,36.960049 C225.458123,37.0085695 225.334956,37.0541041 225.200591,37.0973993 C225.066227,37.139948 224.804216,37.2153414 224.416052,37.3220865 C224.027142,37.4280852 223.751694,37.5094503 223.588964,37.5654355 C223.23887,37.6766594 222.96193,37.7886298 222.75889,37.9006002 C222.555104,38.0118241 222.384909,38.1334986 222.248306,38.2656236 C222.110955,38.3977486 222.014661,38.5298737 221.958675,38.6619987 C221.89224,38.8239826 221.859395,38.9941775 221.859395,39.1718372 C221.859395,39.4457914 221.94076,39.6846616 222.10349,39.8877012 C222.265474,40.0907408 222.470007,40.2318235 222.715595,40.3102027 C222.96193,40.388582 223.257532,40.4281449 223.603147,40.4281449 C223.815891,40.4281449 224.039832,40.4132155 224.27273,40.3841032 C224.506375,40.3542444 226.009017,39.90487 226.400167,39.7809561 C226.329253,39.9772775 226.247887,40.2795975 226.156818,40.6871697 C225.785823,40.7580843 224.293631,41.1753605 224.059986,41.1932758 C223.826341,41.2111911 223.605387,41.2201487 223.397122,41.2201487 C222.702159,41.2201487 222.158729,41.1387836 221.768326,40.9760533 C221.377176,40.8140695 221.085307,40.5662417 220.892717,40.2340629 C220.699382,39.9018841 220.603087,39.5398465 220.603087,39.1486967 C220.603087,38.9202771 220.637425,38.7097728 220.7061,38.5171837 C220.774775,38.3238482 220.867337,38.1491744 220.983787,37.9916694 C221.100982,37.8341644 221.266699,37.6766594 221.482428,37.5199009 C221.698158,37.3623959 221.924338,37.2332567 222.160222,37.1309904 C222.396106,37.0302171 222.671554,36.9294437 222.986564,36.8301633 C223.301574,36.7316294 223.806933,36.5980114 224.501896,36.4308023 C224.72509,36.3800424 224.91544,36.3277896 225.072945,36.2747902 C225.23045,36.2217909 225.37004,36.1695381 225.491714,36.1187782 C225.613389,36.0680183 225.720134,36.0083007 225.811949,35.9396256 C225.903019,35.8709504 225.98737,35.7873459 226.06351,35.6888119 C226.138903,35.5895315 226.194888,35.4895046 226.230719,35.3879848 C226.265803,35.286465 226.283718,35.1849452 226.283718,35.0834254 C226.283718,34.8348512 226.202353,34.621361 226.040369,34.4437013 C225.877639,34.2660416 225.665642,34.1413813 225.404377,34.0704667 C225.143113,33.9995521 224.834821,33.9637216 224.478755,33.9637216 C224.148816,33.9637216 223.809919,33.9905945 223.462811,34.0435938 C223.114956,34.0973396 222.814876,34.1607895 222.564062,34.2339434 C222.312502,34.3078439 221.998985,34.4183213 221.623511,34.5653758 Z M248.561345,34.5653758 C248.606879,34.3421815 248.654653,34.0122421 248.705413,33.5755576 C249.314532,33.4180526 249.843779,33.310561 250.293153,33.2523364 C250.742528,33.1941119 251.179959,33.1642531 251.606939,33.1642531 C252.063778,33.1642531 252.490759,33.2060554 252.889373,33.2904064 C253.287988,33.3740109 253.61942,33.5098683 253.882924,33.6972321 C254.147174,33.8853423 254.321848,34.1010719 254.408438,34.3444209 C254.495029,34.5885163 254.538324,34.8497805 254.538324,35.12896 C254.538324,35.4790541 254.511451,36.0665253 254.458452,36.8913738 C254.405452,37.7162223 254.365143,38.4791138 254.337524,39.1793019 C254.309904,39.8802365 254.295721,40.5042847 254.295721,41.0521931 C254.021767,41.042489 253.797826,41.0372637 253.625392,41.0372637 C253.462662,41.0372637 253.231256,41.042489 252.931176,41.0521931 L253.093159,38.9740229 L253.208862,36.5144069 C253.031202,36.6517572 252.897584,36.7480517 252.808755,36.8040369 C252.719925,36.8600221 252.619898,36.9115285 252.507928,36.960049 C252.395957,37.0085695 252.27279,37.0541041 252.138425,37.0973993 C252.003314,37.139948 251.74205,37.2153414 251.353886,37.3220865 C250.964976,37.4280852 250.689529,37.5094503 250.526798,37.5654355 C250.176704,37.6766594 249.899764,37.7886298 249.696724,37.9006002 C249.492938,38.0118241 249.322743,38.1334986 249.185393,38.2656236 C249.048789,38.3977486 248.951748,38.5298737 248.89651,38.6619987 C248.830074,38.8239826 248.797229,38.9941775 248.797229,39.1718372 C248.797229,39.4457914 248.877848,39.6846616 249.040578,39.8877012 C249.203308,40.0907408 249.407094,40.2318235 249.653429,40.3102027 C249.899764,40.388582 250.195366,40.4281449 250.540981,40.4281449 C250.753725,40.4281449 250.976919,40.4132155 251.210564,40.3841032 C251.444209,40.3542444 252.946851,39.90487 253.338001,39.7809561 C253.267087,39.9772775 253.185722,40.2795975 253.094652,40.6871697 C252.723657,40.7580843 251.230719,41.1753605 250.99782,41.1932758 C250.764175,41.2111911 250.543221,41.2201487 250.334956,41.2201487 C249.639993,41.2201487 249.096563,41.1387836 248.705413,40.9760533 C248.31501,40.8140695 248.023141,40.5662417 247.829805,40.2340629 C247.637216,39.9018841 247.540921,39.5398465 247.540921,39.1486967 C247.540921,38.9202771 247.575259,38.7097728 247.643934,38.5171837 C247.711863,38.3238482 247.804425,38.1491744 247.921621,37.9916694 C248.03807,37.8341644 248.204533,37.6766594 248.420262,37.5199009 C248.635992,37.3623959 248.862172,37.2332567 249.098056,37.1309904 C249.33394,37.0302171 249.609388,36.9294437 249.924398,36.8301633 C250.239408,36.7316294 250.744021,36.5980114 251.43973,36.4308023 C251.662924,36.3800424 251.853274,36.3277896 252.010779,36.2747902 C252.168284,36.2217909 252.307874,36.1695381 252.429548,36.1187782 C252.551223,36.0680183 252.657968,36.0083007 252.749784,35.9396256 C252.840853,35.8709504 252.924457,35.7873459 253.000597,35.6888119 C253.076737,35.5895315 253.132722,35.4895046 253.168553,35.3879848 C253.203637,35.286465 253.221552,35.1849452 253.221552,35.0834254 C253.221552,34.8348512 253.140187,34.621361 252.978203,34.4437013 C252.815473,34.2660416 252.603476,34.1413813 252.342211,34.0704667 C252.080201,33.9995521 251.771909,33.9637216 251.41659,33.9637216 C251.08665,33.9637216 250.747753,33.9905945 250.399898,34.0435938 C250.052044,34.0973396 249.75271,34.1607895 249.501896,34.2339434 C249.250336,34.3078439 248.936819,34.4183213 248.561345,34.5653758 Z M229.374101,41.0521931 C229.617449,37.8699949 229.743603,35.299155 229.754053,33.3396733 L230.439312,33.347138 C230.607268,33.347138 230.828223,33.3448986 231.102923,33.3396733 L231.00215,34.8624705 C231.12905,34.6489803 231.230569,34.4855036 231.306709,34.3712938 C231.382849,34.257084 231.484369,34.1369025 231.611269,34.0100027 C231.738168,33.8831029 231.888209,33.7644143 232.060643,33.6554298 C232.233078,33.5464453 232.436117,33.4553761 232.670508,33.3814756 C232.903407,33.3075752 233.140784,33.2530829 233.381894,33.2179989 C233.623003,33.1821683 233.863366,33.1642531 234.10149,33.1642531 C234.538174,33.1642531 234.95993,33.2179989 235.366009,33.324744 C235.772088,33.4307426 236.10576,33.6046699 236.36777,33.8457795 C236.629035,34.086889 236.804455,34.3571109 236.893285,34.656445 C236.981368,34.9565256 237.026156,35.2790003 237.026156,35.6238691 C237.026156,35.6895584 237.023917,35.8164582 237.018692,36.0045684 C237.013466,36.1926786 237.003762,36.438267 236.988833,36.7428264 L236.838046,39.9332358 C236.827595,40.2377952 236.820131,40.6110298 236.814905,41.0521931 C236.586486,41.042489 236.37001,41.0372637 236.16697,41.0372637 C235.91765,41.0372637 235.684005,41.042489 235.465289,41.0521931 C235.516796,40.4385954 235.554865,39.8466454 235.580992,39.2785823 L235.680272,37.504225 C235.711624,36.8951061 235.726553,36.4360276 235.726553,36.1262429 C235.726553,35.6798543 235.650414,35.323042 235.498134,35.0565525 C235.345854,34.790063 235.101759,34.584784 234.766594,34.4399689 C234.430683,34.2951539 234.055209,34.2227464 233.637933,34.2227464 C233.048968,34.2227464 232.542862,34.3623362 232.121107,34.6415156 C231.735183,34.9005404 231.435102,35.2685498 231.221612,35.7455436 C231.074557,36.0859335 230.970052,36.5883073 230.909588,37.2534114 C230.831955,38.049894 230.777463,39.3166522 230.746857,41.0521931 C230.463199,41.042489 230.243737,41.0372637 230.086979,41.0372637 C229.93022,41.0372637 229.692843,41.042489 229.374101,41.0521931 Z M246.026335,41.067869 C245.727001,41.0574184 245.518736,41.0521931 245.401541,41.0521931 L244.739423,41.0521931 L244.830492,39.4077215 C244.667761,39.6921262 244.528172,39.9115882 244.410976,40.0668538 C244.294527,40.2213729 244.15643,40.3669344 243.996686,40.5042847 C243.836195,40.6408886 243.65107,40.7648025 243.440566,40.873787 C243.230062,40.9827715 242.99567,41.067869 242.736646,41.128333 C242.477621,41.1895435 242.203667,41.2201487 241.914037,41.2201487 C241.422113,41.2201487 240.961542,41.1313189 240.532322,40.9536592 C240.103102,40.7759995 239.739572,40.5222 239.439491,40.1922606 C239.140157,39.8623212 238.924427,39.4778896 238.792302,39.0389657 C238.660924,38.5992953 238.594488,38.1417097 238.594488,37.6639694 C238.594488,37.0249918 238.719148,36.3957183 238.967723,35.7761488 C239.216297,35.1565794 239.567884,34.645248 240.021737,34.2421546 C240.476337,33.8383148 240.989908,33.5576424 241.563943,33.4008838 C242.137231,33.2433788 242.74635,33.1642531 243.390553,33.1642531 C243.837688,33.1642531 244.367681,33.215013 244.982025,33.3165328 C245.007405,32.7633991 245.020095,32.3043206 245.020095,31.9385507 C245.020095,31.4107969 245.017109,30.984563 245.011884,30.6598489 L245.705354,30.6673136 C245.878535,30.6673136 246.109194,30.6643277 246.398824,30.6598489 L246.177869,34.960258 L246.026335,39.8862082 L246.026335,41.067869 Z M244.929026,34.2757457 C244.624466,34.1846765 244.363949,34.1264519 244.148219,34.1010719 C243.932489,34.075692 243.723478,34.063002 243.520438,34.063002 C243.032994,34.063002 242.567197,34.1324236 242.123794,34.2720134 C241.678899,34.4116031 241.288495,34.6415156 240.951091,34.9610044 C240.613687,35.2812397 240.35317,35.687319 240.171031,36.1792422 C239.988146,36.6719119 239.89633,37.154131 239.89633,37.6258995 C239.89633,38.0984145 239.982921,38.5388313 240.155355,38.94715 C240.32779,39.3562151 240.595772,39.6757039 240.958556,39.9063629 C241.32134,40.1377684 241.743842,40.2527246 242.226061,40.2527246 C242.515691,40.2527246 242.779194,40.2139082 243.018065,40.1347825 C243.256188,40.0564032 243.473411,39.9407005 243.668986,39.7884208 C243.863814,39.6361411 244.048192,39.430862 244.220626,39.1718372 C244.393061,38.9128124 244.530411,38.6134782 244.631931,38.2730883 C244.717775,37.9737541 244.781225,37.5706608 244.822281,37.0630617 C244.842435,36.8144875 244.865576,36.3345078 244.890956,35.6238691 L244.929026,34.2757457 Z"></path>
                </g>
            </g>
        </g>
    </g>
</svg>
