<svg viewBox="0 0 20 20">
  <g transform="translate(-339.000000, -195.000000)">
    <g transform="translate(320.000000, 170.000000)">
      <g transform="translate(19.000000, 16.000000)">
        <path d="M9,22 L11,22 L11,24 L9,24 L9,22 Z M9,14 L11,14 L11,20 L9,20 L9,14 Z M9.99,9 C4.47,9 0,13.48 0,19 C0,24.52 4.47,29 9.99,29 C15.52,29 20,24.52 20,19 C20,13.48 15.52,9 9.99,9 L9.99,9 Z M10,27 C5.58,27 2,23.42 2,19 C2,14.58 5.58,11 10,11 C14.42,11 18,14.58 18,19 C18,23.42 14.42,27 10,27 L10,27 Z"></path>
      </g>
    </g>
  </g>
</svg>
