<svg viewBox="0 0 17 21">
  <path d="M8.62593042,1.77635684e-15 C2.89155922,1.77635684e-15 0,3.96973658 0,7.28078489 C0,9.28524606 0.785604311,11.0683462 2.47112953,11.7322514 C2.74771186,11.8423983 2.99543876,11.7361047 3.07580419,11.4408184 C3.13142762,11.2370051 3.26336445,10.7211877 3.32230319,10.5055178 C3.40273002,10.2133735 3.37135742,10.1115261 3.14837251,9.85595905 C2.66237347,9.30273441 2.35116464,8.58636422 2.35116464,7.57055793 C2.35116464,4.6255793 4.63350601,1.98886986 8.29378605,1.98886986 C11.5352327,1.98886986 13.3159194,3.90132453 13.3159194,6.45456416 C13.3159194,9.81540979 11.7755922,12.651605 9.48950577,12.651605 C8.22705021,12.651605 7.2821885,11.6438611 7.58437234,10.4068717 C7.94709118,8.93026222 8.64987428,7.33739971 8.64987428,6.27066972 C8.64987428,5.31699154 8.11905724,4.52141988 7.02212131,4.52141988 C5.73154705,4.52141988 4.69447077,5.81093364 4.69447077,7.53795254 C4.69447077,8.63811787 5.07947582,9.38235085 5.07947582,9.38235085 C5.07947582,9.38235085 3.75838849,14.786547 3.52674695,15.7329927 C3.06591967,17.6180589 3.45749393,19.9281808 3.49089255,20.160924 C3.51023183,20.299823 3.69453818,20.3332584 3.77821892,20.2286247 C3.89652616,20.0786399 5.43482732,18.2461573 5.95661937,16.4143862 C6.10500993,15.8963161 6.80576701,13.2112321 6.80576701,13.2112321 C7.22539857,13.9841579 8.45077185,14.6631208 9.75417756,14.6631208 C13.6336974,14.6631208 16.2664174,11.2482094 16.2664174,6.67663654 C16.2667857,3.21945678 13.2343261,1.77635684e-15 8.62593042,1.77635684e-15 L8.62593042,1.77635684e-15 Z" />
</svg>