<svg width="67px" height="78px" viewBox="0 0 67 78">
    <g stroke="none" stroke-width="1" fill-rule="evenodd">
        <g transform="translate(-716.000000, -615.000000)">
            <g transform="translate(640.000000, 540.000000)">
                <g transform="translate(76.000000, 75.000000)">
                    <path d="M0.230816327,51.4004082 C0.680003641,50.2937179 1.82663845,49.6366205 3.00857143,49.8085714 C4.42530612,49.8722449 5.85,49.8085714 7.32244898,49.8085714 L7.44979592,48.1291837 L59.2561224,48.1291837 L59.3834694,49.8085714 C60.7842857,49.8085714 62.1691837,49.8802041 63.5381633,49.8085714 C65.13,49.705102 66.1487755,50.2861224 66.6183673,51.8142857 L66.6183673,55.165102 C66.0612245,56.6534694 64.9708163,57.1628571 63.4346939,57.0673469 C62.097551,56.9877551 60.7444898,57.0673469 59.3197959,57.0673469 L59.3197959,64.4216327 C59.3569829,70.4931744 55.312775,75.833226 49.4583673,77.4428571 C48.662449,77.6657143 47.9142857,77.8169388 47.1422449,78 L19.5,78 C19.3180001,77.9168135 19.1288661,77.850217 18.934898,77.8010204 C12.2779504,76.7941421 7.36575123,71.0587261 7.39408163,64.3261224 L7.39408163,57.0514286 C5.91367347,57.0514286 4.56061224,56.9957143 3.20755102,57.0514286 C2.00770368,57.2152992 0.829856891,56.6279547 0.23877551,55.5710204 L0.23877551,51.4004082 L0.230816327,51.4004082 Z M56.5818367,50.8114286 L10.0604082,50.8114286 C10.0604082,55.5869388 9.95693878,60.2987755 10.0604082,65.0026531 C10.2917502,70.6863049 14.9187182,75.2015272 20.6063265,75.2938776 C29.0961224,75.3628571 37.612449,75.3628571 46.1553061,75.2938776 C51.4561224,75.2540816 56.1838776,71.0834694 56.5022449,65.7985714 C56.8285714,60.8638776 56.6295918,55.8973469 56.6614286,50.9467347 C56.6445038,50.8982815 56.6203536,50.8526643 56.5897959,50.8114286 L56.5818367,50.8114286 Z M59.2959184,52.5306122 L59.3993878,54.4010204 L63.8326531,54.4010204 L63.8326531,52.5306122 L59.2959184,52.5306122 L59.2959184,52.5306122 Z M7.33836735,52.5306122 L2.92102041,52.5306122 L2.92102041,54.3771429 L7.33836735,54.3771429 L7.33836735,52.5306122 Z M59.8530612,41.34 L8.49244898,45.8369388 C8.00764259,44.5345354 8.10026422,43.0873224 8.74714286,41.8573469 C9.69881804,40.0974796 11.1099129,38.6286206 12.8302041,37.6071429 C15.6781094,35.7237351 18.906844,34.4925762 22.2857143,34.0016327 C24.2834694,33.6912245 26.2653061,33.2057143 28.2232653,32.7679592 C28.5282815,32.624746 28.7995317,32.4185958 29.0191837,32.1630612 L28.8202041,31.8844898 L28.0242857,31.8844898 C27.8494115,31.8971227 27.6738538,31.8971227 27.4989796,31.8844898 C26.0106122,31.6536735 25.3818367,30.4040816 25.4216327,27.7377551 C25.3984485,26.5587258 26.3135063,25.5732789 27.4910204,25.5091837 C30.8577551,25.1908163 34.2244898,24.8883673 37.5991837,24.6416327 C39.1034694,24.5302041 39.8993878,25.2942857 40.082449,26.8304082 C40.1381633,27.3159184 40.2097959,27.8014286 40.2416327,28.2869388 C40.3371429,29.9902041 39.7640816,30.6746939 38.0846939,31.0408163 C37.7875928,31.1798379 37.5179777,31.3712646 37.2887755,31.6059184 L37.4081633,32.1312245 L45.4389796,32.1312245 C49.1185885,32.1113359 52.7369548,33.0729367 55.9212245,34.9169388 C56.7585886,35.4149744 57.5357579,36.0078664 58.2373469,36.6838776 C59.5568398,37.8440673 60.1702782,39.6118579 59.8530612,41.34 L59.8530612,41.34 Z M56.5102041,39 L56.6534694,38.7453061 C56.1301657,38.2653782 55.5772409,37.8187851 54.9979592,37.4081633 C52.2137723,35.7123383 49.0323433,34.7790459 45.7732653,34.7020408 C42.8522449,34.5906122 39.9232653,34.622449 37.0181633,34.5746939 C35.8419323,34.5971928 34.8646247,33.6729997 34.8214286,32.4973469 L34.8214286,31.4546939 C34.8214286,29.2340816 35.1557143,28.7883673 37.3126531,28.382449 C37.4223178,28.3424528 37.5265864,28.2889818 37.6230612,28.2232653 L37.4081633,27.2522449 L28.0481633,28.0481633 L28.1834694,29.1465306 L29.3295918,29.1465306 C30.3121121,29.1346503 31.1642664,29.8230573 31.3591837,30.7861224 C31.5053949,31.4676802 31.5985313,32.1595503 31.6377551,32.8555102 C31.7512356,33.9918784 30.9462954,35.0147501 29.815102,35.1716327 C27.5944898,35.6253061 25.3897959,36.1346939 23.1532653,36.484898 C19.2934163,36.9646167 15.6566892,38.5575862 12.6869388,41.0693878 C12.1526417,41.5904398 11.6502988,42.1432828 11.1826531,42.724898 L11.3418367,42.9795918 L56.5102041,39 Z M58.4204082,12.9495918 C57.9906122,14.3822449 57.5369388,15.7591837 57.1708163,17.1679592 C55.9729731,21.4154338 56.9467113,25.9803897 59.7734694,29.3693878 C61.1344898,31.0885714 62.6228571,32.7122449 63.9838776,34.4314286 C64.6104324,35.2165353 65.1445582,36.0711364 65.5757143,36.9783673 C66.6422449,39.2546939 66.0373469,41.5310204 63.8565306,42.7646939 C62.3111437,43.5096869 60.7153885,44.1453294 59.0810204,44.6669388 C59.0460156,44.5314546 59.0246844,44.3928019 59.0173469,44.2530612 C59.2481633,44.1097959 59.494898,43.982449 59.7257143,43.8312245 C60.8765721,43.1697803 61.9826371,42.4332898 63.0367347,41.6265306 C63.6623829,41.2028903 64.0699869,40.5254677 64.1512394,39.7742655 C64.2324919,39.0230632 63.9791648,38.2741521 63.4585714,37.7265306 C62.4981908,36.500099 61.4670498,35.3307639 60.3704082,34.2244898 C58.0304082,31.7412245 55.9212245,29.1385714 54.9979592,25.7559184 C53.9234774,21.1833826 55.2081018,16.3764975 58.4204082,12.9495918 L58.4204082,12.9495918 Z M59.3516327,0 C59.1606122,0.573061224 59.0571429,0.899387755 58.9536735,1.22571429 C58.1440015,3.4391189 58.648755,5.91979762 60.2589796,7.64081633 C60.9991837,8.43673469 61.7632653,9.28836735 62.4238776,10.1877551 C64.1614958,12.2792667 63.9328913,15.3707034 61.9065306,17.1838776 C61.2436915,17.8582182 60.4713178,18.4152961 59.6222449,18.8314286 C60.0759184,18.1708163 60.5534694,17.5261224 60.9753061,16.8495918 C62.5114286,14.3902041 62.3602041,12.8063265 60.4897959,10.6095918 C59.6178668,9.66262023 58.8321031,8.63979557 58.1418367,7.55326531 C56.71264,5.06539524 57.2169074,1.91704167 59.3516327,3.88804635e-15 L59.3516327,0 Z M14.4936735,59.28 C14.4038968,61.1603361 14.417182,63.0441783 14.5334694,64.9230612 C14.8266305,67.3213249 16.1788498,69.4620955 18.2185714,70.7571429 C18.5585431,70.9213098 18.8067722,71.2295307 18.8947033,71.5966814 C18.9826343,71.9638321 18.9009629,72.3510628 18.6722449,72.6514286 C18.4751462,72.9709354 18.1471137,73.1871981 17.77579,73.2424363 C17.4044663,73.2976746 17.0276884,73.1862597 16.7461224,72.9379592 C16.5971528,72.845503 16.4536485,72.7445184 16.3163265,72.6355102 C13.4699918,70.5630758 11.7819837,67.258009 11.7716327,63.7371429 C11.7,60.6012245 11.7716327,57.4573469 11.7716327,54.3134694 C11.7716327,53.2787755 12.304898,52.6579592 13.1167347,52.6659184 C13.9285714,52.6738776 14.3265306,53.2787755 14.3663265,54.3612245 L14.3663265,59.28 L14.4857143,59.28 L14.4936735,59.28 Z"></path>
                </g>
            </g>
        </g>
    </g>
</svg>
