<svg viewBox="0 0 19 22">
  <g fill-rule="evenodd">
    <g transform="translate(-32.000000, -483.000000)">
      <g transform="translate(30.000000, 174.000000)">
        <g transform="translate(2.000000, 309.000000)">
          <path d="M19,17 L19,1 C19,0.45 18.55,0 18,0 L1,0 C0.45,0 0,0.45 0,1 L0,22 L6,18 L18,18 C18.55,18 19,17 19,17 Z M16.9913073,15.2551048 L17,2.77272727 C17,2.34772727 16.6447368,2 16.2105263,2 L2.78947368,2 C2.35526316,2 2,2.34772727 2,2.77272727 L2,18.3485107 L5.24401855,16.027832 L16.2018336,16.027832 C16.6360442,16.027832 16.9913073,15.2551048 16.9913073,15.2551048 Z M9.836,10.976 L8.324,10.976 C8.28666648,10.7333321 8.268,10.5420007 8.268,10.402 C8.268,9.6086627 8.63666298,8.9320028 9.374,8.372 L10.046,7.868 C10.4473353,7.56933184 10.648,7.20066886 10.648,6.762 C10.648,6.41666494 10.5266679,6.12033457 10.284,5.873 C10.0413321,5.62566543 9.69600224,5.502 9.248,5.502 C8.781331,5.502 8.42666788,5.65833177 8.184,5.971 C7.94133212,6.28366823 7.82,6.65466452 7.82,7.084 C7.82,7.2706676 7.83866648,7.41999944 7.876,7.532 L6.112,7.462 C6.0653331,7.30333254 6.042,7.09333464 6.042,6.832 C6.042,6.02932932 6.32899713,5.33400294 6.903,4.746 C7.47700287,4.15799706 8.25866172,3.864 9.248,3.864 C10.2746718,3.864 11.0819971,4.13933058 11.67,4.69 C12.2580029,5.24066942 12.552,5.89399622 12.552,6.65 C12.552,7.64867166 12.0900046,8.4746634 11.166,9.128 L10.592,9.534 C10.0879975,9.89800182 9.836,10.350664 9.836,10.892 L9.836,10.976 Z M8.002,13.006 C8.002,12.6979985 8.10933226,12.4343344 8.324,12.215 C8.53866774,11.9956656 8.79999846,11.886 9.108,11.886 C9.41600154,11.886 9.67966557,11.9956656 9.899,12.215 C10.1183344,12.4343344 10.228,12.6979985 10.228,13.006 C10.228,13.3140015 10.1183344,13.5753323 9.899,13.79 C9.67966557,14.0046677 9.41600154,14.112 9.108,14.112 C8.79999846,14.112 8.53866774,14.0046677 8.324,13.79 C8.10933226,13.5753323 8.002,13.3140015 8.002,13.006 Z" />
        </g>
      </g>
    </g>
  </g>
</svg>