<svg width="65px" height="58px" viewBox="0 0 65 58">
    <g stroke="none" stroke-width="1" fill-rule="evenodd">
        <g transform="translate(-152.000000, -637.000000)">
            <g transform="translate(-1.000000, 540.000000)">
                <g transform="translate(153.000000, 80.000000)">
                    <path d="M63.1368249,18.9595058 C61.7369764,17.5596572 59.9483758,16.9270826 57.9577264,17.133394 C54.0292843,17.5383441 49.5833586,21.2161434 45.7870581,25.2775797 L41.1757422,20.6654113 L33.4595248,20.6654113 L0.737,53.386231 L22.254769,74.904 L54.9764412,42.1831802 L54.9764412,34.4669629 L51.8587518,31.350126 C55.8971699,29.6518932 63.3789425,26.0431485 64.1914002,22.297147 C64.4531259,21.0857069 64.0788667,19.9015475 63.1368249,18.9595058 L63.1368249,18.9595058 Z M51.9337741,40.9231461 L22.2556215,70.6012987 L5.04055379,53.386231 L34.7187065,23.7080784 L39.9148555,23.7080784 L43.7563399,27.5504153 C42.5090936,29.0065306 41.3743809,30.4404802 40.398238,31.7295003 C39.7272997,31.4728898 39.0035047,31.3151724 38.241346,31.3151724 L38.241346,31.3151724 L38.2379359,31.3151724 C34.8832441,31.3168774 32.1534542,34.0458148 32.1534542,37.4013591 C32.1534542,40.7586085 34.8832441,43.4875458 38.241346,43.4875458 C41.5951852,43.4875458 44.3249751,40.7603135 44.3275327,37.4047692 C44.3258276,35.917963 43.7691278,34.5726761 42.8825003,33.5155433 C43.8074915,32.2998405 44.8450163,31.0108204 45.9371027,29.7294731 L51.9354792,35.7278496 L51.9354792,40.9231461 L51.9337741,40.9231461 Z M41.2831605,37.4013591 C41.2814555,39.0842464 39.9191181,40.4448787 38.2404934,40.4448787 C36.5584586,40.4448787 35.1961213,39.0833939 35.1961213,37.4013591 C35.1961213,35.7227344 36.5593112,34.3595445 38.2404934,34.3595445 C38.3146632,34.3595445 38.3862755,34.3757425 38.4604453,34.3808577 C37.7068118,35.4499259 37.182508,36.2376604 36.9659663,36.5684407 C36.5064545,37.2726276 36.7042407,38.2138168 37.407575,38.6750337 C37.665038,38.8429814 37.953192,38.9231189 38.2379359,38.9231189 C38.7349588,38.9231189 39.2217514,38.6810014 39.5133155,38.23513 C39.9080353,37.6315412 40.4033532,36.9043361 40.977956,36.0969935 C41.1672169,36.4942709 41.2831605,36.931617 41.2831605,37.4013591 L41.2831605,37.4013591 Z M61.2169353,21.6517845 C60.8043124,23.5546236 55.000312,26.8496385 49.5253868,29.0159084 L47.9575905,27.4481122 C51.446129,23.6893228 55.2688578,20.4701827 58.2697511,20.1598631 C59.3626901,20.0524447 60.2245944,20.350829 60.9859006,21.1104301 C61.2706444,21.3985841 61.240806,21.539251 61.2169353,21.6517845 L61.2169353,21.6517845 Z"></path>
                </g>
            </g>
        </g>
    </g>
</svg>
