<svg viewBox="0 0 19 15">
  <path d="M4.71507353,0 C2.09558824,0 0,1.9141791 0,4.53358209 C0,8.05970149 3.53919579,10.2281938 9.5,15 C15.2426161,10.4202858 18.8602941,8.05970149 19,4.47761194 C18.8602941,1.9141791 16.7647059,0 14.1452206,0 C12.0496324,0 10.1636029,1.30970149 9.5,3.02238806 C8.69669118,1.30970149 6.81066176,0 4.71507353,0 Z" />
  <path fill="#FFFFFF" d="M10.5215556,4.5291748 C10.4201127,4.71242748 9.72597123,6.02000427 9.5,6.02000427 C9.30418923,6.02000427 8.58154996,4.6007404 8.54919051,4.5291748 C8.24912483,3.86555481 7.3874415,3.09942627 6.82801767,2.63806152 C6.26859385,2.17669678 5.18950925,1.74255371 4.66448563,1.74255371 C3.00193651,1.74255371 1.72872932,2.9831543 1.72872932,5.01501465 C1.72872932,6.49291992 5.12874369,9.2853434 9.50000011,12.784668 C13.7112519,9.42621092 17.1910127,6.36657873 17.190887,5.01501465 C17.1907023,3.02832031 16.0349882,1.74255371 14.4612888,1.74255371 C13.9120471,1.74255371 12.7727185,2.12286377 12.1664323,2.63806152 C11.5601461,3.15325928 10.9036457,3.83894348 10.5215556,4.5291748 Z" />
</svg>