<svg viewBox="0 0 23 20">
  <g transform="translate(-31.000000, -237.000000)">
    <g transform="translate(30.000000, 174.000000)">
      <g transform="translate(1.000000, 63.000000)">
        <path d="M18,20 C18,20 4.1030422,19.8904566 4,20 C4.11666937,18.2958212 4.10240014,16.8845135 4.1169386,15.4732058 C4.1196309,15.2195904 4.0364386,15.1197058 3.80786167,15.0249366 C1.24290014,13.9612058 -0.222522941,11.5077058 0.0275924434,8.72332121 C0.264784751,6.08378275 2.44447706,3.76866736 5.0689386,3.38743659 C5.43240014,3.33466736 5.65720783,3.19843659 5.8661309,2.86647506 C8.32555398,-1.04221725 13.9651309,-0.928871098 16.3077078,3.05547506 C16.3795924,3.17770582 16.5513617,3.29159044 16.6924386,3.31555198 C19.2380155,3.74632121 20.9882848,5.15170582 21.7728232,7.6146289 C22.7267078,10.6092827 21.1923617,13.7829751 18.2892463,15.0009751 C18.1759001,15.0486289 18.0639001,15.100052 17.929554,15.1590135 C17.929554,16.661052 18,20 18,20 Z M16,18 C16,18 16.2069373,14.3345657 16,13.8802929 C19.2079648,13.2827194 20.335117,10.4449767 19.8089502,8.37735304 C19.4584518,7.00027863 18.5016751,6.0238703 17.5923594,5.52676298 C17.1410399,5.28003432 16.8236422,6.55953074 16.8428952,6.95775057 C16.8621482,7.35645781 16.3051519,6.96579293 15.9739519,6.95775054 C15.6659043,6.95043929 15.4770301,6.71989097 15.4643573,6.33507511 C15.3576129,3.11592844 11.9980901,1.0760876 9.09210895,2.46961327 C8.36610108,2.81762913 8.76032873,2.71960172 8.32043474,3.40661622 C8.72645324,3.50873012 8.8536773,3.90684002 9.22021501,4.03308106 C9.62233417,4.17175125 9.35230506,4.74682624 9.22021501,5.0577984 C9.09689847,5.34781161 8.48917392,5.43676528 8.10679515,5.28615337 C7.36835814,4.99565274 6.60116352,4.93082626 5.8310444,5.05779843 C3.75684065,5.39996528 2.2507216,7.10226973 2.11180771,9.22082845 C1.97898653,11.2455594 3.31840891,13.1260148 5.31828154,13.7218823 C5.48644046,13.7718425 5.65435568,13.8179035 6,13.8685948 C5.83250665,14.3477259 6,18 6,18 L16,18 Z" />
        <path d="M8,12.359972 C8,12.1612306 8.44744059,12 9,12 L9,12 C9.55210238,12 10,12.1610661 10,12.359972 L10,15.640028 C10,15.8387694 9.55255941,16 9,16 L9,16 C8.44789762,16 8,15.8389339 8,15.640028 L8,12.359972 L8,12.359972 Z" />
        <path d="M12,12.359972 C12,12.1612306 12.4474406,12 13,12 L13,12 C13.5521024,12 14,12.1610661 14,12.359972 L14,15.640028 C14,15.8387694 13.5525594,16 13,16 L13,16 C12.4478976,16 12,15.8389339 12,15.640028 L12,12.359972 L12,12.359972 Z" />
      </g>
    </g>
  </g>
</svg>