<svg viewBox="0 0 122 101">
  <g transform="translate(-428.000000, -174.000000)">
    <g transform="translate(46.000000, 28.000000)">
      <g transform="translate(306.000000, 63.000000)">
        <g transform="translate(-15.000000, -19.000000)">
          <path d="M202.020352,187 C201.013208,162.015748 181.305445,141.511028 156.445388,139.345908 L156.445388,137.282788 C158.967993,135.769108 160.536318,133.053188 160.536318,130.033988 C160.536318,125.358308 156.744956,121.558468 152.087423,121.558468 C147.246896,121.558468 143.4596,125.359668 143.4596,130.033988 C143.4596,133.053188 145.02657,135.769108 147.55053,137.282788 L147.55053,139.345908 C122.690473,141.511028 102.98271,162.014388 101.976922,187 L97.6962204,187 C94.0024551,187.265508 91,190.280628 91,193.982548 L91,196.510788 C91,200.220868 94.0038106,203.234628 97.6962204,203 L206.299698,203 C209.993463,203.234628 212.994563,200.218148 212.994563,196.510788 L212.994563,193.982548 C212.993207,190.277908 209.988041,187.266868 206.298342,187.266868 L202.020352,187 Z M147.489532,130.035348 C147.489532,127.594148 149.468577,125.609908 151.904429,125.609908 L152.084712,125.609908 C154.519208,125.609908 156.499609,127.594148 156.499609,130.035348 C156.499609,131.860468 155.397579,133.474788 153.68828,134.146628 C152.918351,134.452628 152.41139,135.197908 152.41139,136.030228 L152.41139,139.156868 L151.583173,139.156868 L151.583173,136.030228 C151.583173,135.199268 151.074857,134.452628 150.304927,134.146628 C148.592918,133.473428 147.489532,131.859108 147.489532,130.035348 L147.489532,130.035348 Z M206.296987,199 L97.6921539,199 C96.2254918,199.189988 95.0312873,195.989108 95.0312873,197 L95.0312873,193.983908 C95.0312873,192.512388 96.1699158,191.036204 97.6365779,191.036204 C97.6365779,191.036204 100.99011,191.040284 101.009087,191.040284 L173.458397,191.040284 C174.572626,191.040284 175.530972,190.409828 175.530972,189.293268 C175.530972,188.175348 174.628202,187.269588 173.513973,187 L106.014987,187 C107.070929,162.853508 127.148746,143.303508 151.717369,143.206948 L152.271772,143.206948 C176.84175,143.302148 196.920923,162.852148 197.976865,187 L186.563469,187 C185.451951,187.269588 184.54647,188.175348 184.54647,189.293268 C184.54647,190.409828 185.451953,191.044364 186.563471,191.044364 L202.143705,191.040284 L206.296989,191.040284 C207.763651,191.040284 208.957853,192.512388 208.957853,193.983908 L208.957853,196.512148 C208.957853,197.989108 207.763649,199.189988 206.296987,199 Z M121.264476,142.585428 C121.650797,143.182468 122.298731,143.512948 122.96022,143.512948 C123.33434,143.512948 123.716594,143.406868 124.055472,143.186548 C124.989418,142.581348 125.257809,141.327428 124.651896,140.387668 C124.590898,140.291108 118.379951,130.405268 123.648819,123.665108 C126.56181,119.938708 127.070127,115.248068 125.120903,110.093668 C123.730149,106.412148 121.549133,103.775108 121.458314,103.663588 C120.74396,102.805428 119.471136,102.692548 118.615809,103.409268 C117.761838,104.123268 117.647975,105.400308 118.360973,106.257108 C118.432816,106.342788 125.382516,114.889028 120.475569,121.165428 C113.42285,130.186308 120.941865,142.082228 121.264476,142.585428 Z M107.724285,142.585428 C108.110605,143.182468 108.758539,143.512948 109.420028,143.512948 C109.795504,143.512948 110.175047,143.406868 110.513925,143.186548 C111.449227,142.581348 111.718973,141.327428 111.111705,140.387668 C111.050707,140.291108 104.838404,130.405268 110.108627,123.665108 C113.021619,119.938708 113.529935,115.248068 111.580711,110.093668 C110.188602,106.412148 108.007587,103.775108 107.916767,103.663588 C107.203769,102.805428 105.930945,102.692548 105.075618,103.409268 C104.220291,104.123268 104.106428,105.400308 104.819427,106.257108 C104.891269,106.342788 111.840969,114.889028 106.935378,121.165428 C99.8813029,130.186308 107.400318,142.082228 107.724285,142.585428 Z M192.438251,141.648388 C192.824571,142.245428 193.47386,142.573188 194.132638,142.573188 C194.508115,142.573188 194.890369,142.468468 195.229246,142.249508 C196.163193,141.641588 196.434295,140.389028 195.827026,139.449268 C195.766028,139.354068 189.552369,129.466868 194.823949,122.728068 C197.735584,119.001668 198.243901,114.309668 196.296033,109.156628 C194.903924,105.476468 192.721552,102.838068 192.632089,102.726548 C191.917735,101.868388 190.646266,101.754148 189.788228,102.470868 C188.935612,103.187588 188.821749,104.461908 189.533392,105.318708 C189.605234,105.404388 196.554935,113.951988 191.649344,120.228388 C184.596624,129.247908 192.115639,141.145188 192.438251,141.648388 Z M178.899415,141.648388 C179.283024,142.245428 179.932313,142.573188 180.593802,142.573188 C180.969279,142.573188 181.348822,142.468468 181.687699,142.249508 C182.621646,141.641588 182.892748,140.389028 182.285479,139.449268 C182.224481,139.354068 176.010822,129.466868 181.282402,122.728068 C184.194038,119.001668 184.702354,114.309668 182.757197,109.156628 C181.365088,105.476468 179.182716,102.838068 179.093253,102.726548 C178.378899,101.868388 177.104719,101.754148 176.249392,102.470868 C175.394065,103.187588 175.282913,104.461908 175.994556,105.321428 C176.092153,105.441108 183.005255,113.962868 178.110508,120.228388 C171.057788,129.247908 178.572737,141.145188 178.899415,141.648388 Z" />
        </g>
      </g>
    </g>
  </g>
</svg>