<svg viewBox="0 0 65 48">
  <g transform="translate(-608.000000, -242.000000)">
    <g transform="translate(320.000000, 169.000000)">
      <g transform="translate(270.000000, 73.000000)">
        <path d="M79.953125,8 L72.4578125,8 L68.3953125,0 L52.9171875,0 L48.8546875,8 L34.25,8 L34.25,4 L24.09375,4 L24.09375,8 L21.046875,8 C19.3641324,8 18,9.34314575 18,11 L18,45 C18,46.6568542 19.3641324,48 21.046875,48 L79.953125,48 C81.6358676,48 83,46.6568542 83,45 L83,11 C83,9.34314575 81.6358676,8 79.953125,8 L79.953125,8 Z M26.125,6 L32.21875,6 L32.21875,8 L26.125,8 L26.125,6 L26.125,6 Z M80.96875,45 C80.96875,45.5522847 80.5140392,46 79.953125,46 L21.046875,46 C20.4859608,46 20.03125,45.5522847 20.03125,45 L20.03125,11 C20.03125,10.4477153 20.4859608,10 21.046875,10 L50.1140625,10 L54.1765625,2 L67.1359375,2 L71.1984375,10 L79.953125,10 C80.5140392,10 80.96875,10.4477153 80.96875,11 L80.96875,45 Z M32.21875,12 L34.25,12 L34.25,44 L32.21875,44 L32.21875,12 Z M60.65625,12 C51.6816228,12 44.40625,19.163444 44.40625,28 C44.40625,36.836556 51.6816228,44 60.65625,44 C69.6308772,44 76.90625,36.836556 76.90625,28 C76.90625,23.7565362 75.1942013,19.6868736 72.1467352,16.6862915 C69.099269,13.6857094 64.966018,12 60.65625,12 Z M60.65625,42 C52.8034512,42 46.4375,35.7319865 46.4375,28 C46.4375,20.2680135 52.8034512,14 60.65625,14 C68.5090488,14 74.875,20.2680135 74.875,28 C74.875,31.7130309 73.3769574,35.2739856 70.7104245,37.8994949 C68.0438917,40.5250042 64.427297,42 60.65625,42 Z M60.65625,18 C55.047108,18 50.5,22.4771525 50.5,28 C50.5,33.5228475 55.047108,38 60.65625,38 C66.265392,38 70.8125,33.5228475 70.8125,28 C70.8125,25.3478351 69.7424696,22.804296 67.8378032,20.9289322 C65.9331369,19.0535684 63.349855,18 60.65625,18 Z M60.65625,36 C56.1689364,36 52.53125,32.418278 52.53125,28 C52.53125,23.581722 56.1689364,20 60.65625,20 C65.1435636,20 68.78125,23.581722 68.78125,28 C68.78125,32.418278 65.1435636,36 60.65625,36 Z M44.40625,16 C45.5280784,16 46.4375,15.1045695 46.4375,14 C46.4375,12.8954305 45.5280784,12 44.40625,12 C43.2844216,12 42.375,12.8954305 42.375,14 C42.375,15.1045695 43.2844216,16 44.40625,16 Z" />
      </g>
    </g>
  </g>
</svg>