<svg viewBox="0 0 22 22">
  <g transform="translate(-31.000000, -424.000000)">
    <g transform="translate(30.000000, 174.000000)">
      <g transform="translate(1.000000, 250.000000)">
        <path d="M11,0 C4.928,0 0,4.928 0,11 C0,17.072 4.928,22 11,22 C17.072,22 22,17.072 22,11 C22,4.928 17.072,0 11,0 L11,0 Z M2,11 C2,6.03875 6.03875,2 11,2 C15.96125,2 20,6.03875 20,11 C20,15.96125 15.96125,20 11,20 C6.03875,20 2,15.96125 2,11 Z M12,6 L10,6 L10,10 L6,10 L6,12 L10,12 L10,16 L12,16 L12,12 L16,12 L16,10 L12,10 L12,7 L12,6 Z" />
      </g>
    </g>
  </g>
</svg>