<svg viewBox="0 0 106 106">
  <defs>
    <path id="path-1" d="M44.3205373,51.5905031 C38.2321483,56.4795135 30.4993569,59.404622 22.0833697,59.404622 C13.7380874,59.404622 6.06456956,56.5284562 -7.10542736e-15,51.7133081 C3.56510591,46.1279829 10.5978971,43.4173307 14.1033894,42.3682583 L14.1033894,42.3682583 C16.3109047,44.0450379 19.0644441,45.040221 22.0504209,45.040221 C25.0767019,45.040221 27.8642283,44.017991 30.0865432,42.2999878 C33.4489995,43.2952663 40.6563977,45.9876537 44.3205373,51.5905031 L44.3205373,51.5905031 Z" />
  </defs>
  <g transform="translate(-52.000000, -227.000000)">
    <g transform="translate(52.000000, 227.000000)">
      <circle fill="#B7B7B7" cx="53" cy="53" r="53" />
      <text id="Add-photo" font-size="14" font-weight="300" fill="#FFFFFF">
        <tspan x="19.561" y="88">Add photo</tspan>
      </text>
      <g transform="translate(31.000000, 12.000000)">
        <path d="M34,20.9121803 L34,27 L10,27 L10,21.2531085 C5.63736315,20.3763568 2.62356744,16.7993116 2.62356744,12.5198964 C2.62356744,7.58310298 6.63440332,3.58104115 11.5820201,3.58104115 C12.1229642,3.58104115 12.6527101,3.62888173 13.16724,3.72055397 C14.7937156,1.46712674 17.4459272,0 20.4415558,0 C24.8512354,0 28.5167659,3.17911151 29.2617178,7.36566627 C29.8408168,7.21529104 30.4483616,7.13525801 31.07464,7.13525801 C35.0388208,7.13525801 38.2524243,10.3418315 38.2524243,14.2973403 C38.2524243,17.2782431 36.4273389,19.8338068 33.8313253,20.9121803 L34,20.9121803 Z M33.9999992,30.2317067 C33.9999992,29.7011821 34,29.6619691 34,29 L10.0296423,29 C9.96294709,29.6619691 10.0296423,29.7011821 10.0296423,30.2317067 C10.0296423,37.2611578 15.4986522,42.9642974 22.2348717,42.9642974 C28.9710911,42.9642974 33.9999992,37.2611578 33.9999992,30.2317067 Z" id="Combined-Shape" fill="#FFFFFF" />
        <mask fill="white">
          <use xlink:href="#path-1" />
        </mask>
        <use id="Combined-Shape" fill="#FFFFFF" xlink:href="#path-1" />
      </g>
    </g>
  </g>
</svg>