<svg width="18px" height="18px" viewBox="0 0 18 18">
    <g stroke="none" stroke-width="1" fill-rule="evenodd">
        <g transform="translate(-98.000000, -15.000000)">
            <g transform="translate(37.000000, 3.000000)">
                <g transform="translate(50.000000, 0.000000)">
                    <path d="M20.9497418,12.0005625 C20.7247364,12.0005625 20.5627324,12.1766293 20.5627324,12.4578861 L20.5627324,14.0222366 C20.5627324,15.7097777 18.9246926,17.5767605 17.8553541,18.6455365 C17.3490918,19.0392961 16.7370769,19.3138028 16.0620605,19.3138028 L16.0620605,28.8765352 C16.0620605,28.8765352 17.1870879,29.4390488 18.8746289,29.4390488 L25.1680318,29.4390488 C25.6742941,29.4390488 26.1383679,29.0981656 26.3633734,28.6481546 C26.3633734,28.6481546 28.5009253,22.7451362 28.8946849,21.0013438 C28.9509363,20.7763383 28.9475612,20.6565229 28.9475612,20.5440202 C29.0038126,19.8690037 28.4306111,19.3132402 27.6993434,19.3132402 L23.6559951,19.3132402 C22.9809787,19.3132402 22.4252152,18.6871625 22.4252152,18.0121461 C22.4252152,17.3371297 23.3747383,15.9375957 23.3747383,14.2500547 L23.3747383,13.4062842 C23.3747383,12.618765 22.7559732,12 21.9684541,12 L20.9486168,12 L20.9497418,12.0005625 Z M11,19.3132402 L12.1250273,30.001 L14.9375957,30.001 L14.9375957,19.3132402 L11,19.3132402 L11,19.3132402 Z M13.8125684,28.313459 C14.1500766,28.313459 14.375082,28.5384645 14.375082,28.8759727 C14.375082,29.2134809 14.1500766,29.4384863 13.8125684,29.4384863 C13.4750602,29.4384863 13.2500547,29.2134809 13.2500547,28.8759727 C13.2500547,28.5384645 13.4750602,28.313459 13.8125684,28.313459 L13.8125684,28.313459 Z" transform="translate(19.975687, 21.000500) scale(1, -1) translate(-19.975687, -21.000500) "></path>
                </g>
            </g>
        </g>
    </g>
</svg>
