<svg viewBox="0 0 15 19">
  <path d="M9,10.5692467 C9,9.70306402 8.3270571,8.99810964 7.5,8.99810964 C6.6729429,8.99810964 6,9.70288743 6,10.5692467 C6,11.0852479 6.24398606,11.5638116 6.63921987,11.8543051 L6.16035297,13.5727197 C6.13253147,13.6732004 6.15107914,13.7812746 6.21110612,13.8649791 C6.27096448,13.9486836 6.36505171,13.9979527 6.46470324,13.9979527 L8.53479092,13.9979527 C8.53732014,13.9979527 8.53951214,13.9983059 8.54102968,13.9979527 C8.71638939,13.9979527 8.85819469,13.849439 8.85819469,13.6657835 C8.85819469,13.6103337 8.84554856,13.5580625 8.82227968,13.5119721 L8.36078013,11.8541285 C8.75618255,11.5638116 9,11.0852479 9,10.5692467 L9,10.5692467 Z" />
  <path d="M12.7420066,6.69335215 L12.7420066,5.09163435 C12.7420066,2.28403649 10.3563396,0 7.42403526,0 C4.49173097,0 2.10584343,2.2842476 2.10584343,5.09163435 L2.10584343,6.84303159 C0.805071663,8.13504594 0,9.88770986 0,11.8196091 C0,15.7788309 3.36449834,19 7.50011023,19 C11.6355016,19 15,15.7788309 15,11.8196091 C15.0002205,9.81255347 14.1334068,7.99761108 12.7420066,6.69335215 L12.7420066,6.69335215 Z M7.42403526,1.58820654 C9.44145532,1.58820654 11.0831312,3.15994622 11.0831312,5.09163435 L11.0831312,5.51343904 C10.0178611,4.95631063 8.79713338,4.63921821 7.50033074,4.63921821 C6.13980153,4.63921821 4.86637264,4.99325548 3.76493935,5.6023178 L3.76493935,5.09184546 C3.76471884,3.15973511 5.40617419,1.58820654 7.42403526,1.58820654 L7.42403526,1.58820654 Z M7.50011023,17.4115824 C4.27938257,17.4115824 1.65887541,14.9031323 1.65887541,11.819398 C1.65887541,8.73566373 4.27916206,6.22700252 7.50011023,6.22700252 C10.7210584,6.22700252 13.3411245,8.73566373 13.3411245,11.819398 C13.3411245,14.9031323 10.7210584,17.4115824 7.50011023,17.4115824 L7.50011023,17.4115824 Z" />
</svg>