<svg width="60px" height="60px" viewBox="0 0 60 60">
    <g stroke="none" stroke-width="1" fill-rule="evenodd">
        <g transform="translate(-809.000000, -270.000000)">
            <g transform="translate(639.000000, 185.000000)">
                <path d="M194,128.5 L212,115 L194,101.5 L194,128.5 L194,128.5 Z M200,85 C183.44,85 170,98.44 170,115 C170,131.56 183.44,145 200,145 C216.56,145 230,131.56 230,115 C230,98.44 216.56,85 200,85 L200,85 Z M200,139 C186.77,139 176,128.23 176,115 C176,101.77 186.77,91 200,91 C213.23,91 224,101.77 224,115 C224,128.23 213.23,139 200,139 L200,139 Z"></path>
            </g>
        </g>
    </g>
</svg>
