<svg viewBox="0 0 20 18">
  <g transform="translate(-32.000000, -304.000000)">
    <g transform="translate(30.000000, 174.000000)">
      <path d="M12,132.09 C10.91,130.81 9.24,130 7.5,130 C4.42,130 2,132.42 2,135.5 C2,139.28 5.4,141.36 10.55,146.04 L12,147.35 L13.45,146.03 C18.6,141.36 22,139.28 22,135.5 C22,132.42 19.58,130 16.5,130 C14.76,130 13.09,130.81 12,132.09 Z M12,144.65 L11.9,144.55 C7.14,140.24 4,138.39 4,135.5 C4,133.5 5.5,132 7.5,132 C9.04,132 10.54,132.99 11.07,134.36 C11.07,134.36 11.7991963,135.5 12.1000004,135.5 C12.4225297,135.5 12.94,134.36 12.94,134.36 C13.46,132.99 14.96,132 16.5,132 C18.5,132 20,133.5 20,135.5 C20,138.39 16.86,140.24 12.1,144.55 L12,144.65 Z" />
    </g>
  </g>
</svg>