<svg width="41px" height="54px" viewBox="0 0 41 54">
    <g fill-rule="evenodd">
        <g transform="translate(-167.000000, -639.000000)" fill="#333333">
            <g transform="translate(-1.000000, 0.000000)">
                <g transform="translate(0.000000, 540.000000)">
                    <g transform="translate(168.000000, 80.000000)">
                        <path d="M39.0709,31.7968 C39.0649,31.7878 39.0589,31.7798 39.0519,31.7708 C39.0539,31.7258 39.0559,31.6808 39.0559,31.6348 C39.0559,31.3588 39.0559,30.5378 37.2779,27.9688 C38.4279,27.0028 39.0559,25.6598 39.0559,24.1458 C39.0559,21.2128 36.7889,18.9998 33.7829,18.9998 L6.8239,18.9998 C3.8189,18.9998 1.5529,21.2128 1.5529,24.1458 C1.5529,25.6098 2.1439,26.9208 3.2269,27.8808 C3.0679,28.0688 2.9009,28.2698 2.7329,28.4778 C1.3069,30.2468 1.0149,31.0198 1.0149,31.6348 C1.0149,31.9168 1.0559,32.1978 1.1379,32.4738 C0.3929,33.7308 -0.0001,35.1718 -0.0001,36.6518 L-0.0001,64.7148 C-0.0001,69.1728 3.5499,72.7998 7.9149,72.7998 L32.7419,72.7998 C37.1059,72.7998 40.6559,69.1728 40.6559,64.7148 L40.6559,36.6518 C40.6559,34.8858 40.1079,33.2068 39.0709,31.7968 Z M2.5249,36.6528 C2.5249,35.8678 2.6789,35.1168 2.9839,34.4158 C3.2749,34.5138 3.5779,34.5638 3.8879,34.5638 C5.4729,34.5638 6.7609,33.2498 6.7609,31.6348 C6.7609,31.4538 6.9719,31.2698 7.1789,31.2698 C7.3719,31.2698 7.5279,31.4338 7.5279,31.6348 C7.5279,33.2498 8.8169,34.5638 10.4009,34.5638 C11.9839,34.5638 13.2729,33.2498 13.2729,31.6348 C13.2729,31.4338 13.4299,31.2698 13.6229,31.2698 C13.8149,31.2698 13.9699,31.4338 13.9699,31.6348 C13.9699,33.2498 15.2599,34.5638 16.8449,34.5638 C18.4289,34.5638 19.7179,33.2498 19.7179,31.6348 C19.7179,31.4338 19.8749,31.2698 20.0669,31.2698 C20.2599,31.2698 20.4159,31.4338 20.4159,31.6348 C20.4159,33.2498 21.7039,34.5638 23.2879,34.5638 C24.8729,34.5638 26.1629,33.2498 26.1629,31.6348 C26.1629,31.4338 26.3189,31.2698 26.5119,31.2698 C26.7039,31.2698 26.8599,31.4338 26.8599,31.6348 C26.8599,33.2498 28.1499,34.5638 29.7339,34.5638 C31.3169,34.5638 32.6069,33.2498 32.6069,31.6348 C32.6069,31.4338 32.7629,31.2698 32.9549,31.2698 C33.1479,31.2698 33.3039,31.4338 33.3039,31.6348 C33.3039,33.2498 34.5939,34.5638 36.1789,34.5638 C36.6649,34.5638 37.1449,34.4358 37.5679,34.1978 C37.9359,34.9548 38.1279,35.7948 38.1279,36.6518 L38.1279,64.7148 L38.1279,64.8978 C38.0329,67.8588 35.6529,70.2368 32.7409,70.2368 L7.9149,70.2368 C4.9429,70.2368 2.5249,67.7598 2.5249,64.7158 L2.5249,36.6528 Z M34.9209,26.4668 C34.3799,26.7208 34.0919,27.3118 34.2179,27.9028 C34.2689,28.1438 34.3879,28.3638 34.5629,28.5408 C35.6509,30.0098 36.4249,31.3368 36.5259,31.6858 C36.5229,31.7178 36.5139,31.7498 36.5009,31.7798 C36.4449,31.9148 36.3189,32.0018 36.1789,32.0018 C35.9869,32.0018 35.8309,31.8378 35.8309,31.6358 C35.8309,30.0208 34.5419,28.7068 32.9569,28.7068 C31.3719,28.7068 30.0829,30.0208 30.0829,31.6358 C30.0829,31.8378 29.9269,32.0018 29.7349,32.0018 C29.5439,32.0018 29.3879,31.8378 29.3879,31.6358 C29.3879,30.3998 28.6319,29.3398 27.5669,28.9108 L31.2889,28.9108 C31.9849,28.9108 32.5519,28.3358 32.5519,27.6298 C32.5519,26.9228 31.9849,26.3468 31.2889,26.3468 L5.3549,26.3468 C5.0549,26.3238 4.0779,25.3558 4.0779,24.1468 C4.0779,22.6748 5.2579,21.5648 6.8239,21.5648 L33.7829,21.5648 C35.3489,21.5648 36.5289,22.6748 36.5289,24.1468 C36.5289,25.1838 35.9879,25.9648 34.9209,26.4668 Z M6.1219,28.9108 C5.7549,29.0568 5.4209,29.2758 5.1399,29.5488 C5.3129,29.3428 5.4979,29.1308 5.6929,28.9108 L6.1219,28.9108 Z M21.1219,28.9108 L25.4589,28.9108 C24.3949,29.3398 23.6389,30.3998 23.6389,31.6358 C23.6389,31.8378 23.4829,32.0018 23.2909,32.0018 C23.0989,32.0018 22.9419,31.8378 22.9419,31.6358 C22.9419,30.3998 22.1869,29.3398 21.1219,28.9108 Z M14.6779,28.9108 L19.0149,28.9108 C17.9499,29.3398 17.1949,30.3998 17.1949,31.6358 C17.1949,31.8378 17.0389,32.0018 16.8469,32.0018 C16.6539,32.0018 16.4979,31.8378 16.4979,31.6358 C16.4979,30.3998 15.7429,29.3398 14.6779,28.9108 Z M8.2339,28.9108 L12.5709,28.9108 C11.5059,29.3398 10.7509,30.3998 10.7509,31.6358 C10.7509,31.8378 10.5949,32.0018 10.4029,32.0018 C10.2109,32.0018 10.0549,31.8378 10.0549,31.6358 C10.0549,30.3998 9.2989,29.3398 8.2339,28.9108 Z M3.8899,32.0018 C3.7509,32.0018 3.6249,31.9148 3.5679,31.7808 C3.5609,31.7618 3.5549,31.7418 3.5499,31.7208 C3.6589,31.4738 4.0699,30.8658 4.7099,30.0698 C4.4129,30.5268 4.2379,31.0658 4.2379,31.6358 C4.2379,31.8378 4.0819,32.0018 3.8899,32.0018 Z M5.513,61.9048 L35.144,61.9048 C35.839,61.9048 36.405,61.3298 36.405,60.6228 L36.405,40.9868 C36.405,40.2798 35.839,39.7048 35.144,39.7048 L5.513,39.7048 C4.817,39.7048 4.251,40.2798 4.251,40.9868 L4.251,60.6228 C4.251,61.3298 4.817,61.9048 5.513,61.9048 Z M6.776,59.3418 L33.88,59.3418 L33.88,42.2678 L6.776,42.2678 L6.776,59.3418 Z"></path>
                    </g>
                </g>
            </g>
        </g>
    </g>
</svg>
