<svg viewBox="0 0 23 23">
  <g transform="translate(-31.000000, -541.000000)">
    <g transform="translate(30.000000, 174.000000)">
      <g transform="translate(1.000000, 367.000000)">
        <path d="M11.0911111,23 C10.0177778,23 9.25111111,22.7955556 8.12666667,22.4377778 L7.46222222,22.2333333 L7.46222222,19.4988889 C6.95111111,19.2688889 6.44,18.9877778 5.98,18.6555556 L3.62888889,20.01 L3.11777778,19.5244444 C2.24888889,18.7322222 1.68666667,18.17 1.15,17.25 C0.613333333,16.33 0.408888889,15.5633333 0.153333333,14.3877778 L0,13.6977778 L2.37666667,12.3177778 C2.32555556,11.7555556 2.32555556,11.1933333 2.37666667,10.6311111 L0.0255555556,9.27666667 L0.178888889,8.58666667 C0.434444444,7.43666667 0.638888889,6.67 1.17555556,5.72444444 C1.71222222,4.77888889 2.27444444,4.24222222 3.14333333,3.45 L3.65444444,2.96444444 L6.03111111,4.34444444 C6.49111111,4.01222222 6.97666667,3.73111111 7.48777778,3.50111111 L7.48777778,0.792222222 L8.15222222,0.587777778 C9.27666667,0.23 10.0177778,0 11.0911111,0 C12.1644444,0 12.9311111,0.204444444 14.0555556,0.562222222 L14.72,0.766666667 L14.72,3.50111111 C15.2311111,3.73111111 15.7166667,4.01222222 16.1511111,4.31888889 L18.5277778,2.96444444 L19.0388889,3.45 C19.9077778,4.24222222 20.47,4.80444444 21.0066667,5.72444444 C21.5433333,6.64444444 21.7477778,7.43666667 22.0033333,8.58666667 L22.1566667,9.27666667 L19.8055556,10.6311111 C19.8566667,11.1933333 19.8566667,11.7555556 19.8055556,12.3177778 L22.1822222,13.6977778 L22.0288889,14.3877778 C21.7733333,15.5377778 21.5688889,16.3044444 21.0322222,17.25 C20.4955556,18.17 19.9333333,18.7322222 19.0644444,19.5244444 L18.5533333,20.01 L16.2022222,18.63 C15.7422222,18.9622222 15.2566667,19.2433333 14.7455556,19.4733333 L14.7455556,22.2077778 L14.0811111,22.4122222 C12.9311111,22.7955556 12.19,23 11.0911111,23 L11.0911111,23 Z M9.37888889,20.8022222 C10.0433333,21.0066667 10.5033333,21.0833333 11.0911111,21.0833333 C11.7044444,21.0833333 12.1388889,21.0066667 12.8033333,20.8022222 L12.8033333,18.17 L13.4422222,17.94 C14.1833333,17.6588889 14.8733333,17.2755556 15.4866667,16.7644444 L15.9977778,16.33 L18.2722222,17.6333333 C18.7833333,17.1477778 19.0644444,16.8155556 19.3711111,16.2788889 C19.6777778,15.7677778 19.8311111,15.3333333 19.9844444,14.6433333 L17.7355556,13.34 L17.8633333,12.6755556 C17.9911111,11.8833333 18.0166667,11.0911111 17.8633333,10.2988889 L17.7355556,9.63444444 L20.01,8.33111111 C19.8311111,7.66666667 19.6777778,7.23222222 19.3966667,6.69555556 C19.09,6.18444444 18.8088889,5.82666667 18.2977778,5.34111111 L16.0233333,6.67 L15.5122222,6.23555556 C14.9244444,5.72444444 14.2344444,5.34111111 13.4677778,5.06 L12.8288889,4.83 L12.8288889,2.19777778 C12.1644444,1.99333333 11.7044444,1.91666667 11.1166667,1.91666667 C10.5033333,1.91666667 10.0177778,2.01888889 9.40444444,2.19777778 L9.40444444,4.83 L8.76555556,5.06 C8.02444444,5.34111111 7.33444444,5.72444444 6.72111111,6.23555556 L6.21,6.67 L3.91,5.36666667 C3.39888889,5.85222222 3.11777778,6.18444444 2.81111111,6.72111111 C2.50444444,7.23222222 2.35111111,7.66666667 2.19777778,8.35666667 L4.47222222,9.68555556 L4.34444444,10.35 C4.19111111,11.1422222 4.19111111,11.9344444 4.34444444,12.7266667 L4.47222222,13.3911111 L2.19777778,14.72 C2.37666667,15.3844444 2.53,15.8188889 2.81111111,16.3555556 C3.11777778,16.8666667 3.39888889,17.2244444 3.91,17.71 L6.18444444,16.4066667 L6.69555556,16.8411111 C7.30888889,17.3522222 7.99888889,17.7611111 8.76555556,18.0166667 L9.40444444,18.2466667 L9.40444444,20.8022222 L9.37888889,20.8022222 Z M11.0911111,15.8188889 C8.71444444,15.8188889 6.79777778,13.8766667 6.79777778,11.5255556 C6.79777778,9.14888889 8.74,7.23222222 11.0911111,7.23222222 C13.4677778,7.23222222 15.3844444,9.17444444 15.3844444,11.5255556 C15.3844444,13.8766667 13.4677778,15.8188889 11.0911111,15.8188889 Z M11.0911111,9.12333333 C9.78777778,9.12333333 8.71444444,10.1966667 8.71444444,11.5 C8.71444444,12.8033333 9.78777778,13.8766667 11.0911111,13.8766667 C12.3944444,13.8766667 13.4677778,12.8033333 13.4677778,11.5 C13.4677778,10.1966667 12.3944444,9.12333333 11.0911111,9.12333333 Z" />
      </g>
    </g>
  </g>
</svg>