<svg viewBox="0 0 22 22">
  <g stroke="none" stroke-width="1" fill-rule="evenodd">
    <path d="M11,22 C17.0751322,22 22,17.0751322 22,11 C22,4.92486775 17.0751322,0 11,0 C4.92486775,0 0,4.92486775 0,11 C0,17.0751322 4.92486775,22 11,22 Z M17,6 C17,6 15.5467415,6.72857475 13.2251248,6.92012992 C11.0358992,7.10091011 9.00839261,7.39782062 7.82033132,8.54023434 C5.98677703,10.3037391 5.42340845,12.5521283 6.4670431,14.3258759 C7.61581591,12.5925677 12.4437822,10.3808933 12.4437822,10.3808933 C9.05349135,12.7122793 7.21129529,14.4646007 4.88525169,17.6508017 L6.33463955,18.0719299 C6.33463955,18.0719299 7.18376859,16.5973542 7.92194919,15.8850084 C9.77459436,17.1490065 12.4065688,16.7028789 14.3574352,14.8263034 C16.4981036,12.7686816 17,6 17,6 Z"></path>
  </g>
</svg>
