<svg viewBox="0 0 15 17">
  <path d="M9.58414053,12.9700435 L9.58414053,6.1982376 C9.58414053,5.80969137 9.89867796,5.47665173 10.3057264,5.47665173 C10.7127748,5.47665173 11.0273123,5.79118916 11.0273123,6.1982376 L11.0273123,12.9700435 C11.0273123,13.3585897 10.7127748,13.6916293 10.3057264,13.6916293 C9.89867796,13.6916293 9.58414053,13.3585897 9.58414053,12.9700435 L9.58414053,12.9700435 Z M4.38502183,13.6731271 C4.77356807,13.6731271 5.1066077,13.3585897 5.1066077,12.9515413 L5.1066077,6.1982376 C5.1066077,5.80969137 4.79207027,5.47665173 4.38502183,5.47665173 C3.97797339,5.47665173 3.66343596,5.79118916 3.66343596,6.1982376 L3.66343596,12.9700435 C3.66343596,13.3585897 3.97797339,13.6731271 4.38502183,13.6731271 L4.38502183,13.6731271 Z M14.7092504,2.34977963 L14.7092504,3.79295137 L13.6176205,3.79295137 L13.6176205,14.1911888 C13.6176205,15.6528627 12.4519818,16.7999992 10.9533035,16.7999992 L3.81145357,16.7999992 C2.29427302,16.7999992 1.11013211,15.6528627 1.11013211,14.1911888 L1.11013211,3.79295137 L0,3.79295137 L0,2.34977963 L3.70044036,2.34977963 L3.70044036,1.48017614 C3.70044036,0.666079265 4.36651963,0 5.1806165,0 L9.58414053,0 C10.3982374,0 11.0643167,0.666079265 11.0643167,1.48017614 L11.0643167,2.34977963 L14.7092504,2.34977963 L14.7092504,2.34977963 Z M5.1066077,1.48017614 L5.1066077,2.34977963 L9.58414053,2.34977963 L9.58414053,1.48017614 C9.58414053,1.46167394 9.56563833,1.44317174 9.54713613,1.44317174 L5.1436121,1.44317174 C5.1251099,1.46167394 5.1066077,1.48017614 5.1066077,1.48017614 L5.1066077,1.48017614 Z M3.77444917,15.3383253 L10.9348013,15.3383253 C11.6563871,15.3383253 12.1744488,14.857268 12.1744488,14.1911888 L12.1744488,3.79295137 L2.53480165,3.79295137 L2.53480165,14.1911888 C2.53480165,14.857268 3.0528633,15.3383253 3.77444917,15.3383253 L3.77444917,15.3383253 Z M7.32687191,13.6731271 L7.34537412,13.6731271 C7.73392035,13.6731271 8.06695999,13.3585897 8.06695999,12.9515413 L8.06695999,6.1982376 C8.06695999,5.80969137 7.75242256,5.47665173 7.34537412,5.47665173 L7.32687191,5.47665173 C6.93832568,5.47665173 6.60528604,5.79118916 6.60528604,6.1982376 L6.60528604,12.9700435 C6.62378825,13.3585897 6.93832568,13.6731271 7.32687191,13.6731271 L7.32687191,13.6731271 Z" />
</svg>
