<svg viewBox="0 0 106 106">
  <defs>
    <path id="path-1" d="M84.2827951,93.0072564 C75.7177733,99.8850168 64.8394396,104 53,104 C41.2600265,104 30.4650778,99.9538683 21.9335647,93.180016 C26.9488831,85.3226941 36.8424707,81.5094038 41.7739261,80.03359 L41.7739261,80.03359 C44.8794137,82.3924495 48.7530368,83.7924528 52.9536483,83.7924528 C57.2109589,83.7924528 61.1323944,82.3544004 64.2587017,79.9375484 C68.9889368,81.3376859 79.128158,85.1252819 84.2827951,93.0072564 L84.2827951,93.0072564 Z" />
  </defs>
  <g transform="translate(-52.000000, -100.000000)">
    <g transform="translate(52.000000, 100.000000)">
      <circle id="Mask" fill="#B7B7B7" cx="53" cy="53" r="53" />
      <path d="M70,50.41883 L70,59.9963958 L36,60 L36,50.8984408 C30.3373075,49.6650444 26.097561,44.6329298 26.097561,38.6127357 C26.097561,31.667755 31.7399233,26.0377358 38.70013,26.0377358 C39.4611192,26.0377358 40.2063549,26.105037 40.930185,26.2339997 C43.2182779,23.0639241 46.9493552,21 51.1635446,21 C57.3669922,21 62.5235859,25.4723094 63.5715691,31.3618695 C64.3862338,31.1503247 65.2409154,31.0377358 66.1219512,31.0377358 C71.6986802,31.0377358 76.2195122,35.5486782 76.2195122,41.1132075 C76.2195122,45.3066809 73.6520192,48.901796 70,50.41883 L70,50.41883 L70,50.41883 Z M53.1518761,81.4412998 C62.6948536,81.4412998 69.8191401,73.418239 69.8191401,63.5293501 C69.8191401,62.7830189 69.8191412,62.7278549 69.8191412,61.9815236 L35.8611345,61.9815236 C35.7666496,62.7278549 35.8611345,62.7830189 35.8611345,63.5293501 C35.8611345,73.418239 43.6088985,81.4412998 53.1518761,81.4412998 L53.1518761,81.4412998 L53.1518761,81.4412998 Z" id="Combined-Shape" fill="#FFFFFF" />
      <mask id="mask-2" fill="white">
        <use xlink:href="#path-1" />
      </mask>
      <use id="Combined-Shape" fill="#FFFFFF" xlink:href="#path-1" />
    </g>
  </g>
</svg>