<svg viewBox="0 0 21 17">
  <path d="M20.382303,1.89878415 C19.6323648,2.22084323 18.8264367,2.43850926 17.9805476,2.53640483 C18.8439569,2.03523151 19.5069651,1.24167098 19.819197,0.296141309 C19.0112559,0.76013453 18.1163104,1.09713785 17.1638092,1.27877889 C16.4009732,0.491788054 15.3142004,0 14.1114961,0 C11.8020386,0 9.9296908,1.81301723 9.9296908,4.04923787 C9.9296908,4.36660432 9.96674411,4.67566842 10.0380177,4.97202632 C6.56261099,4.80316368 3.48137101,3.19106338 1.41891068,0.741219605 C1.05896423,1.33927777 0.852748021,2.03487054 0.852748021,2.77695647 C0.852748021,4.18178673 1.59105574,5.42121969 2.71309261,6.14735067 C2.02756908,6.12634211 1.38282657,5.94419571 0.818975084,5.64090716 C0.818676868,5.65780065 0.818676868,5.67476632 0.818676868,5.69180419 C0.818676868,7.65375841 2.26010284,9.2904048 4.17308251,9.6623502 C3.82215709,9.75490338 3.45274229,9.80435653 3.07132431,9.80435653 C2.80188635,9.80435653 2.53990379,9.7790163 2.28463108,9.73172899 C2.81672259,11.3405083 4.361033,12.5112123 6.19088502,12.5439163 C4.7597475,13.6299362 2.95666034,14.2773032 0.997531781,14.2773032 C0.660026073,14.2773032 0.32714271,14.2581716 0,14.220775 C1.85057802,15.3696762 4.04865197,16.0400009 6.41014817,16.0400009 C14.1017296,16.0400009 18.3077649,9.86976463 18.3077649,4.51879006 C18.3077649,4.34321335 18.303739,4.16857516 18.2956872,3.9949477 C19.1126493,3.42403462 19.8216573,2.71082643 20.382303,1.89878415" />
</svg>