<svg viewBox="0 0 20 20">
  <g transform="translate(-496.000000, -729.000000)">
    <g transform="translate(319.000000, 209.000000)">
      <g transform="translate(1.000000, 499.000000)">
        <g transform="translate(175.000000, 16.000000)">
          <path d="M11,5 C5.48,5 1,9.48 1,15 C1,20.52 5.48,25 11,25 C16.52,25 21,20.52 21,15 C21,9.48 16.52,5 11,5 L11,5 Z M9.58578644,15 L6.75735931,12.1715729 L8.17157288,10.7573593 L11,13.5857864 L13.8284271,10.7573593 L15.2426407,12.1715729 L12.4142136,15 L15.2426407,17.8284271 L13.8284271,19.2426407 L11,16.4142136 L8.17157288,19.2426407 L6.75735931,17.8284271 L9.58578644,15 Z M11,23 C6.59,23 3,19.41 3,15 C3,10.59 6.59,7 11,7 C15.41,7 19,10.59 19,15 C19,19.41 15.41,23 11,23 Z" />
        </g>
      </g>
    </g>
  </g>
</svg>