<svg viewBox="0 0 20 18">
  <g transform="translate(-633.000000, -487.000000)">
    <g transform="translate(520.000000, 276.000000)">
      <g transform="translate(23.000000, 89.000000)">
        <g transform="translate(15.000000, 110.000000)">
          <path d="M92,17 L78,17 C76.34,17 75,18.34 75,20 L75,26 L79,26 L79,30 L91,30 L91,26 L95,26 L95,20 C95,18.34 93.66,17 92,17 L92,17 Z M89,28 L81,28 L81,23 L89,23 L89,28 L89,28 Z M92,21 C91.45,21 91,20.55 91,20 C91,19.45 91.45,19 92,19 C92.55,19 93,19.45 93,20 C93,20.55 92.55,21 92,21 L92,21 Z M91,12 L79,12 L79,16 L91,16 L91,12 L91,12 Z" />
        </g>
      </g>
    </g>
  </g>
</svg>