<svg viewBox="0 0 22 19">
  <path d="M9.56290496,0.870657838 C10.1521597,1.33244321 11.380606,2.29930633 11.380606,4.14163756 C11.380606,5.93586614 10.3069639,6.78247266 9.22832813,7.58097653 C8.8937513,7.89845397 8.50923763,8.23517247 8.50923763,8.76911181 C8.50923763,9.30305115 8.8937513,9.59647727 9.17339761,9.81293916 L10.0972292,10.4911864 C11.2258018,11.3858956 12.249507,12.213261 12.249507,13.887233 C12.249507,16.1672983 9.91745653,18.4666046 5.50803351,18.4666046 C1.79273258,18.4714149 0,16.7974429 0,15.0032143 C0,14.1325565 0.459418933,12.8963186 1.9725052,12.0449018 C3.56049673,11.1261413 5.71776824,11.0010744 6.86631557,10.9289205 C6.50677032,10.4911864 6.09728823,10.0294011 6.09728823,9.27899983 C6.09728823,8.8653171 6.22712402,8.62480388 6.35196612,8.33137776 C6.07231981,8.35542908 5.78767982,8.3794804 5.53300193,8.3794804 C2.81643781,8.3794804 1.27838312,6.46499521 1.27838312,4.57456135 C1.27838312,3.45858003 1.817701,2.2223421 2.92130517,1.32763295 C4.3844546,0.192410572 6.12725033,0 7.51050082,0 L12.7888249,0 L11.1508965,0.870657838 L9.56290496,0.870657838 L9.56290496,0.870657838 Z M7.74021028,11.6360293 C7.53546924,11.611978 7.40563345,11.611978 7.15095557,11.611978 C6.9212461,11.611978 5.53799562,11.6600807 4.45935986,11.9967992 C3.89507356,12.1892097 2.25714519,12.7712517 2.25714519,14.4933263 C2.25714519,16.2154009 4.02490935,17.4516389 6.76644189,17.4516389 C9.22832813,17.4516389 10.5316797,16.3356575 10.5316797,14.8348551 C10.5316797,13.5986172 9.68774706,12.9444212 7.74021028,11.6360293 L7.74021028,11.6360293 Z M8.48426921,7.02779614 C9.07352393,6.46980548 9.12346077,5.69535293 9.12346077,5.25761888 C9.12346077,3.51149294 8.01985659,0.798503873 5.89254718,0.798503873 C5.2283872,0.798503873 4.5092967,1.11117105 4.09981461,1.59700775 C3.6653641,2.10689576 3.53552831,2.76109171 3.53552831,3.39123633 C3.53552831,5.01710566 4.53426512,7.7060434 6.74147347,7.7060434 C7.38066503,7.71085367 8.06979343,7.41742754 8.48426921,7.02779614 L8.48426921,7.02779614 Z" />
  <path d="M21.9739029,3.76162668 L18.0638483,3.76162668 L18.0638483,-3.55271368e-15 L17.1799662,-3.55271368e-15 L17.1799662,3.76162668 L13.2,3.76162668 L13.2,4.61785372 L17.1799662,4.61785372 L17.1799662,8.50935754 L18.0638483,8.50935754 L18.0638483,4.61785372 L21.9739029,4.61785372 L21.9739029,3.76162668 Z" />
</svg>