<svg viewBox="0 0 19 18">
	<path d="M13.1658137,4.55696203 L13.9825998,4.55696203 L12.8935517,9.91139241 C12.7379726,10.7088647 12.6861137,11.2974665 12.7379734,11.6772152 C12.7898331,12.0569639 13.0491277,12.2468354 13.5158649,12.2468354 C13.9826021,12.2468354 14.4460912,12.1392416 14.906346,11.9240506 C15.3666007,11.7088597 15.7749897,11.4019007 16.1315251,11.0031646 C16.4880605,10.6044284 16.7797669,10.1234205 17.006653,9.56012658 C17.2335392,8.99683263 17.3469806,8.36709209 17.3469806,7.67088608 C17.3469806,6.67088108 17.158992,5.78797851 16.7830092,5.0221519 C16.4070264,4.25632528 15.8884373,3.61392665 15.2272262,3.09493671 C14.5660151,2.57594677 13.7784078,2.18354563 12.8643808,1.91772152 C11.9503537,1.65189741 10.9617931,1.51898734 9.8986694,1.51898734 C8.74479123,1.51898734 7.66871874,1.71518791 6.67041965,2.10759494 C5.67212056,2.50000196 4.80348374,3.04113579 4.06448311,3.73101266 C3.32548249,4.42088953 2.74206969,5.23733706 2.31422723,6.18037975 C1.88638476,7.12342244 1.67246673,8.15189316 1.67246673,9.26582278 C1.67246673,10.3670941 1.8604553,11.3639196 2.23643808,12.2563291 C2.61242085,13.1487386 3.15369828,13.9082247 3.86028659,14.5348101 C4.56687491,15.1613955 5.42254701,15.6424034 6.42732856,15.9778481 C7.43211011,16.3132928 8.55680033,16.4810127 9.80143296,16.4810127 C10.2163105,16.4810127 10.6797996,16.4335448 11.191914,16.3386076 C11.7040285,16.2436704 12.1739999,16.1075958 12.6018424,15.9303797 L13.04913,17.3544304 C12.4268137,17.6075962 11.8434009,17.7784806 11.2988741,17.8670886 C10.7543473,17.9556966 10.1579698,18 9.50972364,18 C8.16137163,18 6.9102753,17.806964 5.75639713,17.4208861 C4.60251897,17.0348082 3.59775249,16.4746872 2.74206755,15.7405063 C1.88638262,15.0063254 1.21545791,14.1044357 0.729273286,13.0348101 C0.243088664,11.9651845 5.86197757e-14,10.7468423 5.86197757e-14,9.37974684 C5.86197757e-14,7.96201823 0.26577694,6.67722095 0.797338792,5.52531646 C1.32890064,4.37341196 2.05168427,3.38924459 2.96571136,2.57278481 C3.87973845,1.75632503 4.93960503,1.12341997 6.14534289,0.674050633 C7.35108075,0.224681297 8.63458889,-7.10542736e-15 9.99590583,-7.10542736e-15 C11.2664683,-7.10542736e-15 12.4494998,0.180377943 13.5450358,0.541139241 C14.6405718,0.901900538 15.5934794,1.41455364 16.4037871,2.07911392 C17.2140948,2.74367421 17.8493665,3.54746364 18.3096213,4.49050633 C18.7698761,5.43354902 19,6.493665 19,7.67088608 C19,8.45570013 18.8444233,9.21202168 18.5332651,9.93987342 C18.2221069,10.6677252 17.7975121,11.3132883 17.2594678,11.8765823 C16.7214234,12.4398762 16.0958753,12.8892388 15.3828045,13.2246835 C14.6697337,13.5601283 13.9112971,13.7278481 13.1074719,13.7278481 C12.744454,13.7278481 12.423577,13.6867093 12.1448311,13.6044304 C11.8660853,13.5221515 11.6392025,13.3829124 11.464176,13.1867089 C11.2891496,12.9905053 11.1757082,12.7278497 11.1238485,12.3987342 C11.0719888,12.0696186 11.0914359,11.6582303 11.1821904,11.164557 L11.1044012,11.164557 C10.8969625,11.4683559 10.657115,11.7721504 10.3848516,12.0759494 C10.1125882,12.3797484 9.81439944,12.6550621 9.49027636,12.9018987 C9.16615328,13.1487354 8.81286442,13.3481005 8.43039918,13.5 C8.04793395,13.6518995 7.64278617,13.7278481 7.21494371,13.7278481 C6.8778557,13.7278481 6.56021985,13.6582285 6.26202661,13.5189873 C5.96383338,13.3797461 5.70129762,13.180381 5.47441146,12.9208861 C5.24752531,12.6613911 5.06926029,12.3544322 4.93961105,12 C4.80996182,11.6455678 4.74513818,11.2531667 4.74513818,10.8227848 C4.74513818,10.0632873 4.89099138,9.30380127 5.18270215,8.5443038 C5.47441292,7.78480633 5.87307833,7.10126886 6.37871034,6.49367089 C6.88434234,5.88607291 7.47099632,5.39240696 8.13868987,5.01265823 C8.80638341,4.63290949 9.50971995,4.44303797 10.2487206,4.44303797 C10.7673175,4.44303797 11.1886712,4.51582206 11.5127943,4.66139241 C11.8369173,4.80696275 12.1480708,4.98101165 12.4462641,5.1835443 L13.1658137,4.55696203 Z M11.9211873,6.58860759 C11.6878187,6.34810006 11.4544536,6.1772157 11.221085,6.07594937 C10.9877163,5.97468304 10.6895276,5.92405063 10.3265097,5.92405063 C9.78198295,5.92405063 9.27959971,6.0696188 8.81934493,6.36075949 C8.35909016,6.65190019 7.96042475,7.02214965 7.62333675,7.47151899 C7.28624874,7.92088832 7.0204718,8.41455427 6.82599795,8.95253165 C6.6315241,9.49050902 6.53428864,10.0126557 6.53428864,10.5189873 C6.53428864,10.9746858 6.64124765,11.3765805 6.85516888,11.7246835 C7.06909012,12.0727866 7.46775553,12.2468354 8.05117707,12.2468354 C8.32344046,12.2468354 8.60866449,12.1582287 8.90685773,11.9810127 C9.20505096,11.8037966 9.49999854,11.5696217 9.79170931,11.278481 C10.0834201,10.9873403 10.3621618,10.6582297 10.6279427,10.2911392 C10.8937236,9.9240488 11.1303299,9.55063481 11.3377687,9.17088608 L11.9211873,6.58860759 Z" />
</svg>