<svg viewBox="0 0 20 20">
  <g transform="translate(-931.000000, -677.000000)">
    <g transform="translate(320.000000, 169.000000)">
      <g transform="translate(0.000000, 496.000000)">
        <g transform="translate(154.000000, 0.000000)">
          <path d="M467,12 C461.48,12 457,16.48 457,22 C457,27.52 461.48,32 467,32 C472.52,32 477,27.52 477,22 C477,16.48 472.52,12 467,12 L467,12 Z M465.585786,22 L462.757359,19.1715729 L464.171573,17.7573593 L467,20.5857864 L469.828427,17.7573593 L471.242641,19.1715729 L468.414214,22 L471.242641,24.8284271 L469.828427,26.2426407 L467,23.4142136 L464.171573,26.2426407 L462.757359,24.8284271 L465.585786,22 Z M467,30 C462.59,30 459,26.41 459,22 C459,17.59 462.59,14 467,14 C471.41,14 475,17.59 475,22 C475,26.41 471.41,30 467,30 Z" />
        </g>
      </g>
    </g>
  </g>
</svg>