<svg viewBox="0 0 22 16">
  <path d="M20.5527304,0.47428747 C20.2526155,0.183342028 19.8307807,-0.000230691497 19.3699668,2.17584035e-07 L1.67394795,2.17584035e-07 C1.21313406,-0.000230691497 0.791299229,0.183342028 0.491184315,0.47428747 C0.189873725,0.764078366 -0.000238910054,1.17140198 2.25335629e-07,1.61636378 L2.25335629e-07,13.623636 C-0.000238910054,14.0685978 0.189873725,14.4759214 0.491184315,14.7657123 C0.791299229,15.0566577 1.21313406,15.2402305 1.67394795,15.2399996 L19.3699668,15.2399996 C19.8307807,15.2402305 20.2526155,15.0566577 20.5527304,14.7657123 C20.854041,14.4759214 21.0441536,14.0683669 21.0439145,13.623636 L21.0439145,1.61636378 C21.0441536,1.17140198 20.854041,0.764078366 20.5527304,0.47428747 L20.5527304,0.47428747 Z M19.6091022,12.7997524 L13.9272453,7.73545443 L19.6091022,2.67115646 L19.6091022,12.7997524 L19.6091022,12.7997524 Z M1.67394795,1.3854547 L19.3699668,1.3854547 C19.4352507,1.38568561 19.4916867,1.40970016 19.5383181,1.45380379 C19.5428617,1.45819106 19.5442965,1.46350197 19.5483618,1.46812015 L11.6666985,8.49329803 C11.4211064,8.71335438 11.077708,8.83227256 10.7280921,8.83204165 C10.3911503,8.83227256 10.0611435,8.72189802 9.81866018,8.51569621 L1.49961825,1.46234743 C1.50200961,1.45957652 1.50296615,1.4565747 1.5053575,1.45380379 C1.55222804,1.40970016 1.60866399,1.38568561 1.67394795,1.3854547 L1.67394795,1.3854547 Z M1.43481256,12.8343887 L1.43481256,2.63628919 L7.44882847,7.73545443 L1.43481256,12.8343887 L1.43481256,12.8343887 Z M1.68136115,13.8545451 L8.17364783,8.3501344 L9.18758189,9.20980891 C9.62424311,9.57949435 10.1795155,9.75544707 10.7278529,9.75567797 C11.2965169,9.75544707 11.8718766,9.56610162 12.3152336,9.17217073 L13.222035,8.36398894 L19.3797713,13.8526978 C19.3764234,13.8526978 19.3737929,13.8545451 19.3699668,13.8545451 L1.68136115,13.8545451 L1.68136115,13.8545451 Z" />
</svg>