<svg viewBox="0 0 22 22">
  <g transform="translate(-401.000000, -91.000000)">
    <g transform="translate(387.000000, 76.000000)">
      <g transform="translate(-12.000000, 10.000000)">
        <path d="M38.0580621,26.9966845 C43.6368037,26.4631362 48,21.7539521 48,16.0235107 C48,9.93539387 43.0751322,5 37,5 C30.9248678,5 26,9.93539387 26,16.0235107 C26,21.7660211 30.3815945,26.4829679 35.9772025,27 C36.0432001,25.8445487 36.0627321,25.0858134 36,25.0858134 C36,22.2785324 33,21.1589571 33,17.9847635 L33,11.787484 C33,11.3678765 33.3665159,11.0451015 33.8429865,11.0451015 C34.2828055,11.077379 34.6493213,11.4324315 34.6493213,11.8197615 L34.6493213,17.3069362 C34.6493213,17.6942662 35.0158372,17.9847637 35.4556562,17.9847637 C35.8954752,17.9847637 36.1520364,17.6297112 36.1520364,17.2423812 L36.1520364,11.7552065 C36.1520364,11.335599 36.5185523,11.012824 36.9950229,11.012824 C37.4348419,11.0451015 37.8013577,11.400154 37.8013577,11.787484 L37.8013577,17.2746587 C37.8013577,17.6619887 38.2411767,17.9847637 38.6809957,17.9847637 C39.1208148,17.9847637 39.450679,17.6619887 39.450679,17.2746587 L39.450679,11.787484 C39.450679,11.3678765 39.8171949,11.0451015 40.2936655,11.0451015 C40.7334845,11.077379 41.1000004,11.4324315 41.1000004,11.8197615 L41.1000004,17.9847635 C41.1000004,21.3449006 38,22.2046444 38,25.0858134 C37.9524819,25.0858134 37.9834455,25.8430975 38.0580621,26.9966845 Z"></path>
      </g>
    </g>
  </g>
</svg>
