<svg viewBox="0 0 71 57">
  <g transform="translate(-925.000000, -356.000000)">
    <g transform="translate(230.000000, 285.000000)">
      <g transform="translate(420.000000, 0.000000)">
        <g transform="translate(210.000000, 0.000000)">
          <path d="M135.231824,78.9868275 L127.992681,71.7476853 C126.992318,70.7502792 125.376062,70.7502792 124.375698,71.7506427 L89.0820149,107.041369 L76.6044576,94.5660293 C75.604094,93.5656658 73.9878378,93.5656658 72.9874742,94.5638112 L65.748332,101.802953 C64.7501866,102.803317 64.7501866,104.421791 65.7505501,105.422894 L86.3507932,126.022398 C87.0908996,126.763244 88.0498585,127.736251 89.0295198,127.736251 C90.0091811,127.736251 91.0723908,126.763244 91.8124972,126.022398 L135.229606,82.6060289 C136.229969,81.6064047 136.229969,79.9864516 135.231824,78.9868275 L135.231824,78.9868275 Z" />
        </g>
      </g>
    </g>
  </g>
</svg>