<svg viewBox="0 0 17 17">
  <g transform="translate(-602.000000, -287.000000)" fill="#C5C5C5">
    <g transform="translate(439.000000, 133.000000)">
      <g transform="translate(0.000000, 46.000000)">
        <g transform="translate(30.000000, 93.000000)">
          <path d="M141.500004,15 C136.820344,15 133.007182,18.8127527 133.000009,23.4993808 C132.99673,25.8129781 133.909339,28.0560752 135.504408,29.653603 C137.019549,31.1707933 139.03229,32.0065494 141.172301,32.0065494 C141.286454,32.0065494 141.401427,32.004295 141.517015,31.9993764 C146.273733,31.8044759 150,28.071036 150,23.4999956 C150,18.8129576 146.187042,15 141.500004,15 L141.500004,15 Z M141.339235,30.4900112 C140.04696,30.4900112 138.822675,30.0265322 137.840027,29.1757915 C137.840339,29.1692911 137.841902,29.1631157 137.841902,29.1564528 C137.841902,27.4484709 138.805013,26.4745294 140.247334,25.980011 C140.610259,26.1732356 141.019917,26.284555 141.455052,26.284555 C141.89003,26.284555 142.299844,26.1732356 142.662926,25.980011 C144.139476,26.48428 145.164325,27.4817855 145.171827,29.1379266 C144.184803,29.9309762 142.942543,30.4266322 141.576496,30.4849734 C141.497096,30.4883861 141.417853,30.4900112 141.339235,30.4900112 Z M141.469985,24.690001 C140.30644,24.690001 139.359985,23.7435468 139.359985,22.5800011 C139.359985,21.4164554 140.30644,20.4700012 141.469985,20.4700012 C142.633531,20.4700012 143.579985,21.4166174 143.579985,22.5800011 C143.579985,23.7433848 142.633531,24.690001 141.469985,24.690001 L141.469985,24.690001 Z M143.929406,24.949416 C144.554776,24.3618674 144.926407,23.500186 144.926407,22.4107039 C144.926407,20.67878 143.308217,19.0936266 141.53309,19.0936266 C139.757963,19.0936266 138.118255,20.6355772 138.118255,22.4107039 C138.118255,23.3350481 138.511971,24.3626239 139.137908,24.9503616 C137.55113,25.6787932 136.464723,26.5404235 136.25198,28.3777656 C135.077072,27.0674585 134.410856,25.3108642 134.413692,23.500564 C134.419555,19.5927135 137.598595,16.4132947 141.500394,16.4132947 C145.407678,16.4134838 148.586718,19.5925244 148.586718,23.5001858 C148.586718,25.3961504 147.814036,27.1190842 146.547223,28.3923267 C146.321999,26.5822157 145.562326,25.6897613 143.929406,24.949416 Z" />
        </g>
      </g>
    </g>
  </g>
</svg>