<svg viewBox="0 0 18 18">
  <g transform="translate(-33.000000, -604.000000)">
    <g transform="translate(30.000000, 174.000000)">
      <path d="M10.09,442.59 L11.5,444 L16.5,439 L11.5,434 L10.09,435.41 L12.67,438 L3,438 L3,440 L12.67,440 L10.09,442.59 L10.09,442.59 Z M19,430 L5,430 C3.89,430 3,430.9 3,432 L3,436 L5,436 L5,432 L19,432 L19,446 L5,446 L5,442 L3,442 L3,446 C3,447.1 3.89,448 5,448 L19,448 C20.1,448 21,447.1 21,446 L21,432 C21,430.9 20.1,430 19,430 L19,430 Z" />
    </g>
  </g>
</svg>