<svg viewBox="0 0 16 16">
  <g transform="translate(-536.000000, -657.000000)">
    <g transform="translate(514.000000, 593.000000)">
      <path d="M28.7879756,76.5041655 C27.7377117,77.5544293 26.0504027,77.5544293 25.0001389,76.5041655 C23.949875,75.4539017 23.949875,73.7665926 25.0001389,72.7163288 L27.0145793,70.7191058 C27.6860594,70.0476257 28.7879756,70.0476257 29.4594557,70.7191058 C29.8898917,71.1495418 30.5958067,71.1495418 31.0262427,70.7191058 C31.4566787,70.2886698 31.4566787,69.5827548 31.0262427,69.1523188 C29.4938906,67.6199667 26.9801444,67.6199667 25.4477923,69.1523188 L23.4333518,71.1495418 C21.5222161,73.0606776 21.5222161,76.1598167 23.4333518,78.0709525 C24.380311,79.0179117 25.6371841,79.5 26.8940572,79.5 C28.1509303,79.5 29.3905859,79.0179117 30.3547626,78.0709525 C30.7851986,77.6405165 30.7851986,76.9346015 30.3547626,76.5041655 C29.9243266,76.0737295 29.2184116,76.0737295 28.7879756,76.5041655 L28.7879756,76.5041655 Z M36.0709525,65.4333518 C34.1598167,63.5222161 31.0606776,63.5222161 29.1495418,65.4333518 C28.7191058,65.8637878 28.7191058,66.5697029 29.1495418,67.0001389 C29.5799778,67.4305748 30.2858928,67.4305748 30.7163288,67.0001389 C31.7665926,65.949875 33.4539017,65.949875 34.5041655,67.0001389 C35.5544293,68.0504027 35.5544293,69.7377117 34.5041655,70.7879756 L32.4897251,72.7851986 C31.8182449,73.4738961 30.7163288,73.4738961 30.0448487,72.7851986 C29.6144127,72.3547626 28.9084976,72.3547626 28.4780616,72.7851986 C28.0476257,73.2156345 28.0476257,73.9215496 28.4780616,74.3519856 C29.2528464,75.1267703 30.2514579,75.505554 31.2672869,75.505554 C32.2831158,75.505554 33.2817273,75.1267703 34.0565121,74.3519856 L36.0537351,72.3547626 C37.9820883,70.4436268 37.9820883,67.3444876 36.0709525,65.4333518 L36.0709525,65.4333518 Z"></path>
    </g>
  </g>
</svg>
