<svg viewBox="0 0 10 11">
  <path d="M7.77996192,7.32664131 C7.32664131,7.32664131 6.89782451,7.51041994 6.5915268,7.79221383 L3.61431302,5.95442755 C3.65106875,5.80740465 3.68782447,5.66038175 3.68782447,5.51335884 C3.68782447,5.34183212 3.65106875,5.19480922 3.61431302,5.06003823 L6.5915268,3.23450386 C6.91007642,3.50404584 7.33889322,3.67557256 7.77996192,3.67557256 C8.79687033,3.67557256 9.63000011,2.85469469 9.63000011,1.83778628 C9.63000011,0.833129781 8.80912224,0 7.77996192,0 C6.77530542,0 5.94217564,0.820877872 5.94217564,1.83778628 C5.94217564,1.98480918 5.95442755,2.14408399 6.01568709,2.26660308 L3.03847332,4.11664127 C2.7199237,3.84709928 2.27885499,3.66332065 1.83778628,3.66332065 C0.833129781,3.66332065 8.8817842e-16,4.48419853 8.8817842e-16,5.51335884 C8.8817842e-16,6.51801534 0.820877872,7.32664131 1.83778628,7.32664131 C2.27885499,7.32664131 2.7199237,7.1673665 3.03847332,6.89782451 L6.01568709,8.72335888 C5.95442755,8.85812988 5.94217564,9.00515278 5.94217564,9.16442759 C5.94217564,10.1690841 6.76305352,11.0022139 7.77996192,11.0022139 C8.79687033,11.0022139 9.63000011,10.181336 9.63000011,9.16442759 C9.63000011,8.14751918 8.80912224,7.32664131 7.77996192,7.32664131 L7.77996192,7.32664131 Z" />
</svg>
