<svg viewBox="0 0 22 22">
  <path d="M11,22 C17.0751322,22 22,17.0751322 22,11 C22,4.92486775 17.0751322,0 11,0 C4.92486775,0 0,4.92486775 0,11 C0,17.0751322 4.92486775,22 11,22 Z M8.065,10.615 L9.115,10.615 C8.8149985,9.9349966 8.665,9.3450025 8.665,8.845 C8.665,8.044996 8.94999715,7.38000265 9.52,6.85 C10.0900028,6.31999735 10.7949958,6.055 11.635,6.055 C12.6850052,6.055 13.4524976,6.31999735 13.9375,6.85 C14.4225024,7.38000265 14.6849998,8.0049964 14.725,8.725 L13.255,8.98 C13.2449999,8.4399973 13.0975014,8.03250137 12.8125,7.7575 C12.5274986,7.48249862 12.1450024,7.345 11.665,7.345 C11.2449979,7.345 10.8850015,7.47749867 10.585,7.7425 C10.2849985,8.00750132 10.135,8.37499765 10.135,8.845 C10.135,9.2650021 10.2999983,9.8549962 10.63,10.615 L13.54,10.615 L13.54,11.905 L11.02,11.905 C11.0400001,12.0850009 11.05,12.2199995 11.05,12.31 C11.05,12.8300026 10.9250012,13.2999979 10.675,13.72 C10.4249987,14.1400021 10.0750022,14.4649988 9.625,14.695 L12.67,14.695 C13.1500024,14.695 13.5099988,14.5425015 13.75,14.2375 C13.9900012,13.9324985 14.11,13.5550022 14.11,13.105 L15.52,13.315 C15.52,14.1050039 15.2975022,14.7499975 14.8525,15.25 C14.4074978,15.7500025 13.8000038,16 13.03,16 L7.975,16 L7.975,14.575 C8.4750025,14.3649989 8.8749985,14.0675019 9.175,13.6825 C9.4750015,13.2974981 9.625,12.8950021 9.625,12.475 C9.625,12.2549989 9.6050002,12.0650008 9.565,11.905 L8.065,11.905 L8.065,10.615 Z" />
</svg>