<svg viewBox="0 0 21 18">
  <g transform="translate(-31.000000, -365.000000)">
    <g transform="translate(30.000000, 174.000000)">
      <path d="M21.4129246,195 L8,195 L6.56870385,191.638132 C6.45040369,191.215579 6.03693645,191 5.5637358,191 L1.55809694,191 C1.17589641,191 0.933229413,191.136835 1.01629619,191.480427 L1.17752975,192.231082 C1.26012986,192.575105 1.63696372,192.93634 2.01939758,192.93634 L4.76036802,192.93634 L8.12783933,204.126017 C8.24590616,204.548785 8.6593734,204.769528 9.13257405,205 L18.6227205,205 C19.004921,204.769528 19.3542215,204.494137 19.479755,203.923132 L21.9421251,196.710051 C22.1647254,196.03599 21.4129246,195 21.4129246,195 Z M9.95904186,203 L8.22747281,197 L19.5282884,197 L17.6172858,203 L9.95904186,203 Z M19.5,208.976369 C20.3284271,208.976369 21,208.310086 21,207.488185 C21,206.666283 20.3284271,206 19.5,206 C18.6715729,206 18,206.666283 18,207.488185 C18,208.310086 18.6715729,208.976369 19.5,208.976369 Z M7.5,208.976369 C8.32842712,208.976369 9,208.310086 9,207.488185 C9,206.666283 8.32842712,206 7.5,206 C6.67157288,206 6,206.666283 6,207.488185 C6,208.310086 6.67157288,208.976369 7.5,208.976369 Z" />
    </g>
  </g>
</svg>