<svg viewBox="0 0 15 16">
  <path d="M4.98428614,12.3851351 L4.98428614,6.61486486 C4.98428614,6.28378378 5.42018357,6 5.98428614,6 C6.5483887,6 6.98428614,6.26801802 6.98428614,6.61486486 L6.98428614,12.3851351 C6.98428614,12.7162162 6.5483887,13 5.98428614,13 C5.42018357,13 4.98428614,12.7162162 4.98428614,12.3851351 L4.98428614,12.3851351 Z M7.98428614,12.3851351 L7.98428614,6.61486486 C7.98428614,6.28378378 8.42018357,6 8.98428614,6 C9.5483887,6 9.98428614,6.26801802 9.98428614,6.61486486 L9.98428614,12.3851351 C9.98428614,12.7162162 9.5483887,13 8.98428614,13 C8.42018357,13 7.98428614,12.7162162 7.98428614,12.3851351 L7.98428614,12.3851351 Z M14.0426361,3 C14.1962559,3.03751875 14.9937763,3 14.947299,4.04455566 C14.9008217,5.08911133 14.0106529,5.01867676 14.0106529,5.01867676 L14.0106532,13.3601321 C14.0106532,14.839207 12.8311378,16 11.314618,16 L3.75355927,16 C2.21831698,16 1.0200791,14.839207 1.0200791,13.3601322 L1.02007908,5.01867676 C1.02007908,5.01867676 0.0451018364,5.08911133 0.00162046128,4.04455566 C-0.0418609139,3 0.802323049,3.047549 1.01553648,3 C1.69595636,3.07666016 3.05679614,3 3.05679614,3 L3.05679614,1.5502876 C3.05679614,0.726499058 3.40176684,0.0888671875 4.85367138,0 L9.88603453,0 C11.3146179,0.0888671875 11.9588087,0.726499045 11.9588087,1.55028759 L11.996249,3 C11.996249,3 13.3605071,3.07666013 14.0426361,3 Z M4.98428614,3.05249023 L9.98428614,3.05249023 C9.98428614,3.05249023 9.9670685,2.05249023 9.94985087,2.05249023 L5.0187214,2.05249023 C5.00150377,2.0728984 4.98428614,2.09330656 4.98428614,2.09330656 L4.98428614,3.05249023 Z M10.9426358,14 C11.5489698,14 11.9842865,13.5416667 11.9842865,12.9070513 L11.9842865,5 L2.98428648,5 L2.98428648,12.9070513 C2.98428648,13.5416667 3.41960318,14 4.02593715,14 L10.9426358,14 Z" />
</svg>