<?xml version="1.0" encoding="UTF-8"?>
<svg width="100px" height="99px" viewBox="0 0 100 99" version="1.1" xmlns="http://www.w3.org/2000/svg" xmlns:xlink="http://www.w3.org/1999/xlink">
    <!-- Generator: Sketch 39.1 (31720) - http://www.bohemiancoding.com/sketch -->
    <title>Combined Shape</title>
    <desc>Created with Sketch.</desc>
    <defs></defs>
    <g id="Flavorprint-4" stroke="none" stroke-width="1" fill="none" fill-rule="evenodd">
        <g id="FlavorPrint---home" transform="translate(-197.000000, -1241.000000)" fill="#FFFFFF">
            <g id="Group-Copy" transform="translate(0.000000, 1140.000000)">
                <path d="M296.100559,150.948694 C297.881559,158.643694 296.272559,166.736694 291.538559,173.093694 C287.522559,178.486694 281.606559,182.162694 275.051559,183.583694 C271.645559,184.321694 268.124559,184.541694 264.653559,184.235694 C257.974559,183.648694 251.517559,181.100694 246.198559,177.023694 C239.625559,171.984694 235.018559,164.800694 233.004559,156.787694 C232.616559,155.245694 232.819559,153.675694 233.865559,152.426694 C234.925559,151.160694 236.632559,150.548694 238.256559,150.860694 C239.848559,151.166694 241.188559,152.321694 241.726559,153.849694 C241.964559,154.521694 242.010559,155.250694 242.133559,155.948694 C242.310559,156.956694 242.541559,157.955694 242.827559,158.937694 C244.995559,166.379694 250.277559,172.669694 257.119559,176.275694 C261.034559,178.338694 265.421559,179.498694 269.843559,179.653694 C274.739559,179.824694 279.604559,178.852694 283.892559,176.382694 C291.225559,172.157694 295.925559,164.234694 296.327559,155.809694 C296.405559,154.181694 296.307559,152.563694 296.100559,150.948694 Z M264.951559,102.730694 C272.799559,103.412694 279.980559,107.423694 284.566559,113.862694 C288.490559,119.373694 290.164559,126.174694 289.478559,132.887694 C289.122559,136.369694 288.232559,139.808694 286.849559,143.024694 C284.200559,149.185694 279.779559,154.523694 274.243559,158.306694 C267.434559,162.959694 259.216559,165.101694 251.006559,164.542694 C249.385559,164.432694 247.927559,163.722694 247.073559,162.291694 C246.206559,160.839694 246.213559,158.976694 247.099559,157.533694 C247.953559,156.140694 249.525559,155.288694 251.159559,155.339694 C251.903559,155.362694 252.646559,155.555694 253.384559,155.649694 C254.395559,155.778694 255.412559,155.852694 256.431559,155.870694 C264.095559,156.009694 271.588559,152.919694 277.054559,147.569694 C280.162559,144.526694 282.568559,140.792694 284.084559,136.719694 C285.782559,132.153694 286.387559,127.230694 285.411559,122.412694 C283.709559,114.008694 277.556559,106.977694 269.553559,103.982694 C268.057559,103.422694 266.518559,103.026694 264.951559,102.730694 Z M209.467559,117.455694 C212.565559,110.143694 218.675559,104.521694 226.292559,102.184694 C232.704559,100.216694 239.647559,100.739694 245.760559,103.462694 C248.675559,104.760694 251.414559,106.453694 253.869559,108.493694 C259.021559,112.774694 262.889559,118.549694 264.928559,124.928694 C267.455559,132.832694 267.185559,141.459694 264.193559,149.196694 C263.622559,150.673694 262.900559,151.958694 261.369559,152.610694 C259.853559,153.256694 258.061559,153.028694 256.757559,152.020694 C255.482559,151.034694 254.801559,149.404694 255.004559,147.804694 C255.099559,147.056694 255.411559,146.412694 255.753559,145.753694 C256.183559,144.922694 256.570559,144.071694 256.919559,143.202694 C259.931559,135.694694 259.452559,127.050694 255.864559,119.825694 C253.917559,115.903694 251.094559,112.433694 247.656559,109.722694 C243.874559,106.741694 239.445559,104.670694 234.622559,104.091694 C226.089559,103.067694 217.458559,106.734694 212.113559,113.423694 C211.105559,114.684694 210.241559,116.040694 209.467559,117.455694 Z M206.326559,174.773694 C200.389559,169.619694 196.949559,162.185694 197.000559,154.299694 C197.042559,147.654694 199.583559,141.285694 203.927559,136.281694 C206.103559,133.775694 208.662559,131.594694 211.462559,129.815694 C217.199559,126.169694 223.958559,124.295694 230.746559,124.336694 C238.923559,124.385694 246.892559,127.311694 253.264559,132.406694 C254.484559,133.381694 255.539559,134.405694 255.771559,136.030694 C256.005559,137.670694 255.316559,139.346694 253.995559,140.348694 C252.678559,141.347694 250.874559,141.554694 249.363559,140.888694 C247.899559,140.243694 246.832559,138.741694 245.629559,137.727694 C239.447559,132.521694 231.166559,130.241694 223.177559,131.344694 C218.677559,131.965694 214.324559,133.637694 210.573559,136.201694 C206.495559,138.987694 203.134559,142.676694 201.148559,147.259694 C197.799559,154.987694 198.720559,164.092694 203.360559,171.088694 C204.235559,172.408694 205.240559,173.622694 206.326559,174.773694 Z M259.868559,195.473694 C253.132559,199.526694 244.998559,200.501694 237.514559,198.016694 C231.248559,195.934694 225.962559,191.582694 222.565559,185.936694 C220.785559,182.977694 219.445559,179.745694 218.622559,176.390694 C216.993559,169.752694 217.343559,162.707694 219.584559,156.251694 C222.254559,148.560694 227.544559,141.896694 234.409559,137.526694 C235.739559,136.679694 237.103559,136.138694 238.697559,136.563694 C240.292559,136.987694 241.563559,138.273694 241.970559,139.872694 C242.360559,141.405694 241.915559,143.080694 240.808559,144.213694 C240.302559,144.731694 239.694559,145.053694 239.055559,145.373694 C238.189559,145.807694 237.345559,146.285694 236.527559,146.805694 C229.748559,151.110694 225.101559,158.304694 223.740559,166.197694 C222.980559,170.603694 223.235559,175.174694 224.482559,179.467694 C225.853559,184.189694 228.309559,188.519694 232.020559,191.824694 C238.327559,197.440694 247.296559,199.410694 255.408559,197.165694 C256.947559,196.739694 258.425559,196.155694 259.868559,195.473694 Z" id="Combined-Shape"></path>
            </g>
        </g>
    </g>
</svg>