<svg viewBox="0 0 84 30">
  <path d="M71.465613,18.4543529 C71.5542308,17.244753 71.672474,16.0184646 71.8215071,14.7683724 C71.8967997,14.2626692 71.9793372,13.7195783 72.0675668,13.1403934 C72.1555377,12.561338 72.2444142,11.9729679 72.3351018,11.3739896 C72.4260482,10.7755288 72.5458439,10.1702115 72.6955238,9.55997807 C72.8444274,8.9488391 73.2212792,7.33366763 73.8315126,6.02807609 C74.0711039,5.51797427 74.2453638,5.06039625 74.4502842,4.69363526 C74.6566278,4.32881478 74.8753907,4.0474373 75.1057968,3.85027901 C75.337626,3.65156828 75.6143462,3.55337724 75.936863,3.55337724 C76.1470875,3.55337724 76.2470898,3.71159547 76.2518765,4.0290669 C76.2635196,4.65909374 75.9522579,5.86054328 75.827805,6.23700695 C75.7015409,6.61191819 74.1329423,11.3429411 72.3269516,16.2772026 C72.0445391,17.0487591 71.6810123,17.79069 71.465613,18.4543529 L71.465613,18.4543529 Z M34.5188729,18.0005265 C34.63427,16.8735935 34.8966302,14.8337037 35.1019388,13.447386 C35.3081529,12.0621031 35.9370155,9.18403187 36.3854082,7.77688569 C37.1746883,5.30037567 38.2140384,2.83809626 39.236312,2.85517296 C39.446666,2.8578897 39.5523603,3.23047232 39.5523603,3.98378777 C39.5523603,4.47940026 39.4216977,5.24746377 39.1580438,6.28784895 C38.8959423,7.32823413 38.4699303,8.60678757 37.8844064,10.1228624 C37.7066534,10.5675035 37.479611,11.1103357 37.2074186,11.7498065 C36.934062,12.3907003 36.6432405,13.0680762 36.3366362,13.7850389 C36.0279618,14.504201 35.7155358,15.2306078 35.3978055,15.9640004 C35.0799461,16.6967462 34.7875722,17.3747688 34.5188729,18.0005265 L34.5188729,18.0005265 Z M13.7906018,18.1256264 C13.7887906,18.1266612 13.7887906,18.1284725 13.7871089,18.1284725 C13.7887906,18.1156649 13.7922836,18.1029867 13.7940948,18.0900498 C13.7933186,18.1018224 13.7922836,18.1138538 13.7906018,18.1256264 L13.7906018,18.1256264 Z M83.1115362,27.3410948 C83.0555195,27.0588117 82.9619856,26.8119758 82.8328755,26.6005869 C82.7032478,26.3893274 82.5534384,26.2020012 82.3828008,26.0393844 C82.211775,25.8770264 81.5672589,25.4684792 81.3694538,25.3467429 C81.1713899,25.2243599 78.5224311,23.8305387 77.9195717,23.5476089 C77.3159361,23.2653258 76.8053168,23.0234058 76.3869377,22.8240482 C75.969464,22.625855 75.6064547,22.4526299 75.3021789,22.3072193 C75.1570269,22.2373599 75.231414,22.2549542 75.0433116,22.1593505 C76.6094522,20.580273 80.0742117,18.8102469 80.8885893,17.9829324 C81.1305093,17.7379076 81.278378,17.4971519 81.3275382,17.2632528 C81.353024,17.1450096 81.3721706,17.0025744 81.3865305,16.8373703 C81.4011492,16.6712604 81.3659609,16.5024339 81.2795423,16.331667 C81.1950644,16.1593475 81.0351644,15.9946608 80.8046289,15.841488 C80.5759046,15.6853397 80.2266084,15.5589462 79.7597157,15.4610138 C79.4789852,15.4020216 79.2152018,15.3899903 78.9699183,15.4264724 C78.7250229,15.462825 78.493323,15.5251809 78.2770181,15.6191027 C78.0594195,15.7118603 77.8559222,15.8241525 77.6670435,15.9605075 C77.4766124,16.0928519 77.3002824,16.2354164 77.1370188,16.3869075 C76.3523961,17.0416439 75.7116317,17.5890039 75.2130437,18.0329981 C74.71562,18.4762163 74.2925835,18.8507393 73.9465215,19.1579906 C73.5987777,19.4639483 73.2978656,19.727214 73.0431381,19.9503755 C72.9598245,20.0237277 72.8656439,20.104842 72.7629249,20.192166 L72.4779251,20.4397782 C72.4779251,20.4397782 74.2607588,17.703366 74.5320455,17.1896418 C74.8047552,16.6765646 75.5689377,15.3156032 75.9258666,14.5666862 C76.28189,13.8177693 76.6533083,12.9807521 77.0398628,12.0530473 C77.426676,11.1250838 77.7845105,10.1702115 78.1101321,9.18739547 C78.4376943,8.2044501 78.707558,7.2249977 78.9211461,6.24787394 C79.1331819,5.26932713 79.24017,4.35701721 79.24017,3.50990927 C79.24017,3.03603077 79.2005832,2.59746999 79.1214093,2.19176892 C79.0428824,1.78658535 78.9056219,1.4400059 78.7131209,1.14918447 C78.5197143,0.857198732 78.2591652,0.630026837 77.9322498,0.46779816 C77.6055932,0.305052009 77.1894132,0.223290825 76.6839687,0.223290825 C76.0384176,0.223290825 75.4439673,0.357834545 74.8990652,0.623817128 C74.3515758,0.890575923 73.852341,1.25397333 73.3959273,1.71219819 C72.9400311,2.17145801 72.5278616,2.7091154 72.1617474,3.32180679 C71.7942102,3.93475694 71.465613,4.58017868 71.1723336,5.2565196 C70.8790541,5.93389548 70.6319594,6.6348165 70.4298851,7.35928268 C70.2288458,8.08452507 70.0355685,8.77535532 69.8532876,9.43474892 C69.6697131,10.0918139 69.5243024,10.7120087 69.4173143,11.2939102 C69.3121373,11.8749062 69.2220965,12.3687076 69.1466744,12.7683283 C68.9590895,13.9375649 68.7984132,15.1404375 68.6646456,16.3796628 C68.53049,17.6183706 68.4241488,18.804684 68.3452337,19.9369211 C68.2661892,21.052599 68.1998229,22.3646591 68.1608829,23.2997379 C67.0007021,24.4904498 65.4174848,25.6435154 64.2160352,25.753479 C64.6337676,25.0288835 64.9142394,24.3174836 64.9142394,23.3813697 C64.9142394,22.0889738 64.2142241,19.9820709 64.138802,19.7371755 C64.0627329,19.4917625 64.0018002,19.2415629 63.9566504,18.9854124 C63.9111126,18.7292619 63.8891198,18.4462026 63.8891198,18.1364933 C63.9184866,18.0265298 64.0356948,17.8578326 64.2390629,17.6336361 C64.4402316,17.4074993 64.6566659,17.1606633 64.8853902,16.8900234 C65.1130796,16.6186073 65.3220105,16.3377473 65.5099835,16.0475727 C65.6969217,15.7568807 65.7921372,15.491933 65.7921372,15.252471 C65.7921372,15.1313817 65.7813996,14.9888171 65.762253,14.823613 C65.7423302,14.6585382 65.6722122,14.5005787 65.5542278,14.3496051 C65.4345614,14.2001839 65.246847,14.0728849 64.990826,13.9664142 C64.7319587,13.861496 64.3659738,13.8096191 63.8891198,13.8096191 C63.601662,13.8096191 63.3409836,13.8514052 63.1074726,13.9375649 C62.8764197,14.0221722 62.6617965,14.1320065 62.46839,14.2671971 C62.2751127,14.402517 62.0999471,14.5569835 61.9421169,14.7255513 C61.7818289,14.8963183 61.6387467,15.0722601 61.5100247,15.252471 C60.877281,16.0528769 60.3605814,16.7210675 59.9648418,17.2576899 C59.567679,17.7932775 59.231061,18.2461982 58.9533059,18.6176165 C58.676327,18.9889053 58.43583,19.3084467 58.2332382,19.5789572 C58.0301289,19.8495971 56.9977647,21.1597166 56.0356478,22.2565065 C55.0739189,23.352003 54.0724737,24.488768 52.6492859,25.3640784 C52.2205571,25.6263093 51.88989,25.7010845 51.533996,25.7010845 C51.2258391,25.7010845 51.0238943,25.5691281 50.9242802,25.3070267 C50.8251834,25.0436315 50.7742121,24.6904542 50.7742121,24.2455544 C50.7742121,23.7887526 50.9720172,22.2430523 51.1145819,21.6850839 C51.2584401,21.1278918 51.6112293,19.7960384 51.8673798,18.99615 C52.1214605,18.1948388 52.3140909,17.539973 52.4447535,17.0316824 C52.5745106,16.5215805 52.6926245,16.0674956 52.7934029,15.6705915 C52.8941813,15.2721351 52.9452821,14.9643664 52.9452821,14.7463797 C52.9452821,14.4888061 52.8724473,14.282592 52.7270366,14.1282548 C52.579944,13.9755994 52.3033532,13.8987543 51.8937711,13.8987543 C51.6703509,13.8987543 51.4200219,13.9248868 51.1417493,13.9811623 C50.8660641,14.0375672 50.5963298,14.1208808 50.3392737,14.2371835 C50.0805357,14.3518044 49.8501296,14.5005787 49.6461147,14.6810484 C49.4206247,14.8798885 49.2841404,15.1070604 49.2364032,15.3555782 C49.1481737,15.7141889 48.9156977,16.4839343 48.5391045,17.6670134 C48.1339211,19.1186625 47.8644455,20.057493 47.7302898,20.4796239 C47.681259,20.6069229 47.3245887,21.6337244 47.0084111,22.2537899 C46.419006,23.4166874 45.3942746,24.0503366 45.1363128,24.2555157 C44.8786098,24.4616006 44.6100399,24.608693 44.3428929,24.7694987 C44.0760048,24.9292694 43.8717312,25.0191807 43.5740532,25.1162075 C43.3025078,25.2022379 43.0345847,25.2305696 42.8014619,25.1797277 C42.6160761,25.1397527 42.4663962,24.9852861 42.3473768,24.7429781 C42.2284868,24.4995056 42.1684595,24.1766007 42.1684595,23.7725814 C42.1684595,23.0353077 42.5054657,21.3813255 43.3743075,19.6292817 C43.8480567,18.6732452 44.3892071,17.5247075 44.5762746,16.8735935 C44.765412,16.2227382 44.859722,15.5527364 44.859722,14.8653991 C44.859722,14.5242532 44.8149603,14.242617 44.7259545,14.024889 C44.6363018,13.8087135 44.525562,13.6396282 44.3914064,13.5182801 C44.2567332,13.3966733 44.1167561,13.313101 43.9678524,13.2675631 C43.8193368,13.2224133 43.6846637,13.1993857 43.5656442,13.1993857 C43.0911189,13.1993857 42.5815346,13.3802435 42.0423248,13.741571 C41.5022094,14.1028985 40.8096974,14.6968314 39.9615545,15.5209116 C39.1162577,16.3462856 38.4382349,17.0734686 37.9326611,17.703366 C37.4277339,18.3363684 36.9459639,18.8318514 36.5397455,19.3824458 L35.5201886,20.6520728 C35.8560305,20.0219165 36.9938304,17.904276 37.4351079,17.0734686 C37.8763856,16.2426611 38.3249076,15.3595886 38.7804158,14.4223104 C39.2352771,13.487361 39.6819881,12.5213629 40.1177027,11.5262569 C40.5534174,10.5295984 40.9432061,9.54639432 41.284352,8.57586839 C41.6267916,7.6043075 41.9027357,6.66832307 42.1095966,5.76765636 C42.3185274,4.86608408 42.4217639,4.04536739 42.4217639,3.3047301 C42.4217639,2.80536591 42.3828239,2.35516193 42.3039089,1.95217761 C42.2242175,1.54802898 42.0835935,1.20209638 41.8798374,0.912439278 C41.6767281,0.623817128 41.4032421,0.399620718 41.0622255,0.240755636 C40.7195271,0.0807262313 40.2804489,-1.77635684e-15 39.7464138,-1.77635684e-15 C38.7132734,-1.77635684e-15 37.800834,0.287975306 37.0074141,0.864443393 C36.2138649,1.4400059 35.521353,2.21712525 34.9311717,3.1938609 C34.3411199,4.17098465 33.839039,5.30270432 33.4275164,6.58759683 C33.0166406,7.87378304 32.7057669,9.22672362 32.4977417,10.6502997 C32.2908806,12.071159 32.0805267,13.5019797 31.8705609,14.9379751 C31.6608539,16.3752642 31.5166074,17.765075 31.4376923,19.1044319 C31.358648,20.4450824 31.3107813,21.6671016 31.2961628,22.7682902 C31.2915054,23.108013 31.2871068,23.4239321 31.2849077,23.7235506 C31.1450598,23.8124271 31.0026245,23.8887548 30.8565669,23.9540861 C30.5541023,24.0892767 30.2592705,24.154608 29.9722008,24.154608 C29.6844842,24.154608 29.4139737,24.1057065 29.1624804,24.0091973 C28.9100816,23.911265 28.6902837,23.7534348 28.5081323,23.5348013 C28.3254633,23.3168145 28.1785001,23.0388008 28.0686659,22.7050287 C27.9605135,22.3687989 27.9057903,21.9650384 27.9057903,21.4909011 C27.9057903,21.2950365 27.9695693,20.8945101 28.0977738,20.2835006 C28.2258492,19.6737846 29.6584811,12.8956273 29.9160546,11.8293684 C30.1729814,10.765438 30.387087,9.70422446 30.5541023,8.64559826 C30.722282,7.5896888 30.8065011,6.62032718 30.8065011,5.73945393 C30.8065011,5.42172377 30.7630332,5.16117468 30.6768735,4.95703046 C30.5905844,4.75198065 30.4671665,4.58858766 30.3044202,4.46685147 C30.1429677,4.34420969 29.9515017,4.25779122 29.7318332,4.20811355 C29.5112592,4.15804776 29.2661049,4.13269145 28.9963707,4.13269145 C28.651473,4.13269145 28.3147256,4.15701281 27.9858698,4.20371501 C27.6583076,4.25054657 27.3641225,4.3487376 27.1053846,4.49324273 C26.8474229,4.63930029 26.6342228,4.84460883 26.4669488,5.11330817 C26.3008391,5.37812642 26.2003194,5.72975126 26.1682359,6.16831203 C26.1193344,6.56948517 26.0530974,7.12473675 25.9670672,7.83484298 C25.880778,8.54313804 25.7225598,9.85312814 25.4912481,11.7639077 C25.2613595,13.6744285 25.1459624,14.6313707 25.1459624,14.6293008 C25.1469972,14.6274896 24.9808875,15.5044818 24.6504792,17.2587249 C24.3202002,19.0124505 23.984229,20.4342155 23.6434712,21.5237609 C23.3031015,22.6142118 22.9180995,23.5729652 22.4887239,24.3997622 C22.0592189,25.2277235 21.5863754,25.8897045 21.069029,26.3854463 C20.5496126,26.8793771 19.9758612,27.1268598 19.3440231,27.1268598 C18.9788147,27.1268598 18.6732452,26.9938686 18.4277028,26.7268511 C18.1802201,26.4590573 17.9812506,26.0730203 17.8279484,25.5664115 C17.6745168,25.0616138 17.5654587,24.4499573 17.502068,23.7309246 C17.4367367,23.012927 17.4058175,22.2074757 17.4058175,21.3158649 C17.4058175,20.4434006 17.445663,19.4876228 17.5247075,18.4462026 C17.6037519,17.4074993 17.7051773,16.3531422 17.8296302,15.2884356 C17.9520132,14.2228235 18.0875919,13.1841201 18.2309327,12.1736192 C18.3734973,11.1638944 18.5076528,10.2588292 18.6315884,9.46178703 C18.7566881,8.66383928 18.8574665,8.00936171 18.9371579,7.49900115 C19.0160729,6.9899343 19.0552716,6.70027719 19.0552716,6.62938301 C19.0552716,6.42239267 19.0261637,6.23351399 18.9663951,6.06455813 C18.9071442,5.89560227 18.805719,5.75239083 18.6621194,5.63401823 C18.5177436,5.51461068 18.3244664,5.42107692 18.0828051,5.35173516 C17.838686,5.28187592 17.5282005,5.24746377 17.1505725,5.24746377 C16.7510811,5.24746377 16.3998444,5.29300164 16.0945337,5.38368929 C15.7914222,5.47515314 15.5236284,5.63065463 15.293093,5.85213429 C15.0642392,6.07361396 14.8670809,6.37168004 14.7012299,6.74374517 C14.5360258,7.11775083 14.3942374,7.58063297 14.2747005,8.13536708 C13.6305724,11.5717948 12.8917463,14.6404265 12.0582221,17.3420385 C11.8196657,18.1075146 11.5679137,18.8665224 11.3002493,19.6163448 C11.0314206,20.3679785 10.7473264,21.0836477 10.4451205,21.7623171 C10.142009,22.4443503 9.82686623,23.0754122 9.50008023,23.6608067 C9.17329424,24.2455544 8.83072524,24.7485408 8.47392564,25.1723535 C8.11712606,25.5957782 7.74687209,25.928774 7.36536302,26.170047 C6.98320712,26.4126138 6.58927863,26.5334444 6.18357758,26.5334444 C5.77671219,26.5334444 5.42547546,26.4016175 5.12753874,26.1401628 C4.83089573,25.8779319 4.58302479,25.5182862 4.38405533,25.0596732 C4.18625019,24.6019659 4.04083947,24.063791 3.94562393,23.4439842 C3.85209017,22.8240482 3.80461176,22.1574099 3.80461176,21.4426464 C3.80461176,20.5660424 3.88753727,19.6173798 4.0498953,18.5952357 C4.21432326,17.5728327 4.4196318,16.5333531 4.66737335,15.4756325 C4.9143387,14.4189468 5.18303804,13.3746806 5.46894344,12.3489141 C5.75691873,11.3204309 6.02561807,10.3696984 6.27245405,9.49283558 C6.52045434,8.61584339 6.72563351,7.84389881 6.88980273,7.17428507 C7.05423068,6.50415386 7.13482754,5.99741564 7.13482754,5.65614032 C7.13482754,5.35393443 7.10222655,5.11498995 7.03793018,4.93801322 C6.97246949,4.76271828 6.87997068,4.62571655 6.7544828,4.53011289 C6.63209976,4.43425049 6.48047933,4.37150654 6.30246765,4.34136357 C6.12367974,4.31134998 5.92587461,4.29608444 5.70775853,4.29608444 C5.44009416,4.29608444 5.17411157,4.31134998 4.9126569,4.34136357 C4.65003791,4.37060096 4.3896182,4.4629704 4.13165649,4.61575514 C3.87498848,4.77009231 3.62142531,5.00619066 3.37355438,5.32922496 C3.12671841,5.65148304 2.87884748,6.09897027 2.63084718,6.67479152 C2.21544345,7.70612087 1.84286084,8.76461769 1.515428,9.85506867 C1.18851264,10.9452609 0.914250443,12.0456733 0.690959618,13.1548827 C0.46779816,14.2644803 0.297031133,15.373043 0.178787903,16.4775951 C0.059121615,17.5817592 0,18.6603083 0,19.7097492 C0,21.4247936 0.136354884,22.923921 0.407641595,24.2066144 C0.681903791,25.4904719 1.04310193,26.5586714 1.4945996,27.4104366 C1.94454485,28.2618137 2.67017534,29.0680412 3.28273737,29.4732246 C4.65844689,30.3815241 6.9769974,29.9542185 8.04907797,29.3941803 C9.91949441,28.416539 11.7042686,26.7058932 13.6406632,21.9730592 C13.6841312,22.7494023 13.7652455,23.4957318 13.8812895,24.2138589 C14.0693919,25.3640784 14.3687517,26.3653941 14.7780751,27.2169006 C15.1870104,28.0685366 15.7206573,28.741902 16.376946,29.2386788 C17.0333642,29.733515 17.8314413,29.9804804 18.7683314,29.9804804 C19.5092274,29.9804804 20.2274838,29.8514996 20.9237475,29.5937966 C21.6191057,29.3349293 22.2847091,28.9680389 22.9226274,28.492608 C23.5593813,28.0169183 24.160947,27.4404503 24.7283594,26.7648855 C25.2969359,26.0885445 25.8270899,25.3303131 26.3208912,24.4859219 C26.3807891,24.9265526 26.4832493,25.3088379 26.6325411,25.631096 C26.7802805,25.952319 26.9656661,26.2139031 27.1877927,26.4163655 C27.4092723,26.6185692 27.6638705,26.7676022 27.9504227,26.8639821 C28.2382686,26.9612676 28.5442262,27.0108159 28.8717884,27.0090047 C30.073238,27.0011132 31.254506,25.8688761 31.3305749,25.8206214 C31.3378196,25.952319 31.3085822,26.4560817 31.318673,26.5858389 C31.3476516,26.9582921 31.4122067,27.2914172 31.5120795,27.5843085 C31.6101411,27.8782347 31.7543876,28.1131688 31.94249,28.2888519 C32.1313688,28.4655699 32.3890716,28.5544463 32.7158577,28.5544463 C32.9637287,28.5544463 33.167226,28.5033456 33.3250562,28.4010147 C33.4832744,28.2989426 33.6299787,28.1474516 33.7634876,27.9479646 C33.8963495,27.7473134 34.033998,27.4830126 34.1720346,27.1544154 C34.3107182,26.8264652 34.4888592,26.4415925 34.707881,26.0014793 C35.1435956,25.1081865 35.6320928,24.2436138 36.1722081,23.405691 C36.7115474,22.5676389 37.2345861,21.8134179 37.7399013,21.1413462 C38.2448283,20.4705681 39.1946552,19.2341889 39.9543098,18.6497 C40.4530271,18.2654742 40.266477,18.6948498 40.266477,18.6948498 C40.234911,18.7255101 40.1684154,18.8336627 40.065179,19.0244819 C39.9615545,19.214913 39.8417588,19.4587734 39.7019109,19.7614968 C39.5630981,20.0613741 39.4132887,20.4016145 39.2544237,20.7810536 C39.0937475,21.1630802 38.9493717,21.5527395 38.8193559,21.9531363 C38.6906337,22.3535333 38.5826106,22.7519897 38.4946398,23.1463064 C38.4073157,23.5417872 38.364624,23.8996218 38.364624,24.2211036 C38.364624,24.6731187 38.4291791,25.1552769 38.5617822,25.6643438 C38.6942561,26.1748337 38.89025,26.6452193 39.1551977,27.0756297 C39.4188516,27.503841 39.7554696,27.8589588 40.1667336,28.136714 C40.5770919,28.416539 41.0622255,28.5544463 41.6191589,28.5544463 C41.9766053,28.5544463 42.3502229,28.498947 42.7406585,28.3870428 C43.1329052,28.2746213 43.5233406,28.1329623 43.9162341,27.9616778 C44.3077046,27.7879352 45.8544399,26.9048627 46.9314365,25.6054809 C46.9560167,25.8369219 47.0601587,26.5842864 47.112165,26.7932174 C47.2055693,27.1652825 47.3606828,27.4784847 47.5793163,27.7360583 C47.7982086,27.9942788 48.0825615,28.1955768 48.4347038,28.3391763 C48.7859406,28.4835521 49.2201027,28.5544463 49.7356382,28.5544463 C50.3092601,28.5544463 50.9167767,28.4506925 51.5559887,28.2420203 C52.1950715,28.0342538 52.820441,27.7746102 53.4361079,27.4621842 C53.874798,27.2395403 54.2894255,27.0011132 54.6845183,26.7494906 C54.9052218,26.5807935 55.9348694,25.7878911 56.9304929,24.8028758 L60.9867272,20.5396511 C61.0369224,20.7003273 61.1102745,20.8899822 61.1574942,21.1187066 C61.4189489,22.3782428 61.4317565,23.4041387 61.2911324,24.160947 C61.1484384,24.9184023 60.7635657,25.7895729 60.2225448,26.1157121 C59.9780375,26.2600878 59.6506046,26.3091186 59.2617215,26.3091186 C58.9459319,26.3091186 58.6628726,26.2364133 58.4159072,26.0838873 C58.3869285,26.0668106 58.3587261,26.048699 58.3305237,26.0301992 C58.3133177,26.023472 58.2957234,26.0122169 58.2743775,25.9957871 C58.2670035,25.9895774 58.2567834,25.9850495 58.2505737,25.9778048 C58.2234062,25.96034 58.2006372,25.9440395 58.1761866,25.9270922 C57.2901386,25.3657602 55.5869961,25.9305851 55.7730287,26.8348742 C55.8247763,26.9509181 55.8829923,27.0638571 55.9507817,27.1669643 C56.18895,27.5276448 56.4984005,27.8188544 56.8799096,28.0414985 C57.2621948,28.2646599 57.7051542,28.4281823 58.2105987,28.5324536 C58.7165607,28.6360781 59.2610747,28.6874376 59.8459517,28.6874376 C60.6582594,28.6874376 61.5180455,28.5997254 62.4250514,28.4224899 C63.3319277,28.2457719 64.5041399,27.8832801 65.352024,27.4711107 C66.7746945,26.7784692 68.0065457,25.7580069 68.1800295,25.5464886 C68.1845574,25.6081976 68.1535089,26.5142978 68.1593304,26.5751012 C68.1934839,26.96282 68.2755038,27.3022842 68.4050021,27.5963399 C68.5330775,27.8906541 68.7200156,28.1222246 68.9698271,28.295579 C69.2167923,28.4681573 69.5544453,28.5544463 69.9800693,28.5544463 C70.2970232,28.5544463 70.5866802,28.498947 70.8128172,28.331673 C71.3947188,27.9069546 72.0445391,26.512616 72.2596797,26.0014793 C72.4739147,25.4920242 72.7220444,25.0335407 73.3119668,24.1738839 C75.6624714,25.8415793 79.3040783,28.3610397 79.4321535,28.4372381 C79.6927026,28.5923514 79.9779612,28.7549682 80.2883174,28.924571 C80.5968623,29.094303 80.9147219,29.2415249 81.2358156,29.3694708 C81.6561354,29.5411434 82.2882321,29.6544705 82.6530525,29.4272987 C83.0398658,29.1843438 83.1468539,28.5915752 83.1733746,28.4517273 C83.2258983,28.1773358 83.2071399,27.8072112 83.1115362,27.3410948 L83.1115362,27.3410948 Z M52.3957227,12.071159 C52.901426,12.071159 53.3345532,11.9927614 53.6958807,11.8384242 C54.0570789,11.6824052 54.357603,11.4799428 54.5953832,11.2303901 C54.8331632,10.979673 55.007682,10.694932 55.1155757,10.3742263 C55.2247631,10.05365 55.280133,9.72427665 55.280133,9.38468313 C55.280133,9.01494663 55.2128612,8.69553467 55.0793523,8.42489481 C54.9453261,8.15438432 54.764339,7.93678572 54.5365202,7.77235778 C54.3088308,7.60715361 54.0407784,7.48438247 53.7330096,7.40365623 C53.4264051,7.32474117 53.0996192,7.28476616 52.7523929,7.28476616 C52.1979176,7.28476616 51.7350354,7.37196084 51.3625821,7.548032 C50.9911638,7.72151577 50.6936153,7.93678572 50.4712301,8.19164258 C50.2479392,8.44688753 50.0880392,8.71895046 49.9873901,9.00977187 C49.8895872,9.3002052 49.8391332,9.55997807 49.8391332,9.78973734 C49.8391332,10.4795326 50.0470292,11.0325849 50.4638559,11.4473418 C50.8796478,11.8622281 51.5233878,12.071159 52.3957227,12.071159 L52.3957227,12.071159 Z" />
</svg>