<svg viewBox="0 0 58 56">
  <g transform="translate(-906.000000, -847.000000)">
    <g transform="translate(207.000000, 148.000000)">
      <g transform="translate(74.000000, 318.000000)">
        <g transform="translate(601.000000, 153.000000)">
          <g transform="translate(24.000000, 228.000000)">
            <path d="M54.4963556,28.9839665 C54.3471624,29.0804276 52.4249942,30.5916715 51.5124721,30.9292853 C51.6127917,32.2585194 51.0983324,33.4771448 50.0417617,34.320858 C48.5517591,35.5099019 44.654107,33.7503918 44.0316113,34.3375184 C42.7981953,35.5027686 44.8040226,38.7799336 42.4150024,38.1214257 C41.8786787,37.9735187 40.3423549,37.8140363 39.805388,37.655197 C37.7809909,37.0545658 34.509674,36.9839668 32.5527996,36.9839668 C32.5283628,36.9839668 27.3156033,37.4808022 27.2750896,37.4814453 C24.9825306,37.5090975 15.888177,50.3924165 13.4116987,52.6914062 C11.9634959,54.0360741 7.89531553,54.1980498 7.85351572,54.15625 C6.83552947,53.1382638 2.87878895,53.3025743 3.00611762,51.0891134 C3.11865558,49.1431713 4.74434682,47.0094515 6.08772855,45.5618918 C8.38607526,43.0860566 10.9410085,40.849445 13.4116991,38.6867869 C14.800096,37.47202 16.2354373,36.2154533 17.5987543,34.9383082 C19.1684981,33.4675978 21.3163655,31.4554191 21.3652392,29.1815092 C21.302861,28.1609506 21.0655666,27.1037369 20.7851864,25.9281975 C20.5723288,25.0420414 20.3054531,24.1391654 20.0482235,23.2658708 C19.922181,22.8388696 19.7954954,22.4112254 19.6739544,21.982295 C18.8122351,18.9251209 19.601287,17.2929989 20.4147757,16.4621472 C20.9691055,15.896242 21.6970654,15.5483389 22.5259879,15.4338718 C21.8520462,13.3078689 22.102202,11.1246324 23.2790276,9.71630022 C24.0912301,8.74397223 25.2506927,8.29446346 26.5181917,8.42436442 C26.8294395,7.54528217 27.2673729,6.69320903 27.2750898,6.67970448 C28.3921095,4.78906672 30.4094328,3.77815429 32.5527987,4.04117158 C34.3997074,4.26689058 35.9527313,5.36011649 36.861395,6.97744777 C37.1411322,6.82632536 37.4318017,6.68935059 37.7456218,6.58710181 C39.3243686,6.07264256 41.4039747,5.4816789 41.687646,7.40251973 C42.6348537,13.8164062 43.3589559,15.5753877 42.6348545,17.974697 C43.7287234,18.6717893 46.428388,18.858261 46.4939816,20.2286518 C46.5338522,21.0665773 47.3049178,21.0369761 46.7004282,21.9224891 C47.297844,21.7552898 47.922912,21.7224931 48.5563399,21.8388895 C49.9010078,22.0832576 51.0566119,22.9694137 51.6938983,24.1886821 C57.1098681,23.5893371 54.8204253,23.7474738 55.2641464,26.006593 C55.7175136,28.3300196 54.4963556,28.9839665 54.4963556,28.9839665 Z" fill="#D9ECCA" />
            <path d="M28.8981493,24.2548394 C29.6582629,23.2651484 30.3347768,22.2928205 30.9392664,21.3475016 L29.0126165,18.6279413 C28.7354516,18.2369523 28.8280542,17.6948409 29.2190433,17.4176759 C29.6106754,17.140511 30.1521437,17.2331137 30.4293087,17.6241027 L31.9199543,19.7282411 C32.8845654,18.0459593 33.6150976,16.4794309 34.1681413,15.0929632 L32.6607757,13.0428431 C32.37718,12.6563556 32.4601366,12.113601 32.8466241,11.8293623 C33.2324685,11.5464097 33.7758661,11.6280801 34.0601048,12.0152107 L34.8800243,13.1309442 C35.6787223,10.6776166 35.8349893,9.14066963 35.8382046,9.10851593 C35.8819337,8.63135497 36.3037903,8.27830731 36.7809512,8.32332249 C37.2581122,8.36640845 37.6098737,8.78762197 37.5674308,9.26413985 C37.5539263,9.41333303 37.3725794,11.2454511 36.4079683,14.0852661 L37.4632528,14.0679031 C37.9500599,14.0428232 38.3378335,14.4421722 38.3455504,14.9212624 C38.3539104,15.4009957 37.9712813,15.7958432 37.4921911,15.80356 L35.7591065,15.8318553 C35.2298566,17.1469418 34.5462688,18.6105783 33.6691158,20.1764637 L34.8568736,19.9886861 C35.3333915,19.9147326 35.7751834,20.2369127 35.84978,20.7108582 C35.9243766,21.1841608 35.6015534,21.629168 35.1276078,21.7037646 L32.5102963,22.1179043 C31.8530746,23.1538966 31.1116102,24.2220427 30.2743278,25.3133393 C30.1032701,25.535843 29.8453974,25.6528825 29.5849524,25.6528825 C29.4003902,25.6528825 29.2145417,25.5943627 29.0569886,25.4734648 C28.678218,25.180223 28.6061937,24.6355393 28.8981493,24.2548394 L28.8981493,24.2548394 Z M54.4963556,30.9839665 C54.3471624,31.0804276 53.4249942,31.5916715 52.5124721,31.9292853 C52.6127917,33.2585194 52.0983324,34.4771448 51.0417617,35.320858 C49.5517591,36.5099019 47.3125752,36.7632731 45.1807847,36.0796854 C45.0438099,36.9696999 44.654107,37.7503918 44.0316113,38.3375184 C42.7981953,39.5027686 40.8040226,39.7799336 38.4150024,39.1214257 C37.8786787,38.9735187 37.3423549,38.8140363 36.805388,38.655197 C34.7809909,38.0545658 32.8646302,37.4867314 30.9077558,37.4867314 L30.8350884,37.4867314 C30.7952178,37.491876 30.7553472,37.4944483 30.7148335,37.4950914 C28.4222745,37.5227436 26.3991635,39.6841155 24.9226654,41.2622193 C23.6461634,42.6255363 22.3902397,44.0595915 21.1754728,45.4467022 C19.0115286,47.9180359 16.7742739,50.4736122 14.2977957,52.772602 C12.8495929,54.1172699 10.714587,55.7429611 8.769931,55.8542129 C8.69854978,55.8580714 8.62652549,55.8600006 8.55514426,55.8600006 C6.3969877,55.8600006 4.01504135,54.0568209 3.02985188,53.0722745 C2.98869514,53.0311178 2.95525529,52.9854595 2.92181544,52.9398013 C2.8755141,52.9063614 2.82985584,52.8722785 2.78805603,52.8304787 C1.77006978,51.8124924 -0.12121105,49.3025743 0.00611761576,47.0891134 C0.118655578,45.1431713 1.74434682,43.0094515 3.08772855,41.5618918 C5.38607526,39.0860566 7.94100853,36.849445 10.4116991,34.6867869 C11.800096,33.47202 13.2354373,32.2154533 14.5987543,30.9383082 C16.1684981,29.4675978 18.3163655,27.4554191 18.3652392,25.1815092 C18.302861,24.1609506 18.0655666,23.1037369 17.7851864,21.9281975 C17.5723288,21.0420414 17.3054531,20.1391654 17.0482235,19.2658708 C16.922181,18.8388696 16.7954954,18.4112254 16.6739544,17.982295 C15.8122351,14.9251209 16.601287,13.2929989 17.4147757,12.4621472 C17.9691055,11.896242 18.6970654,11.5483389 19.5259879,11.4338718 C18.8520462,9.30786889 19.102202,7.12463243 20.2790276,5.71630022 C21.0912301,4.74397223 22.2506927,4.29446346 23.5181917,4.42436442 C23.8294395,3.54528217 24.2673729,2.69320903 24.2750898,2.67970448 C25.3921095,0.789066719 27.4094328,-0.221845715 29.5527987,0.0411715785 C31.3997074,0.266890576 32.9527313,1.36011649 33.861395,2.97744777 C34.1411322,2.82632536 34.4318017,2.68935059 34.7456218,2.58710181 C36.3243686,2.07264256 37.9880012,2.34723518 39.687646,3.40251973 C43.4052572,5.71051255 43.3589559,9.5753877 42.6348545,11.974697 C43.7287234,12.6717893 44.428388,13.858261 44.4939816,15.2286518 C44.5338522,16.0665773 44.3049178,17.0369761 43.7004282,17.9224891 C44.297844,17.7552898 44.922912,17.7224931 45.5563399,17.8388895 C46.9010078,18.0832576 48.0566119,18.9694137 48.6938983,20.1886821 C54.1098681,19.5893371 56.8204253,22.7474738 57.2641464,25.006593 C57.7175136,27.3300196 56.6828075,29.5640589 54.4963556,30.9839665 L54.4963556,30.9839665 Z M55.1188513,25.4271635 C54.8114619,23.8644935 52.6597361,21.6786847 48.1910144,22.4703089 C47.6366846,22.5693423 47.0958593,22.228513 46.946023,21.6838293 C46.7087287,20.821467 45.9936303,20.1410946 45.165994,19.9906153 C44.4232434,19.8542836 43.6972128,20.1539561 43.0805048,20.8311131 C43.1268061,21.1667978 43.142883,21.5294915 43.1107293,21.924339 C42.9769699,23.5924731 41.2252361,25.7242637 38.9333201,27.0226302 L38.6612998,27.8341897 C40.2201113,27.255423 41.6818187,26.8065573 43.0091236,26.4599404 L43.5583088,24.5004937 C43.6875667,24.0394096 44.1640846,23.7673893 44.6283841,23.8985764 C45.0901112,24.0278343 45.3595593,24.5069245 45.2303014,24.9686516 L44.9396319,26.0020717 C48.2141651,25.3069086 50.3183034,25.2721826 50.4777858,25.2708965 L50.4861457,25.2708965 C50.9613775,25.2708965 51.3485081,25.6535255 51.3536527,26.1300434 C51.3587973,26.6091336 50.974239,27.0014088 50.4951488,27.0071964 C50.4584936,27.0071964 48.49133,27.0432086 45.391713,27.6933565 L46.3601825,28.8457452 C46.6688581,29.2122974 46.6212706,29.7601965 46.2540753,30.0688721 C46.0913776,30.2058468 45.8926677,30.2727266 45.695887,30.2727266 C45.4483035,30.2727266 45.2026492,30.1672624 45.0309484,29.9634079 L43.4965737,28.1390068 C42.0805246,28.505559 40.5049931,28.9904369 38.8207822,29.6328679 L40.4419719,31.6540496 C40.7416444,32.0283188 40.6818385,32.5749317 40.3082125,32.8746042 C40.148087,33.003219 39.9558079,33.0655972 39.765458,33.0655972 C39.5108006,33.0655972 39.2587156,32.9543454 39.0876579,32.7408448 L37.1417158,30.3145264 C36.4478389,30.6116266 35.7404574,30.9331636 35.0215006,31.2868544 C34.8986734,31.3473033 34.7674863,31.3755986 34.6395146,31.3755986 C34.3186206,31.3755986 34.0105881,31.1974671 33.8594657,30.8900777 C33.6478944,30.4598611 33.8260259,29.9389711 34.2562424,29.7280428 C35.0350051,29.3460568 35.7989771,28.9981537 36.5468723,28.6785459 L36.7481544,28.0779148 C36.2041138,28.314566 35.6356363,28.5550757 35.0459374,28.8013731 C33.1282905,29.6026434 31.1456932,30.4315658 29.9952337,31.2431253 C27.9000984,32.7209095 27.4827433,33.0495204 25.7213634,34.8109002 C25.6467668,34.8854968 18.2025414,42.3374391 11.8168159,49.0350555 C11.6020292,49.2607745 11.313932,49.3739556 11.0251918,49.3739556 C10.7544576,49.3739556 10.4830803,49.273636 10.271509,49.0717108 C9.83421858,48.6549988 9.81749866,47.9630511 10.2342107,47.5264038 C16.6173638,40.8307166 24.1008168,33.3382606 24.1747703,33.2643071 C26.0364697,31.4032508 26.5702212,30.9826803 28.7341654,29.4560225 C30.0801194,28.5062021 32.1752548,27.6309783 34.2015811,26.7834067 C35.5822612,26.2065692 36.8870584,25.6605993 37.7892914,25.1596446 C39.7210859,24.0876402 40.8721884,22.4632351 40.9300651,21.7494229 C41.0381015,20.4041119 40.2631973,19.9398124 40.1744531,19.8909388 C39.8027563,19.6877274 39.5686773,19.2813046 39.5944003,18.8581619 C39.6201232,18.4350191 39.8747806,18.0581777 40.2683419,17.9019107 C41.5982191,17.3733038 42.3609049,16.4131943 42.309459,15.334116 C42.2695884,14.5032643 41.73648,13.8196765 40.9512865,13.5913852 C40.6451833,13.502641 40.3930983,13.2839958 40.2612681,12.9933264 C40.1294379,12.7026569 40.130724,12.3695445 40.2651265,12.0801612 C40.34744,11.9007435 42.2676592,7.57864272 38.5346142,5.26100378 C37.395087,4.55362231 36.3809592,4.35941394 35.4304957,4.66487412 C33.4247477,5.31244971 32.307728,7.97799172 32.2961527,8.00500083 C32.1816855,8.2834519 31.9572526,8.50274015 31.6762293,8.6107766 C31.3964921,8.71881304 31.083315,8.70723771 30.8112947,8.57733675 C29.6981334,8.0429422 28.9148692,8.07059438 28.4833665,8.65707793 C27.8107111,9.57217233 27.9560458,11.6312955 29.1515205,12.9168006 C29.1521636,12.9174436 29.1534497,12.9187298 29.1540928,12.9193728 C29.5650171,13.3618078 29.5399372,14.0524694 29.0981453,14.4640368 C28.6692149,14.8633858 28.0049194,14.8518104 27.5901367,14.4466738 C27.3367655,14.3116282 26.5123445,14.2659699 26.2313211,14.3463542 C25.7136465,14.5032643 25.3978972,15.1212585 25.2249102,15.6112809 C24.7078787,17.0749175 25.0397049,18.8047867 25.3908233,20.6356186 C25.7258649,22.3834939 26.0731249,24.1918182 25.7040004,25.9551273 C24.945173,29.5775635 22.0127553,32.5543533 19.6558888,34.9453027 L19.1941616,35.4141037 C17.4424279,37.1999204 9.07024659,45.3856102 8.71526971,45.7335133 C8.28376701,46.1553699 7.59117624,46.147653 7.16931965,45.7161503 C6.74746306,45.2846476 6.75517995,44.5920568 7.18668265,44.1702002 C7.27349765,44.0853144 15.897764,35.6533273 17.6334209,33.8835874 L18.0990065,33.410928 C20.3664857,31.1093659 22.9368527,28.5004144 23.564493,25.5069046 C23.8435871,24.1725259 23.5522746,22.653585 23.2442421,21.0465429 C22.8538961,19.0099273 22.4500456,16.9051459 23.1638578,14.882678 C23.6532372,13.4974964 24.4956642,12.5881897 25.5998224,12.2531481 C25.7490156,12.2081329 25.96959,12.1689054 26.2306781,12.1457547 C25.6724898,10.4673314 25.8056061,8.60949045 26.7232728,7.36192676 C27.6242196,6.13558451 29.0872131,5.73687859 30.7527749,6.21854107 C31.0582351,5.68286037 31.5161038,4.99670034 32.1193073,4.34976783 C31.4897378,2.96780166 30.2859031,2.33501678 29.2891383,2.21347578 C28.0042764,2.05720878 26.8370969,2.64562155 26.1618692,3.78836417 C26.0422574,4.01987083 25.5175089,5.33174193 25.387608,5.76774615 C25.3831065,5.88092718 25.3605989,5.99539437 25.318799,6.10728925 C25.1078708,6.66997906 24.4821597,6.95614702 23.9175407,6.75036332 C23.0796151,6.44233084 22.4204642,6.56580106 21.9574509,7.12013091 C21.1954081,8.03136686 21.0198489,10.0808439 22.1953883,12.0820904 C22.4191781,12.4634333 22.3915259,12.9412374 22.1252932,13.294285 C21.8584175,13.6466896 21.4050503,13.8042428 20.9786922,13.693634 C20.4700206,13.5624469 19.5337047,13.4254721 18.9780887,13.9933065 C18.407682,14.5759316 18.3350147,15.8144923 18.7787358,17.3900238 C18.8977045,17.8093081 19.0211747,18.2285923 19.145288,18.6478766 C19.4115207,19.5481803 19.6861133,20.4787085 19.9124754,21.420812 C20.2102187,22.6677326 20.4828821,23.8870011 20.5510479,25.0985526 C20.5523341,25.1236325 20.5529771,25.1480693 20.5523341,25.1731492 C20.5137496,28.3943072 17.8539953,30.8868623 16.0932585,32.5357042 C14.7029323,33.8372861 13.2534434,35.1067143 11.852185,36.3336996 C9.42329426,38.4597025 6.91144695,40.6583727 4.69026912,43.0512513 C3.18033121,44.6769426 2.24530152,46.234468 2.188711,47.2170851 C2.12376052,48.3405355 3.25171243,50.2041642 4.33336301,51.2858148 C4.37451975,51.3269715 4.40795961,51.3726298 4.44139946,51.418288 C4.48770079,51.4517279 4.53335905,51.4858108 4.57515886,51.5276106 C5.65680944,52.6092612 7.49664435,53.74493 8.64388849,53.6729057 C9.62521951,53.6169583 11.1821018,52.6812855 12.8090792,51.1713476 C15.2026009,48.9495267 17.4025573,46.4376794 19.5292032,44.0075025 C20.7555455,42.6068872 22.0236875,41.1580413 23.3252694,39.7690013 C24.9509607,38.0314152 27.3978575,35.416676 30.5637111,35.312498 C30.6048679,35.3067103 30.6460246,35.303495 30.6871814,35.3028519 C33.0421186,35.2539783 35.2716564,35.9208461 37.4259545,36.5600617 C37.9494168,36.7156856 38.472236,36.8706665 38.9956983,37.0153581 C40.5943804,37.456507 41.8824578,37.3600458 42.5293903,36.7497686 C43.1788951,36.1362759 43.0811479,35.1414403 42.9653945,34.6031873 C42.8734349,34.1781154 43.0425634,33.7388958 43.3956111,33.4848815 C43.7486587,33.2302242 44.2181028,33.2102889 44.5923719,33.4327925 C46.590403,34.6211934 48.6617446,34.4231266 49.6758724,33.6134963 C50.3189465,33.0996802 50.4977211,32.3845818 50.2070516,31.4881365 C50.0212032,30.9145145 50.3343803,30.2990926 50.9067162,30.111958 C51.0038204,30.0804474 51.1028538,30.0624413 51.200601,30.0585829 C51.5285688,29.9736971 52.5954287,29.6110033 53.3047394,29.1505623 C54.7381515,28.2200341 55.3985885,26.8631478 55.1188513,25.4271635 L55.1188513,25.4271635 Z" fill="#90CC63" />
          </g>
        </g>
      </g>
    </g>
  </g>
</svg>