<svg viewBox="0 0 43 42">
  <path d="M38,13 C37.4,13 37,12.6 37,12 C37,11.4 37.4,11 38,11 C39.7,11 41,9.7 41,8 C41,6.3 39.7,5 38,5 C37.4,5 37,4.6 37,4 C37,3.4 37.4,3 38,3 C40.8,3 43,5.2 43,8 C43,10.8 40.8,13 38,13 L38,13 Z" fill="#F17150" />
  <path d="M10.170166,38 L18.3037109,26.7731934 C18.3037109,26.7731934 24.7239386,36.7972947 24.6469727,37.7087402 C24.5403448,38.9714483 17.4492188,40.5224609 17.4492188,40.5224609 L8,38 L10.170166,38 Z" fill="#FFD6CB" />
  <polygon fill="#FFD6CB" points="2.75463867 31.5164795 2.26196289 30.0261232 15.723877 26.1494141 7.72753906 36.8835449 4.17431641 33.0788574" />
  <path d="M4.3017578,20.4345703 C5.3650432,17.4089652 7.58300781,15.0666504 7.58300781,15.0666504 L17.050293,24.2443849 C17.050293,24.2443849 2.86791993,26.4536133 3.58129883,26.4536133 C3.58129883,26.4536133 3.23847241,23.4601755 4.3017578,20.4345703 Z" fill="#FFD6CB" />
  <path d="M10.067871,17.8630371 C10.0140916,17.0013602 7.62586042,17.2885385 8.47705078,14.8664551 C9.54033617,11.8408499 17.0134275,8.50244141 17.0134275,8.50244141 L16.2517088,22.9194336 C16.2517088,22.9194336 11.85771,19.5930176 12.5710889,19.5930176 C12.5710889,19.5930176 10.0812715,18.0777451 10.067871,17.8630371 Z" fill="#FFD6CB" />
  <path d="M35,10 C34.4,10 34,9.6 34,9 C34,8.4 34.4,8 35,8 C36.7,8 38,6.7 38,5 C38,3.3 36.7,2 35,2 C34.4,2 34,1.6 34,1 C34,0.4 34.4,0 35,0 C37.8,0 40,2.2 40,5 C40,7.8 37.8,10 35,10 L35,10 Z" fill="#F17150" />
  <path d="M38,13 L34,13 C33.4,13 33,12.6 33,12 C33,11.4 33.4,11 34,11 L38,11 C38.6,11 39,11.4 39,12 C39,12.6 38.6,13 38,13 L38,13 Z" fill="#F17150" />
  <path d="M17,41 C7.6,41 0,33.4 0,24 C0,14.6 7.6,7 17,7 C17.6,7 18,7.4 18,8 C18,8.6 17.6,9 17,9 C8.7,9 2,15.7 2,24 C2,32.3 8.7,39 17,39 C17.6,39 18,39.4 18,40 C18,40.6 17.6,41 17,41 L17,41 Z" fill="#F17150" />
  <path d="M18,25 C17.4,25 17,24.6 17,24 C17,23.4 17.4,23 18,23 C26.3,23 33,16.3 33,8 C33,7.4 33.4,7 34,7 C34.6,7 35,7.4 35,8 C35,17.4 27.4,25 18,25 L18,25 Z" fill="#F17150" />
  <path d="M17,41 C7.6,41 0,33.4 0,24 C0,14.6 7.6,7 17,7 C17.6,7 18,7.4 18,8 C18,8.6 17.6,9 17,9 C8.7,9 2,15.7 2,24 C2,32.3 8.7,39 17,39 C18.6,39 21.7,38.8 24.5,37.1 C25,36.8 25.6,37 25.9,37.5 C26.2,38 26,38.6 25.5,38.9 C22.3,40.7 18.8,41 17,41 L17,41 Z" fill="#F17150" />
  <path d="M34,9 L17,9 C16.4,9 16,8.6 16,8 C16,7.4 16.4,7 17,7 L34,7 C34.6,7 35,7.4 35,8 C35,8.6 34.6,9 34,9 L34,9 Z" fill="#F17150" />
  <path d="M17,25 C16.4,25 16,24.6 16,24 L16,8 C16,7.4 16.4,7 17,7 C17.6,7 18,7.4 18,8 L18,24 C18,24.6 17.6,25 17,25 L17,25 Z" fill="#F17150" />
  <path d="M17,25 C16.7,25 16.5,24.9 16.3,24.7 L5.8,14.2 C5.4,13.8 5.4,13.2 5.8,12.8 C6.2,12.4 6.8,12.4 7.2,12.8 L17.7,23.3 C18.1,23.7 18.1,24.3 17.7,24.7 C17.5,24.9 17.3,25 17,25 L17,25 Z" fill="#F17150" />
  <path d="M2,28 C1.5,28 1.1,27.7 1,27.2 C0.9,26.7 1.2,26.1 1.8,26 L16.8,23 C17.3,22.9 17.9,23.2 18,23.8 C18.1,24.3 17.8,24.9 17.2,25 L2.2,28 L2,28 L2,28 Z" fill="#F17150" />
  <path d="M8,38 C7.8,38 7.6,37.9 7.4,37.8 C6.9,37.5 6.8,36.9 7.1,36.4 L16.1,23.4 C16.4,22.9 17,22.8 17.5,23.1 C18,23.4 18.1,24 17.8,24.5 L8.8,37.5 C8.6,37.8 8.3,38 8,38 L8,38 Z" fill="#F17150" />
  <path d="M25,39 C24.7,39 24.3,38.8 24.1,38.5 L16.1,24.5 C15.8,24 16,23.4 16.5,23.1 C17,22.8 17.6,23 17.9,23.5 L25.9,37.5 C26.2,38 26,38.6 25.5,38.9 C25.3,39 25.2,39 25,39 L25,39 Z" fill="#F17150" />
  <path d="M24,17 C22.3,17 21,15.7 21,14 C21,12.3 22.3,11 24,11 C25.7,11 27,12.3 27,14 C27,15.7 25.7,17 24,17 L24,17 Z M24,13 C23.4,13 23,13.4 23,14 C23,14.6 23.4,15 24,15 C24.6,15 25,14.6 25,14 C25,13.4 24.6,13 24,13 L24,13 Z" fill="#F17150" />
  <path d="M35,2 L8,2 C7.4,2 7,1.6 7,1 C7,0.4 7.4,0 8,0 L35,0 C35.6,0 36,0.4 36,1 C36,1.6 35.6,2 35,2 L35,2 Z" fill="#F17150" />
  <path d="M38,5 L12,5 C11.4,5 11,4.6 11,4 C11,3.4 11.4,3 12,3 L38,3 C38.6,3 39,3.4 39,4 C39,4.6 38.6,5 38,5 L38,5 Z" fill="#F17150" />
  <path d="M32,42 C31.4,42 31,41.6 31,41 C31,40.4 31.4,40 32,40 C33.4,40 35,38.9 35,37.5 C35,36.1 33.4,35 32,35 C31.4,35 31,34.6 31,34 C31,33.4 31.4,33 32,33 C34.4,33 37,34.9 37,37.5 C37,40.1 34.4,42 32,42 L32,42 Z" fill="#F17150" />
  <path d="M25,39 C24.7,39 24.3,38.8 24.1,38.5 C23.8,38 24,37.4 24.5,37.1 L31.5,33.1 C32,32.8 32.6,33 32.9,33.5 C33.2,34 33,34.6 32.5,34.9 L25.5,38.9 C25.3,39 25.2,39 25,39 L25,39 Z" fill="#F17150" />
  <path d="M32,42 C31.9,42 31.7,42 31.6,41.9 L24.6,38.9 C24.1,38.7 23.9,38.1 24.1,37.6 C24.3,37.1 24.9,36.9 25.4,37.1 L32.4,40.1 C32.9,40.3 33.1,40.9 32.9,41.4 C32.8,41.8 32.4,42 32,42 L32,42 Z" fill="#F17150" />
</svg>