<svg viewBox="0 0 36 45">
  <g fill="none" transform="translate(1.000000, 2.000000)">
    <path d="M16.9187452,41 C25.7119985,41 33.8052838,34.9264069 32.8403388,22.5 C31.8753937,10.0735931 23.1758108,0 16.9187452,0 C10.6616795,0 1.96209668,10.0735931 0.997151618,22.5 C0.0322065529,34.9264069 8.12549187,41 16.9187452,41 Z" stroke="#F29C22" stroke-width="3" />
    <path d="M13.2160884,33.2783394 C15.0492504,35.5482465 26.3300781,32.5228475 26.3300781,27 C26.3300781,22.78629 28.3938161,19.1812869 24.7054426,17.7089852 C23.5595194,17.2515627 22.3091375,17 21,17 C15.4771525,17 11,21.4771525 11,27 C11,29.3779351 11.8299956,31.5620144 13.2160884,33.2783394 Z" fill="#FFE636" />
    <circle stroke="#EF9610" stroke-width="3" cx="17" cy="24" r="10" />
  </g>
</svg>