<svg viewBox="0 0 56 25">
  <path d="M5.37207031,14.7480469 C8.83203119,10.5290268 16.8583983,2.03710939 30.5781242,3.60253907 C32.739121,3.84911022 34.3837882,4.99658198 36.5668945,7.4350587 C36.7243219,7.6109012 38.9661571,10.1331349 41.800293,9.59374963 C45.8218777,8.82837222 50.9903597,4.95655525 54.0473633,5.73095714 C56.6721154,6.39586084 52.8007813,10.4228512 52.8007813,12.7480465 C52.8007813,15.0732418 56.7558748,19.5621006 54.0473633,20.0258785 C50.0791457,20.7053557 40.3657562,15.1776992 39.9711914,15.4799801 C37.9852766,17.0014138 34.2460864,20.0683374 30.578125,21.5102535 C25.8115771,23.3840362 21.2116127,23.4511715 21.2116127,23.4511715 L8.34521484,18.2265621 C8.34521484,18.2265621 4.20019542,16.7785902 5.37207031,14.7480469 Z" fill="#DFEAF3" />
  <path d="M16.0443723,12.5457876 C17.1949655,12.5457876 18.1277057,11.6130474 18.1277057,10.4624542 C18.1277057,9.31186101 17.1949655,8.37912089 16.0443723,8.37912089 C14.893779,8.37912089 13.961039,9.31186101 13.961039,10.4624542 C13.961039,11.6130474 14.893779,12.5457876 16.0443723,12.5457876 L16.0443723,12.5457876 Z" fill="#458ECC" />
  <path d="M21.9503746,3.15490629 C26.4065561,2.92638333 30.3761023,4.30528665 34.2210689,6.88854387 C35.0521793,7.44692899 35.8363267,8.03208149 36.7087285,8.72895012 C36.9566929,8.92702238 38.2562932,9.9885206 38.5609423,10.2241001 C39.7603452,11.1515763 41.0153335,11.4553801 42.3265737,11.1669406 C43.0262078,11.0130389 43.6922417,10.7107515 44.4897155,10.2331726 C44.8932717,9.99149708 46.2845193,9.0814372 46.4217161,8.99486315 C49.0619827,7.3287981 51.1611762,6.77136149 54.2299343,7.43716696 C55.0331004,7.61142387 55.8254583,7.10159226 55.9997152,6.29842619 C56.1739721,5.49526011 55.6641405,4.70290223 54.8609744,4.5286453 C50.9254589,3.67478601 48.0768857,4.43121886 44.8334543,6.47789387 C44.6520424,6.59236869 43.3036073,7.47442351 42.9606103,7.67983226 C42.4145726,8.00683494 42.0152302,8.18808119 41.6871745,8.26024512 C41.255611,8.35517815 40.8971071,8.26839262 40.3815435,7.86971673 C40.1143821,7.66312583 38.8416104,6.62354083 38.5662283,6.40356744 C37.6347441,5.6595043 36.7877873,5.02748161 35.880824,4.41813448 C31.5442699,1.50460211 26.9743941,-0.0828380667 21.7979492,0.182621605 C15.1496359,0.523561976 8.19556244,3.98802415 0.932864625,11.1438983 C0.347437849,11.7207143 0.340457438,12.6628982 0.91727344,13.2483249 C1.49408945,13.8337517 2.43627338,13.8407321 3.02170015,13.2639161 C9.79586036,6.58939399 16.08612,3.45563837 21.9503746,3.15490629 L21.9503746,3.15490629 Z" fill="#458ECC" />
  <path d="M21.7979492,24.3862647 C26.9743941,24.6517243 31.5442699,23.0642842 35.880824,20.1507518 C36.7877873,19.5414047 37.6347441,18.909382 38.5662283,18.1653189 C38.8416104,17.9453455 40.1143821,16.9057605 40.3815435,16.6991695 C40.8517199,16.3355907 41.1447352,16.2820626 41.5445089,16.4127442 C41.8721568,16.5198486 42.2757831,16.7539007 42.827909,17.1594622 C43.1506983,17.3965656 44.4325792,18.409749 44.6894991,18.6050221 C47.9357693,21.072364 50.840802,22.0456571 54.8609744,21.1734305 C55.6641405,20.9991735 56.1739721,20.2068157 55.9997152,19.4036496 C55.8254583,18.6004835 55.0331004,18.0906519 54.2299343,18.2649088 C51.1933843,18.9237263 49.1079801,18.225039 46.4904239,16.2355539 C46.2726908,16.0700649 44.9640507,15.0357313 44.5898098,14.7608345 C43.8052612,14.1845479 43.1571706,13.8087374 42.4692393,13.5838604 C41.121965,13.1434515 39.8028739,13.3844233 38.5609423,14.3447862 C38.2562932,14.5803657 36.9566929,15.6418639 36.7087285,15.8399362 C35.8363267,16.5368048 35.0521793,17.1219573 34.2210689,17.6803424 C30.3761023,20.2635996 26.4065561,21.642503 21.9503746,21.41398 C16.08612,21.1132479 9.79586036,17.9794923 3.02170015,11.3049701 C2.43627338,10.7281542 1.49408945,10.7351345 0.91727344,11.3205613 C0.340457438,11.9059881 0.347437849,12.848172 0.932864625,13.424988 C8.19556244,20.5808621 15.1496359,24.0453243 21.7979492,24.3862647 L21.7979492,24.3862647 Z" fill="#458ECC" />
</svg>