<svg viewBox="0 0 48 49">
  <path d="M4.88183595,42.1142299 C3.10397449,36.6324769 3.65288537,30.7163773 8.50732419,25.8619385 C10.1073242,24.2619385 12.3507077,22.7829346 14.3507077,21.8829346 C17.6507077,20.3829346 20.031323,18.0655029 21.731323,15.2655029 C22.731323,13.7655029 24.2042722,12.0065674 25.5042722,10.6065674 C29.8042722,6.30656738 35.2901853,3.04919434 40.1901853,3.04919434 C42.0047267,3.04919434 43.8666148,3.46413166 45.4751695,4.19035818 C46.5260548,4.66480941 42.8851956,2.33117592 43.635986,3.04245104 C48.635986,8.04245104 46.4070065,18.5835643 39.2070065,25.6835643 C37.9070065,26.9835643 36.4070065,28.1835643 34.8070065,29.1835643 C32.0070065,30.9835643 30.0395749,33.5263866 28.4395749,36.8263866 C27.5395749,38.8263866 26.1042722,40.5142284 24.5042722,42.1142284 C21.1042722,45.7142284 16.8955075,47.0927723 12.3955075,47.0927723 C8.79550752,47.0927723 5.48449671,43.9724385 4.88183595,42.1142299 Z" fill="#EBE2CD" />
  <path d="M3.79174798,44.0582275 C-1.70825202,38.5582275 -0.992675811,28.3619385 5.50732419,21.8619385 C7.10732419,20.2619385 9.35070772,18.7829346 11.3507077,17.8829346 C14.6507077,16.3829346 17.031323,14.0655029 18.731323,11.2655029 C19.731323,9.76550293 21.2042722,8.00656738 22.5042722,6.60656738 C26.8042722,2.30656738 32.2901853,0.0491943359 37.1901853,0.0491943359 C40.1901853,0.0491943359 43.3196042,1.18339844 45.2196042,2.98339844 C50.2196042,7.98339844 47.9906247,18.5245117 40.7906247,25.6245117 C39.4906247,26.9245117 37.9906247,28.1245117 36.3906247,29.1245117 C33.5906247,30.9245117 31.6231931,33.467334 30.0231931,36.767334 C29.1231931,38.767334 27.6878903,40.4551758 26.0878903,42.0551758 C22.6878903,45.6551758 17.9027052,48.0264893 13.4027052,48.0264893 C9.80270519,48.0264893 6.09174798,46.4582275 3.79174798,44.0582275 Z M37.2027053,2.5 C32.9027053,2.5 28.0027053,4.8 24.1027053,8.7 C22.9027053,9.9 21.8027053,11.3 20.9027053,12.7 C18.9027053,15.8 16.0027053,18.3 12.3027053,20 C10.5027053,20.8 8.90270532,22 7.40270532,23.4 C1.70270532,29.1 0.902705322,37.6 5.60270532,42.3 C7.60270532,44.3 10.4027053,45.4 13.4027053,45.4 C17.4027053,45.4 21.4027053,43.6 24.5027053,40.5 C25.9027053,39.1 27.1027053,37.4 27.9027053,35.6 C29.6027053,32 32.1027053,29 35.2027053,27 C36.6027053,26.1 38.0027053,25 39.2027053,23.8 C45.6027053,17.4 47.4027053,8.8 43.2027053,4.6 C41.8027053,3.3 39.7027053,2.5 37.2027053,2.5 Z M37.7027053,10.9 C37.4027053,10.9 37.2027053,10.8 37.0027053,10.6 C36.6027053,10.2 36.6027053,9.6 37.0027053,9.2 L39.4027053,6.8 C39.8027053,6.4 40.4027053,6.4 40.8027053,6.8 C41.2027053,7.2 41.2027053,7.8 40.8027053,8.2 L38.4027053,10.6 C38.2027053,10.8 37.9027053,10.9 37.7027053,10.9 Z M22.5027053,19.9 C22.2027053,19.9 22.0027053,19.8 21.8027053,19.6 C21.4027053,19.2 21.4027053,18.6 21.8027053,18.2 L24.2027053,15.8 C24.6027053,15.4 25.2027053,15.4 25.6027053,15.8 C26.0027053,16.2 26.0027053,16.8 25.6027053,17.2 L23.2027053,19.6 C23.0027053,19.8 22.7027053,19.9 22.5027053,19.9 Z M27.3027053,12.6 C26.9027053,12.6 26.5027053,12.4 26.4027053,12 C26.2027053,11.5 26.4027053,10.9 26.9027053,10.7 L30.0027053,9.4 C30.5027053,9.2 31.1027053,9.4 31.3027053,9.9 C31.5027053,10.4 31.3027053,11 30.8027053,11.2 L27.7027053,12.5 C27.6027053,12.6 27.4027053,12.6 27.3027053,12.6 Z M21.4027053,37.6 C21.0027053,37.6 20.6027053,37.4 20.5027053,37 C20.3027053,36.5 20.5027053,35.9 21.0027053,35.7 L24.1027053,34.4 C24.6027053,34.2 25.2027053,34.4 25.4027053,34.9 C25.6027053,35.4 25.4027053,36 24.9027053,36.2 L21.8027053,37.5 C21.6027053,37.5 21.5027053,37.6 21.4027053,37.6 Z M37.9027053,18.9 C37.7027053,18.9 37.5027053,18.8 37.3027053,18.7 C36.9027053,18.4 36.8027053,17.7 37.1027053,17.3 L39.1027053,14.6 C39.4027053,14.2 40.1027053,14.1 40.5027053,14.4 C40.9027053,14.7 41.0027053,15.4 40.7027053,15.8 L38.7027053,18.5 C38.5027053,18.8 38.2027053,18.9 37.9027053,18.9 Z M13.7027053,33.9 C13.3027053,33.9 13.0027053,33.7 12.8027053,33.3 C12.6027053,32.8 12.8027053,32.2 13.3027053,32 L16.4027053,30.6 C16.9027053,30.4 17.5027053,30.6 17.7027053,31.1 C17.9027053,31.6 17.7027053,32.2 17.2027053,32.4 L14.1027053,33.8 C14.0027053,33.9 13.9027053,33.9 13.7027053,33.9 Z M13.2027053,42.2 C12.8027053,42.2 12.4027053,41.9 12.2027053,41.5 C12.0027053,41 12.3027053,40.4 12.9027053,40.2 L16.1027053,39.2 C16.6027053,39 17.2027053,39.3 17.4027053,39.9 C17.6027053,40.4 17.3027053,41 16.7027053,41.2 L13.5027053,42.2 L13.2027053,42.2 Z M30.7027053,26.7 L30.4027053,26.7 C29.9027053,26.5 29.6027053,26 29.7027053,25.5 L30.7027053,22.2 C30.9027053,21.7 31.4027053,21.4 31.9027053,21.5 C32.4027053,21.7 32.7027053,22.2 32.6027053,22.7 L31.6027053,26 C31.5027053,26.4 31.1027053,26.7 30.7027053,26.7 Z M13.7027053,26.7 C13.4027053,26.7 13.1027053,26.5 12.9027053,26.3 C12.6027053,25.8 12.7027053,25.2 13.2027053,24.9 L16.0027053,23 C16.5027053,22.7 17.1027053,22.8 17.4027053,23.3 C17.7027053,23.8 17.6027053,24.4 17.1027053,24.7 L14.3027053,26.6 C14.0027053,26.6 13.9027053,26.7 13.7027053,26.7 Z M7.30270532,35.6 L7.00270532,35.6 C6.50270532,35.4 6.20270532,34.9 6.30270532,34.3 L7.30270532,31 C7.50270532,30.5 8.00270532,30.2 8.60270532,30.3 C9.10270532,30.5 9.40270532,31 9.30270532,31.6 L8.30270532,34.9 C8.10270532,35.3 7.70270532,35.6 7.30270532,35.6 Z M23.0027053,30.2 C22.8027053,30.2 22.6027053,30.1 22.4027053,30 C22.0027053,29.7 21.9027053,29 22.2027053,28.6 L24.3027053,25.9 C24.6027053,25.5 25.3027053,25.4 25.7027053,25.7 C26.1027053,26 26.2027053,26.7 25.9027053,27.1 L23.8027053,29.8 C23.6027053,30.1 23.3027053,30.2 23.0027053,30.2 Z" fill="#C38C4F" />
</svg>