<svg viewBox="0 0 24 55">
  <path d="M10.8895994,4 C10.8895993,12.842041 4.97407201,13.6181641 6.15620093,25.2941895 C9.30561499,25.6206055 12.3534666,29.5102539 21.1977048,27.0432129 C21.1977048,27.0432129 21.1977053,19.4503679 21.1977048,19.4503679 C20.2311525,11.557373 16.4745607,8.34716797 16.4745603,4 C16.4745608,4 10.8895994,4.12060543 10.8895994,4 Z" fill="#D3EEFF" />
  <path d="M4.707082,5 L4.707082,5.2656 C4.707082,7.5072 3.63624,10.0504 2.4688,12.793 C1.30136,15.5356 0.0497439963,18.4852 4.99962532e-05,21.672 C-1.66654177e-05,21.6786665 4.99962532e-05,46.692 4.99962532e-05,46.692 C4.99962532e-05,48.2356 0.471911996,49.806 1.363332,51.0592 C2.289308,52.361 3.670856,54.0044 5.707082,54.0044 L18.293018,54.0044 C19.244238,54.0044 20.024662,53.5436 20.753956,52.9928 C21.48325,52.4418 22.141378,51.7556 22.636768,51.0592 C23.528206,49.806 24.00005,48.2356 24.00005,46.692 L24.00005,21.692 C24.00005,18.5522 22.775492,15.6048 21.609426,12.8442 C20.443358,10.0838 19.343794,7.4974 19.293018,5.2466 L19.293018,5 L20.0337334,5 L20.5555633,2.44141102 C20.8297037,1.09727122 19.9339147,0 18.5528429,0 L5.43293202,0 C4.05216812,0 3.2212186,1.07994536 3.57764197,2.41212547 L4.27002504,5 L4.707082,5 Z M7.707082,5 L16.293018,5 L16.293018,5.2656 C16.292922,5.27359971 16.292922,5.28160029 16.293018,5.2896 C16.356978,8.125 17.611392,10.8758 18.769582,13.6176 C19.92777,16.3594 21.00005,19.0808 21.00005,21.688 L21.00005,45.688 C21.00005,46.8072 20.621902,48.0318 20.007862,48.895 C19.645,49.4052 19.094384,49.9844 18.550832,50.395 C18.007278,50.8056 17.450984,51.0004 17.293018,51.0004 L6.707082,51.0004 C5.915406,51.0004 4.782782,50.0064 3.992238,48.895 C3.378204,48.0314 3.00005,46.8068 3.00005,45.6876 L3.00005,21.7032 C3.04171,19.0316 4.145982,16.3096 5.308644,13.5782 C6.471306,10.8468 7.707082,8.1118 7.707082,5.2656 L7.707082,5 L7.707082,5 Z M13.953174,8.004 C13.6720194,8.01768094 13.4096475,8.14921275 13.2304673,8.36630612 C13.051287,8.58339948 12.9718903,8.86595172 13.011768,9.1446 C13.011768,9.1446 13.264034,11.3364 13.714894,12.6524 C14.122794,13.843 15.128956,15.4962 15.128956,15.4962 C15.3096713,15.8046727 15.6412393,15.9932898 15.998742,15.99099 C16.3562446,15.9886901 16.6853586,15.7958228 16.8620902,15.4850506 C17.0388219,15.1742784 17.0363165,14.7928239 16.855518,14.4844 C16.855518,14.4844 15.844922,12.6914 15.609426,12.004 C15.330834,11.1908 14.992238,8.8868 14.992238,8.8868 C14.9312221,8.36545257 14.4775304,7.97999123 13.953174,8.004 L13.953174,8.004 Z" fill="#5FB5EB" />
</svg>