<svg viewBox="0 0 45 40">
  <path d="M5.9154725,14.1135147 L20.7809952,4.49074328 C21.7764543,3.82710387 22.9710052,3.49528417 24.1655562,3.49528417 C25.3601071,3.49528417 26.554658,3.82710387 27.5501171,4.49074328 L42.4156398,14.1135147 C43.6101908,14.909882 44.3401941,16.2371608 44.3401941,17.6971675 C44.3401941,18.0289872 44.3401941,18.3608069 44.2738302,18.6926266 L36.7747049,12.1889604 C36.3765212,11.8571407 35.7128818,11.8571407 35.3810621,12.3216883 C35.0492424,12.7198719 35.0492424,13.3835113 35.51379,13.715331 L44.2074662,21.2144563 L44.2738302,23.2717385 C44.3401941,24.3335615 43.9420105,25.3953846 43.2783711,26.1917519 L42.4820038,27.0544831 L34.1865112,14.9762459 C33.8546915,14.5116983 33.257416,14.4453344 32.7928684,14.7107901 C32.3283209,15.0426098 32.2619569,15.6398853 32.5274127,16.1044329 L41.3538168,28.6472177 L40.6238134,30.3063162 C40.2919937,31.0363195 39.8274461,31.633595 39.1638067,32.0317786 L36.9737967,33.4917853 L30.8019502,17.0335281 C30.6028584,16.5026165 30.0055829,16.2371608 29.5410354,16.4362526 C29.0101238,16.6353444 28.7446681,17.2326199 28.9437599,17.6971675 L35.3810621,34.7527002 L34.0537833,36.079979 C33.4565078,36.6772545 32.6601406,37.0754381 31.7974093,37.208166 L29.5410354,37.5399857 L27.1519335,18.161715 C27.0855695,17.6308035 26.554658,17.2326199 26.0237465,17.2989838 C25.492835,17.3653478 25.0946513,17.8298953 25.1610153,18.4271708 L27.5501171,37.8718054 L26.0901104,38.2036251 C24.8291956,38.4690809 23.6346446,38.4690809 22.3737298,38.2036251 L20.9137231,37.8718054 L23.3028249,18.4271708 C23.3691889,17.8962593 22.9710052,17.3653478 22.4400937,17.2989838 C21.9091822,17.2326199 21.3782707,17.6308035 21.3119067,18.161715 L18.9228049,37.5399857 L16.7327948,37.208166 C15.8700636,37.0754381 15.1400602,36.6772545 14.4764208,36.079979 L13.149142,34.7527002 L19.5864443,17.6971675 C19.7855361,17.1662559 19.5200803,16.6353444 18.9891688,16.4362526 C18.4582573,16.2371608 17.9273457,16.5026165 17.7282539,17.0335281 L11.4900435,33.4917853 L9.36639741,32.0317786 C8.702758,31.633595 8.23821042,30.9699556 7.90639071,30.3063162 L7.17638737,28.6472177 L16.0027915,16.1044329 C16.3346112,15.6398853 16.2018833,15.0426098 15.7373357,14.7107901 C15.2727881,14.3789704 14.6755127,14.5116983 14.343693,14.9762459 L5.84910856,26.9217552 L5.05274127,26.059024 C4.32273792,25.2626567 3.99091822,24.2671976 4.05728216,23.1390106 L4.1236461,21.0817284 L12.8173223,13.5826031 C13.215506,13.2507834 13.2818699,12.587144 12.9500502,12.1889604 C12.6182305,11.7907767 11.9545911,11.7244128 11.5564074,12.0562325 L4.05728216,18.5598987 C4.05728216,18.228079 3.99091822,17.8962593 3.99091822,17.5644396 C3.99091822,16.2371608 4.72092156,14.909882 5.9154725,14.1135147 L5.9154725,14.1135147 Z" fill="#FFD5CA" />
  <path d="M0.0663639406,22.1390106 C9.43088318e-15,23.7317452 0.530911525,25.2581158 1.59273457,26.4526667 L3.11910521,28.1117652 L4.04820038,30.1690474 C4.51274796,31.2308704 5.24275131,32.0936017 6.23821042,32.7572411 L9.35731563,34.8145232 L11.0827781,36.5399857 C12.0118732,37.4027169 13.1400602,37.9999924 14.4009751,38.1990842 L17.5864443,38.6636318 L19.9755461,39.1945433 C20.7055495,39.3272712 21.5019168,39.4599991 22.2319201,39.4599991 C22.9619234,39.4599991 23.7582907,39.3936351 24.4882941,39.1945433 L26.8773959,38.7299957 L30.0628651,38.2654482 C31.32378,38.0663563 32.451967,37.5354448 33.3810621,36.6063496 L35.1065246,34.8808872 L38.2256298,32.823605 C39.154725,32.1599656 39.9510922,31.2972344 40.4156398,30.2354113 L41.344735,28.1781292 L42.8711056,26.5190307 C43.9329287,25.3244797 44.4638402,23.7981091 44.3974763,22.2053745 L44.2647484,19.8162727 C44.3974763,18.8208136 44.4638402,17.8253544 44.4638402,16.7635314 C44.4638402,14.6398853 43.4020172,12.6489671 41.6101908,11.5207801 L33.4474261,6.21166484 C34.0447015,4.88438603 34.2437934,3.55710722 34.3101573,2.56164811 C34.3765212,1.83164476 34.1110655,1.16800535 33.5801539,0.63709383 C33.0492424,0.106182305 32.3192391,-0.0929095168 31.5892357,0.0398183644 L24.8201138,1.03527747 C23.9573826,0.769821711 23.0946513,0.63709383 22.2319201,0.63709383 C21.3691889,0.63709383 20.4400937,0.769821711 19.6437264,1.03527747 L12.8746045,0.0398183644 C12.1446011,-0.0929095168 11.4145978,0.172546246 10.8836863,0.63709383 C10.3527747,1.16800535 10.087319,1.83164476 10.1536829,2.56164811 C10.2200469,3.55710722 10.4855026,4.95074997 11.0164141,6.21166484 L2.85364945,11.5207801 C1.06182305,12.6489671 0,14.6398853 0,16.7635314 C0,17.7589905 0.0663639406,18.8208136 0.199091822,19.8162727 L0.0663639406,22.1390106 L0.0663639406,22.1390106 Z M31.8546915,1.8980087 C31.9874194,1.8980087 32.1201473,1.96437264 32.1865112,2.03073658 C32.2528751,2.09710052 32.3192391,2.16346446 32.3192391,2.36255629 C32.2528751,3.09255963 32.1201473,4.15438268 31.7219636,5.14984179 L27.8064911,2.62801205 L31.8546915,1.8980087 L31.8546915,1.8980087 Z M12.277329,1.96437264 C12.343693,1.8980087 12.4100569,1.83164476 12.6091487,1.83164476 L16.723713,2.42892023 L12.8082405,4.95074997 C12.4100569,3.95529086 12.277329,2.95983175 12.2109651,2.16346446 C12.1446011,2.16346446 12.2109651,2.03073658 12.277329,1.96437264 L12.277329,1.96437264 Z M3.9154725,13.1135147 L18.7809952,3.49074328 C19.7764543,2.82710387 20.9710052,2.49528417 22.1655562,2.49528417 C23.3601071,2.49528417 24.554658,2.82710387 25.5501171,3.49074328 L40.4156398,13.1135147 C41.6101908,13.909882 42.3401941,15.2371608 42.3401941,16.6971675 C42.3401941,17.0289872 42.3401941,17.3608069 42.2738302,17.6926266 L34.7747049,11.1889604 C34.3765212,10.8571407 33.7128818,10.8571407 33.3810621,11.3216883 C33.0492424,11.7198719 33.0492424,12.3835113 33.51379,12.715331 L42.2074662,20.2144563 L42.2738302,22.2717385 C42.3401941,23.3335615 41.9420105,24.3953846 41.2783711,25.1917519 L40.4820038,26.0544831 L32.1865112,13.9762459 C31.8546915,13.5116983 31.257416,13.4453344 30.7928684,13.7107901 C30.3283209,14.0426098 30.2619569,14.6398853 30.5274127,15.1044329 L39.3538168,27.6472177 L38.6238134,29.3063162 C38.2919937,30.0363195 37.8274461,30.633595 37.1638067,31.0317786 L34.9737967,32.4917853 L28.8019502,16.0335281 C28.6028584,15.5026165 28.0055829,15.2371608 27.5410354,15.4362526 C27.0101238,15.6353444 26.7446681,16.2326199 26.9437599,16.6971675 L33.3810621,33.7527002 L32.0537833,35.079979 C31.4565078,35.6772545 30.6601406,36.0754381 29.7974093,36.208166 L27.5410354,36.5399857 L25.1519335,17.161715 C25.0855695,16.6308035 24.554658,16.2326199 24.0237465,16.2989838 C23.492835,16.3653478 23.0946513,16.8298953 23.1610153,17.4271708 L25.5501171,36.8718054 L24.0901104,37.2036251 C22.8291956,37.4690809 21.6346446,37.4690809 20.3737298,37.2036251 L18.9137231,36.8718054 L21.3028249,17.4271708 C21.3691889,16.8962593 20.9710052,16.3653478 20.4400937,16.2989838 C19.9091822,16.2326199 19.3782707,16.6308035 19.3119067,17.161715 L16.9228049,36.5399857 L14.7327948,36.208166 C13.8700636,36.0754381 13.1400602,35.6772545 12.4764208,35.079979 L11.149142,33.7527002 L17.5864443,16.6971675 C17.7855361,16.1662559 17.5200803,15.6353444 16.9891688,15.4362526 C16.4582573,15.2371608 15.9273457,15.5026165 15.7282539,16.0335281 L9.49004351,32.4917853 L7.36639741,31.0317786 C6.702758,30.633595 6.23821042,29.9699556 5.90639071,29.3063162 L5.17638737,27.6472177 L14.0027915,15.1044329 C14.3346112,14.6398853 14.2018833,14.0426098 13.7373357,13.7107901 C13.2727881,13.3789704 12.6755127,13.5116983 12.343693,13.9762459 L3.84910856,25.9217552 L3.05274127,25.059024 C2.32273792,24.2626567 1.99091822,23.2671976 2.05728216,22.1390106 L2.1236461,20.0817284 L10.8173223,12.5826031 C11.215506,12.2507834 11.2818699,11.587144 10.9500502,11.1889604 C10.6182305,10.7907767 9.95459109,10.7244128 9.55640745,11.0562325 L2.05728216,17.5598987 C2.05728216,17.228079 1.99091822,16.8962593 1.99091822,16.5644396 C1.99091822,15.2371608 2.72092156,13.909882 3.9154725,13.1135147 L3.9154725,13.1135147 Z" fill="#F17150" />
</svg>