<svg viewBox="0 0 20 40">
  <rect fill="#F9F5D3" x="5" y="15" width="14" height="24" />
  <path d="M17.5185392,9.43019063 C17.5185392,7.6398058 15.8812096,6.1824561 13.8665178,6.17687747 L11.3352205,0.930656541 C11.1848138,0.383596968 10.6336217,-1.09927319e-16 9.99990033,-1.09927319e-16 C9.36627861,-1.09927319e-16 8.81498684,0.383596968 8.66467985,0.930656541 L6.13338251,6.17687747 C4.11879037,6.1824561 2.48136114,7.6398058 2.48136114,9.43019063 L2.48136114,11.8745144 C1.08394466,11.8745144 0,12.8382 0,14.0258275 L0,37.8486869 C0,39.0363144 1.08394466,40 2.42155729,40 L17.5784427,40 C18.916155,40 20,39.0362259 20,37.8486869 L20,14.0258275 C20,12.8382 18.916155,11.8745144 17.5784427,11.8745144 L17.5185392,9.43019063 Z M4.96441671,9.43019063 C4.96441671,8.85143029 5.49388007,8.38176309 6.14444622,8.38176309 L13.8554541,8.38176309 C14.5061199,8.38176309 15.0354836,8.85143029 15.0354836,9.43019063 L15.0354836,11.8745144 L4.96441671,11.8745144 L4.96441671,9.43019063 Z M13.5360739,21.0658768 C12.1984612,21.0658768 11.1145166,22.0295623 11.1145166,23.2171899 L11.1145166,28.6573245 C11.1145166,29.8449521 12.1984612,30.8086376 13.5360739,30.8086376 L17.5170441,30.8086376 L17.5170441,37.7940518 L2.4829559,37.7940518 L2.4829559,14.0804627 L17.5170441,14.0804627 L17.5170441,21.0658768 L13.5360739,21.0658768 Z" fill="#EEBD3A" />
</svg>