<svg viewBox="0 0 43 39">
  <defs>
    <path d="M39.5853693,18.6744988 C40.5923254,20.3042185 41.7179032,21.7498091 41.9011471,23.6977712 C42.1591934,26.4389049 42.086604,29.1534815 41.3523007,31.8127309 C41.0964674,32.7404583 40.8667486,33.9771332 39.7022205,34.0510504 C38.3540059,34.1364757 38.1167626,32.7935725 37.8436673,31.8335339 C36.8212195,28.2403605 36.8021869,24.6095645 37.7945366,21.0017846 C38.0357635,20.1236304 38.3278914,19.2007717 39.5853693,18.6744988 Z M33.2625703,25.0057076 C34.202691,26.1361542 34.0327257,27.0979632 33.8251378,27.9770027 C32.952295,31.6702078 31.2234288,34.9261063 28.5756876,37.6592729 C27.8953836,38.3612651 27.072114,39.2938614 26.033732,38.7680311 C24.9506456,38.2196274 25.3463462,36.9789689 25.5406555,36.0600938 C26.1913041,32.9812426 27.5364204,30.1617655 29.5313,27.7632182 C30.4754043,26.6274602 31.9599453,25.9409596 33.2625703,25.0057076 Z M13.1978081,1.5460649 C13.5470338,3.80917107 14.0511757,5.91957401 13.1004321,8.02510815 C12.4139315,9.54550121 11.7517749,11.0813859 10.9771933,12.5566319 C10.5801649,13.3126236 10.0091876,13.9969111 9.42581696,14.6298549 C8.89290481,15.2083567 8.250666,15.9059228 7.36941343,15.5066813 C6.51958674,15.1216036 6.4695709,14.1695321 6.53375052,13.3900817 C6.87279596,9.27107801 8.26748548,5.55574196 11.0170289,2.41802249 C11.635809,1.7124893 11.6836117,1.75409539 13.1978081,1.5460649 Z M27.3987661,9.02985116 C29.3449578,8.78685384 31.1145448,8.00164939 33.0992442,8.58147906 C35.4915949,9.28037299 37.8529622,10.0385777 39.9394638,11.4306115 C40.6476527,11.902885 41.3027274,12.5163537 41.8263446,13.18692 C42.3490765,13.8561585 42.1113906,14.508135 41.3049405,14.8051317 C40.7959298,14.9928017 40.2130018,15.0658337 39.6668111,15.0525552 C35.7089203,14.9573923 32.1276976,13.6888489 28.8868481,11.4500867 C28.1773313,10.9601085 27.5107485,10.3745248 27.3987661,9.02985116 Z M16.2390368,12.4596986 C17.3256642,13.0798065 17.4690725,13.9601738 17.5106785,14.8100005 C17.7049879,18.7948909 16.805588,22.534571 14.7845939,25.9768117 C14.3282547,26.754049 13.7581626,27.7570215 12.6865843,27.4485167 C11.6397925,27.1470938 11.665907,26.0170899 11.6052683,25.0960017 C11.4065328,22.0826579 12.0478864,19.2016569 13.0734324,16.3976715 C13.6895568,14.7130671 15.1727699,13.7565695 16.2390368,12.4596986 Z M23.7281345,32.3735279 C22.3949689,33.7248409 21.2822271,35.0792522 19.6082456,35.6608523 C16.9684714,36.577957 14.2441572,37.1352131 11.4264506,36.9692313 C10.7589826,36.9298383 10.0658427,36.789971 9.44971834,36.5372361 C8.50517138,36.1499453 8.34936982,35.3837734 9.06109967,34.622913 C9.51611105,34.1364757 10.0831048,33.7106771 10.6757704,33.4039428 C13.7506381,31.8109604 17.0432739,31.0753292 20.4987931,31.1204762 C21.6013547,31.1341974 22.7092277,31.2753925 23.7281345,32.3735279 Z M0.858501679,16.4206876 C2.64535081,17.5706094 4.23479228,18.7364653 5.01645579,20.7910984 C5.89992145,23.1130728 6.7856002,25.4235391 6.91750038,27.9296426 C6.97459811,29.0087454 7.25831629,30.4264511 5.96719939,30.836758 C4.82790049,31.1992622 4.12280991,30.0130458 3.54519334,29.164547 C1.45116727,26.0879088 0.172443677,22.7036511 0.0232813884,18.9533482 C-0.00991496651,18.1185705 -0.135175879,17.1996954 0.858501679,16.4206876 Z M21.9142857,0 C22.9929459,1.56111392 24.1570314,3.04963847 24.3269968,5.07328827 C24.5509615,7.74183259 24.6363868,10.4024098 23.8989851,13.005004 C23.6236767,13.9765507 23.4647768,15.3291915 22.1338242,15.2920116 C20.9865582,15.2601431 20.6953155,14.0252387 20.4182366,13.10238 C19.3258552,9.46671519 19.1758077,5.78900168 20.1973702,2.10774723 C20.4403675,1.23446179 20.6833648,0.289914833 21.9142857,0 Z M33.5715177,19.0153147 C33.7388273,20.3657424 33.0868509,20.9013103 32.4468252,21.3625183 C29.0448627,23.8146224 25.2529538,25.13628 21.0383445,25.1685911 C20.7922489,25.1703615 20.5426123,25.1429192 20.3005002,25.0973296 C18.9106795,24.8357423 18.5911092,23.9558176 19.5387545,22.8727312 C19.9402091,22.4141789 20.4399249,22.0206914 20.9515914,21.6825312 C23.4094495,20.0572377 26.1333211,18.9830036 29.0134368,18.557205 C30.4674372,18.3420926 32.0272233,18.8373823 33.5715177,19.0153147 Z" id="path-1" />
  </defs>
  <mask id="mask-2" fill="white">
    <use xlink:href="#path-1" />
  </mask>
  <use fill="#E0C19E" xlink:href="#path-1" />
  <path d="M42.0228693,19.8932488 C43.0298254,21.5229685 44.1554032,22.9685591 44.3386471,24.9165212 C44.5966934,27.6576549 44.524104,30.3722315 43.7898007,33.0314809 C43.5339674,33.9592083 43.3042486,35.1958832 42.1397205,35.2698004 C40.7915059,35.3552257 40.5542626,34.0123225 40.2811673,33.0522839 C39.2587195,29.4591105 39.2396869,25.8283145 40.2320366,22.2205346 C40.4732635,21.3423804 40.7653914,20.4195217 42.0228693,19.8932488 Z M35.7000703,26.2244576 C36.640191,27.3549042 36.4702257,28.3167132 36.2626378,29.1957527 C35.389795,32.8889578 33.6609288,36.1448563 31.0131876,38.8780229 C30.3328836,39.5800151 29.509614,40.5126114 28.471232,39.9867811 C27.3881456,39.4383774 27.7838462,38.1977189 27.9781555,37.2788438 C28.6288041,34.1999926 29.9739204,31.3805155 31.9688,28.9819682 C32.9129043,27.8462102 34.3974453,27.1597096 35.7000703,26.2244576 Z M15.6353081,2.7648149 C15.9845338,5.02792107 16.4886757,7.13832401 15.5379321,9.24385815 C14.8514315,10.7642512 14.1892749,12.3001359 13.4146933,13.7753819 C13.0176649,14.5313736 12.4466876,15.2156611 11.863317,15.8486049 C11.3304048,16.4271067 10.688166,17.1246728 9.80691343,16.7254313 C8.95708674,16.3403536 8.9070709,15.3882821 8.97125052,14.6088317 C9.31029596,10.489828 10.7049855,6.77449196 13.4545289,3.63677249 C14.073309,2.9312393 14.1211117,2.97284539 15.6353081,2.7648149 Z M29.8362661,10.2486012 C31.7824578,10.0056038 33.5520448,9.22039939 35.5367442,9.80022906 C37.9290949,10.499123 40.2904622,11.2573277 42.3769638,12.6493615 C43.0851527,13.121635 43.7402274,13.7351037 44.2638446,14.40567 C44.7865765,15.0749085 44.5488906,15.726885 43.7424405,16.0238817 C43.2334298,16.2115517 42.6505018,16.2845837 42.1043111,16.2713052 C38.1464203,16.1761423 34.5651976,14.9075989 31.3243481,12.6688367 C30.6148313,12.1788585 29.9482485,11.5932748 29.8362661,10.2486012 Z M18.6765368,13.6784486 C19.7631642,14.2985565 19.9065725,15.1789238 19.9481785,16.0287505 C20.1424879,20.0136409 19.243088,23.753321 17.2220939,27.1955617 C16.7657547,27.972799 16.1956626,28.9757715 15.1240843,28.6672667 C14.0772925,28.3658438 14.103407,27.2358399 14.0427683,26.3147517 C13.8440328,23.3014079 14.4853864,20.4204069 15.5109324,17.6164215 C16.1270568,15.9318171 17.6102699,14.9753195 18.6765368,13.6784486 Z M26.1656345,33.5922779 C24.8324689,34.9435909 23.7197271,36.2980022 22.0457456,36.8796023 C19.4059714,37.796707 16.6816572,38.3539631 13.8639506,38.1879813 C13.1964826,38.1485883 12.5033427,38.008721 11.8872183,37.7559861 C10.9426714,37.3686953 10.7868698,36.6025234 11.4985997,35.841663 C11.953611,35.3552257 12.5206048,34.9294271 13.1132704,34.6226928 C16.1881381,33.0297104 19.4807739,32.2940792 22.9362931,32.3392262 C24.0388547,32.3529474 25.1467277,32.4941425 26.1656345,33.5922779 Z M3.29600168,17.6394376 C5.08285081,18.7893594 6.67229228,19.9552153 7.45395579,22.0098484 C8.33742145,24.3318228 9.2231002,26.6422891 9.35500038,29.1483926 C9.41209811,30.2274954 9.69581629,31.6452011 8.40469939,32.055508 C7.26540049,32.4180122 6.56030991,31.2317958 5.98269334,30.383297 C3.88866727,27.3066588 2.60994368,23.9224011 2.46078139,20.1720982 C2.42758503,19.3373205 2.30232412,18.4184454 3.29600168,17.6394376 Z M24.3517857,1.21875 C25.4304459,2.77986392 26.5945314,4.26838847 26.7644968,6.29203827 C26.9884615,8.96058259 27.0738868,11.6211598 26.3364851,14.223754 C26.0611767,15.1953007 25.9022768,16.5479415 24.5713242,16.5107616 C23.4240582,16.4788931 23.1328155,15.2439887 22.8557366,14.32113 C21.7633552,10.6854652 21.6133077,7.00775168 22.6348702,3.32649723 C22.8778675,2.45321179 23.1208648,1.50866483 24.3517857,1.21875 Z M36.0090177,20.2340647 C36.1763273,21.5844924 35.5243509,22.1200603 34.8843252,22.5812683 C31.4823627,25.0333724 27.6904538,26.35503 23.4758445,26.3873411 C23.2297489,26.3891115 22.9801123,26.3616692 22.7380002,26.3160796 C21.3481795,26.0544923 21.0286092,25.1745676 21.9762545,24.0914812 C22.3777091,23.6329289 22.8774249,23.2394414 23.3890914,22.9012812 C25.8469495,21.2759877 28.5708211,20.2017536 31.4509368,19.775955 C32.9049372,19.5608426 34.4647233,20.0561323 36.0090177,20.2340647 Z" fill="#F6DFC2" mask="url(#mask-2)" />
</svg>