<svg viewBox="0 0 37 37">
  <path d="M5.06958008,17.9172362 C5.06958008,17.9172362 5.75976563,25.2426756 4.18505859,17.9172363 C2.61035156,10.591797 12.3210444,6.89607597 15.9941406,9.86083988 C20.3061523,13.3413086 17.0554199,12.8347168 17.3305664,13.6264646 C16.9363037,13.9147586 16.0622559,13.6240232 14.0705566,14.6364744 C12.0788574,15.6489256 8.04345703,20.4174121 8.04345703,20.4174121 L6.99780274,25.1875003 L5.06958008,17.9172362 Z" fill="#F4FBE8" />
  <path d="M12.0695801,24.9172362 C12.0695801,24.9172362 12.7597656,32.2426756 11.1850586,24.9172363 C9.61035156,17.591797 19.3210444,13.896076 22.9941406,16.8608399 C23.5907271,17.3423786 22.6682656,18.7336312 22.9941409,19.2143555 C23.8300656,20.447494 23.2113232,21.5428763 22.9941409,22.4931639 C22.6840402,23.8500185 22.2984856,24.9448077 20.5078127,26.0102542 C16.9741209,28.1127932 12.5544434,26.0102542 12.5544434,26.0102542 L13.9978027,32.1875003 L12.0695801,24.9172362 Z" fill="#F4FBE8" />
  <path d="M21.0695801,33.9172362 C21.0695801,33.9172362 10.9067384,27.1412354 15.8892822,27.8057862 C20.8718261,28.470337 22.5500489,26.4348146 23.8981935,21.8913574 C24.1282448,21.1160488 30.1467811,25.5441779 30.4726564,26.0249021 C31.3085811,27.2580406 29.7249949,30.9154349 29.5078126,31.8657224 C29.1977119,33.2225771 29.2813956,33.4540845 27.4907228,34.519531 C23.9570309,36.6220701 24.4848634,35.1489256 24.4848634,35.1489256 L21.0695801,33.9172362 Z" fill="#F4FBE8" />
  <path d="M15.9630985,13.6148562 C15.9630985,13.9652497 15.9216668,14.3140156 15.8721708,14.66034 C16.1035963,14.6140993 16.3410885,14.6140993 16.5762133,14.6149872 C16.7588826,14.615579 16.9416258,14.6244573 17.1235553,14.6414738 C17.4784619,14.6748411 17.8304832,14.7396521 18.1738482,14.8354628 C18.8411201,15.0216834 19.4744328,15.3252444 20.0381995,15.7277235 C20.5950855,16.1253936 21.0830175,16.6183565 21.4748427,17.1793118 C21.6719391,17.461491 21.8447684,17.7606129 21.9905191,18.0724602 C22.0674636,18.2370032 22.1390812,18.3999184 22.179995,18.5764469 C22.2170615,18.7363288 22.2925264,18.8874064 22.3412086,19.0441069 C22.4725322,19.4663401 22.5451856,19.9356278 22.5475531,20.3779109 C22.5489588,20.6286465 22.5286869,20.87953 22.4849617,21.1264924 C22.3813825,21.7117148 22.1421886,22.2662333 21.7912031,22.7457309 C21.5767942,23.0386381 21.323987,23.3022471 21.0467647,23.5362621 C20.8885106,23.6698792 20.72234,23.7939523 20.5503985,23.9092951 C20.3940679,24.014206 20.2367016,24.1049118 20.1145521,24.2514763 C19.9041384,24.5040615 19.8069219,24.8479444 19.8690695,25.1722952 C19.9370618,25.526758 20.1886112,25.8263238 20.5260574,25.9531343 C20.6996265,26.0183152 20.8879927,26.039031 21.0715498,26.0138021 C21.1672125,26.0006327 21.2608037,25.9760697 21.3523233,25.9457358 C21.4689239,25.9069676 21.5637728,25.8540682 21.6658723,25.7865938 C22.0139723,25.5562781 22.3454257,25.3003635 22.6521681,25.0172964 C23.1838252,24.526627 23.6387598,23.9531683 23.9779076,23.3133449 C24.2680033,22.7660769 24.4714624,22.1747137 24.5836979,21.5656681 C25.901669,21.8457018 27.1034094,22.5784506 27.9602312,23.6177937 C28.8325159,24.675855 29.3175624,26.0197209 29.3271805,27.3905174 C29.3302138,27.8199271 29.2874504,28.2494108 29.1997041,28.6697203 L29.1908998,28.6609161 C28.8740215,30.2453816 27.8952723,31.6482136 26.5311344,32.5100664 C25.214717,33.3416593 23.5896337,33.6261321 22.0673156,33.3019292 C20.7881127,33.029516 19.617668,32.3304305 18.7671349,31.3374021 C17.9049122,30.3307604 17.3966344,29.0485241 17.333673,27.7247082 C17.3144369,27.3203055 17.3512075,26.9233013 17.4176462,26.5244475 C16.9686304,26.5993944 16.5301945,26.630986 16.0755559,26.5955472 C15.6442966,26.5620319 15.2212496,26.4791686 14.8067109,26.3567232 C13.9570657,26.1057656 13.1607638,25.6465399 12.5086588,25.0480742 C11.8533725,24.4466491 11.3331091,23.705762 10.9968467,22.8817896 C10.9787943,22.8376205 10.9614818,22.7931554 10.9443912,22.7486164 C10.9412839,22.6951991 10.9337374,22.6420038 10.9218998,22.5898443 C10.9089524,22.5328757 10.8877926,22.4799024 10.8690744,22.4249314 C10.8616759,22.4034018 10.8544993,22.3817981 10.8474707,22.3601205 C10.8180986,22.2686748 10.7922038,22.1760455 10.7689725,22.0828242 C10.5709143,21.2891117 10.5506424,20.4379868 10.7606122,19.6447922 C10.9080645,19.0878322 11.1727833,18.5666809 11.5351625,18.1187009 C11.7503852,17.8527244 11.9974956,17.6133825 12.2658396,17.4014151 C12.5429139,17.1824931 12.8942693,17.0283081 13.0773085,16.7132794 C13.4254826,16.1139259 13.119554,15.312075 12.4474731,15.1220812 C12.1071415,15.0258266 11.7784996,15.1072842 11.4868502,15.2936528 C11.1367526,15.5173098 10.8041894,15.7690072 10.497669,16.0495588 C9.51144724,16.9519554 8.84239971,18.1437079 8.57930859,19.4535407 C6.8468728,19.0458826 5.35392686,17.8519845 4.57197803,16.2533879 C3.86046304,14.7989882 3.77064509,13.0759485 4.32494168,11.5551841 C4.7726257,10.326809 5.62744989,9.26297686 6.72827463,8.55804655 C7.86660984,7.82907107 9.23814617,7.50878944 10.58216,7.64603185 C11.8937684,7.78001892 13.1407138,8.35443947 14.0965277,9.262311 C15.0479764,10.1661133 15.6859502,11.3757702 15.8897793,12.6725076 C15.9387574,12.984059 15.9630985,13.2994576 15.9630985,13.6148562 M36.3730063,33.1157087 C35.9504032,32.8589063 35.5278002,32.6022519 35.1051971,32.3454495 C34.2931363,31.8519687 33.4809276,31.3584879 32.6688668,30.865081 C32.150601,30.5501263 31.6323351,30.2353196 31.1140693,29.9203649 C31.1039333,29.9142981 31.0939454,29.9081574 31.0838094,29.9020166 C31.0769288,29.8977994 31.1472146,29.6907151 31.1532814,29.6694074 C31.185391,29.556506 31.215059,29.4429389 31.2422855,29.3287058 C31.3485282,28.8820576 31.4167425,28.4265312 31.4464105,27.9684892 C31.4943529,27.2292298 31.4428592,26.4834597 31.2908938,25.7582575 C31.0170008,24.4505703 30.4143919,23.2199016 29.5538709,22.198315 C28.6983069,21.1826471 27.5961504,20.3817581 26.3654817,19.8826544 C26.0514149,19.755326 25.7295056,19.6475297 25.4021214,19.5600053 C25.2363947,19.5157621 25.0692623,19.476624 24.9010941,19.4428128 C24.8197104,19.4264621 24.7381048,19.4113691 24.6563512,19.3974599 C24.6219482,19.3916151 24.6169912,19.4007153 24.6109984,19.362169 C24.6066332,19.3339807 24.6021201,19.3057923 24.5973111,19.277678 C24.5865093,19.213089 24.5746717,19.1487219 24.5619462,19.0845028 C24.4170094,18.3556753 24.1695291,17.6363919 23.8374098,16.9718574 C23.2127534,15.7221006 22.2664096,14.6391803 21.1147571,13.8486492 C20.5364893,13.4517929 19.9075417,13.1289218 19.2470025,12.8932052 C18.9124417,12.7737932 18.5699646,12.6767247 18.2225304,12.6031835 C18.1805068,12.5943053 18.1384093,12.585723 18.0963118,12.5775107 C18.0684194,12.5720358 18.055324,12.5795823 18.0514768,12.5487305 C18.0488133,12.5280886 18.0461498,12.5074468 18.0434124,12.4868049 C18.0315008,12.3978008 18.0181095,12.3089447 18.0032385,12.2203105 C17.9748282,12.0513284 17.9411649,11.8833082 17.9021748,11.7163977 C17.5985398,10.4176628 16.9696662,9.20297492 16.0883553,8.20217807 C15.2155528,7.21107328 14.1032603,6.43711484 12.8691884,5.96634746 C11.4710914,5.43291467 9.93094293,5.29693 8.45997058,5.57074897 C8.02234854,5.6522066 7.59153313,5.76976897 7.17314722,5.92195638 C7.15243138,5.91233831 7.12631463,5.84663952 7.11477295,5.82814323 C6.97856633,5.60922124 6.84243369,5.39022525 6.70622706,5.17130325 L5.26558862,2.85527275 L4.03018492,0.869141949 C3.93023101,0.708520232 3.83908134,0.544421215 3.70287471,0.41050813 C3.31423083,0.0287448613 2.70008026,-0.100951071 2.18810317,0.081644229 C1.92486408,0.175531358 1.69824762,0.353687551 1.54887165,0.590291995 C1.44166719,0.760013883 1.39083941,0.957702149 1.33557252,1.14895371 C1.27860397,1.34605009 1.22999574,1.54544002 1.18878602,1.74638363 C1.11650255,2.09855285 1.0690041,2.45493922 1.01003795,2.80932799 C0.996054758,2.89330111 0.981331717,2.97712626 0.965424914,3.06072946 C0.95728655,3.10334489 0.948852245,3.14588634 0.940122,3.18835381 C0.933315368,3.22120321 0.906680721,3.28083522 0.925620915,3.30924551 C0.939678089,3.33033127 0.90867832,3.4177817 0.903647331,3.44404642 C0.827738588,3.84223438 0.756786849,4.24138416 0.690422187,4.6411998 C0.614291489,5.10049948 0.544301556,5.56076098 0.480378404,6.0218363 C0.409278695,6.53455325 0.345725468,7.04837998 0.289866696,7.56294655 C0.229198889,8.12168225 0.177557269,8.68137976 0.135385745,9.24181712 C0.090402786,9.8389511 0.0562216561,10.4369729 0.0333602511,11.0353646 C0.00938906906,11.6635724 -0.0020046409,12.292298 0.000288898117,12.9209496 C0.00258243714,13.5728326 0.0195250318,14.2246416 0.0525223996,14.8756368 C0.086407589,15.5437965 0.137161388,16.2111423 0.20655944,16.8765646 C0.277289224,17.5538245 0.367329126,18.2290868 0.478898702,18.9008717 C0.591726025,19.5801292 0.726600916,20.2558354 0.8858909,20.9256968 C1.04629066,21.5999972 1.23147544,22.2684529 1.4441087,22.9282523 C1.6575558,23.5907151 1.89867334,24.2444477 2.16982884,24.8856029 C2.44224209,25.5296434 2.74491525,26.1608845 3.07962398,26.7748871 C3.41699617,27.3937727 3.78692182,27.9949019 4.18991882,28.5733177 C4.59876065,29.1602417 5.04170962,29.7235645 5.51713806,30.2579591 C6.00440412,30.8058189 6.52585132,31.3233449 7.0777064,31.8060979 C7.65057326,32.3071992 8.25599358,32.770864 8.88812252,33.1947248 C9.55354478,33.6408551 10.2482651,34.0427424 10.9648111,34.4009783 C11.7294474,34.7833335 12.5187208,35.1158227 13.3241969,35.4021451 C14.194336,35.711477 15.0831934,35.9669476 15.9827786,36.1752897 C16.9638954,36.4024241 17.9576636,36.5735517 18.9569068,36.6974768 C20.0541802,36.8336094 21.1581863,36.9129215 22.2631543,36.9460668 C23.4813934,36.9824675 24.7010383,36.9626395 25.9179457,36.8979025 C27.2618116,36.8263589 28.6026441,36.7000663 29.9376318,36.5303444 C31.4120814,36.34294 32.8795025,36.1025623 34.3387112,35.820531 C34.7661233,35.7379636 35.1959769,35.6735966 35.6206515,35.5764541 C35.7751325,35.5410152 35.9284297,35.5008413 36.0827626,35.4655504 C36.2037283,35.437806 36.3188492,35.3870522 36.4225763,35.3192818 C36.8661912,35.0293341 37.0874807,34.4549135 36.9628897,33.9416787 C36.8801004,33.6008292 36.6540758,33.318058 36.3730063,33.1157087" fill="#A1C36C" />
</svg>