<svg viewBox="0 0 57 57">
  <g fill-rule="evenodd">
    <g transform="translate(-663.000000, -644.000000)">
      <g transform="translate(207.000000, 148.000000)">
        <g transform="translate(74.000000, 318.000000)">
          <g transform="translate(363.000000, 153.000000)">
            <g transform="translate(19.000000, 25.000000)">
              <g transform="translate(-0.000000, 0.000000)">
                <path d="M10.699152,20.121119 L21.9493311,26.4778698 C23.1627824,24.3977752 25.4181572,23 28,23 C29.7098049,23 31.2764326,23.6130147 32.492089,24.63125 L44.9739661,12.2961901 C44.3642186,11.528321 44,10.5566944 44,9.5 C44,7.01471863 46.0147186,5 48.5,5 C50.9852814,5 53,7.01471863 53,9.5 C53,11.9852814 50.9852814,14 48.5,14 C47.7046459,14 46.9574851,13.7936596 46.3091289,13.4315898 L33.8396512,26.138758 C34.5729421,27.2455439 35,28.5728996 35,30 C35,33.200826 32.8516656,35.8998817 29.9182596,36.7339041 L31.3285616,47.0761186 C33.418065,47.4650207 35,49.29777 35,51.5 C35,53.9852814 32.9852814,56 30.5,56 C28.0147186,56 26,53.9852814 26,51.5 C26,49.4162358 27.4163168,47.6632701 29.3388064,47.1512471 L27.9545257,36.9998554 C24.1094605,36.9753943 21,33.8508238 21,30 C21,29.485062 21.0556016,28.9831104 21.1611287,28.4998215 L9.45394371,21.8948217 C8.66352838,22.583169 7.63044224,23 6.5,23 C4.01471863,23 2,20.9852814 2,18.5 C2,16.0147186 4.01471863,14 6.5,14 C8.98528137,14 11,16.0147186 11,18.5 C11,19.0715166 10.893458,19.618149 10.699152,20.121119 Z" fill="#E5F1F3" />
                <path d="M11.699152,18.121119 L22.9493311,24.4778698 C24.1627824,22.3977752 26.4181572,21 29,21 C30.7098049,21 32.2764326,21.6130147 33.492089,22.63125 L45.9739661,10.2961901 C45.3642186,9.52832095 45,8.55669438 45,7.5 C45,5.01471863 47.0147186,3 49.5,3 C51.9852814,3 54,5.01471863 54,7.5 C54,9.98528137 51.9852814,12 49.5,12 C48.7046459,12 47.9574851,11.7936596 47.3091289,11.4315898 L34.8396512,24.138758 C35.5729421,25.2455439 36,26.5728996 36,28 C36,31.200826 33.8516656,33.8998817 30.9182596,34.7339041 L32.3285616,45.0761186 C34.418065,45.4650207 36,47.29777 36,49.5 C36,51.9852814 33.9852814,54 31.5,54 C29.0147186,54 27,51.9852814 27,49.5 C27,47.4162358 28.4163168,45.6632701 30.3388064,45.1512471 L28.9545257,34.9998554 C25.1094605,34.9753943 22,31.8508238 22,28 C22,27.485062 22.0556016,26.9831104 22.1611287,26.4998215 L10.4539437,19.8948217 C9.66352838,20.583169 8.63044224,21 7.5,21 C5.01471863,21 3,18.9852814 3,16.5 C3,14.0147186 5.01471863,12 7.5,12 C9.98528137,12 12,14.0147186 12,16.5 C12,17.0715166 11.893458,17.618149 11.699152,18.121119 Z M14.9988771,16.6311085 L22.0350821,20.8243428 C23.8357222,19.0762602 26.2921741,18 29,18 C30.6221652,18 32.1541173,18.3862477 33.5089055,19.0717921 L42.3622769,9.80938454 C42.1270745,9.08190066 42,8.30579025 42,7.5 C42,3.35786438 45.3578644,0 49.5,0 C53.6421356,0 57,3.35786438 57,7.5 C57,11.6421356 53.6421356,15 49.5,15 C48.9311478,15 48.3770873,14.9366694 47.8444845,14.8166743 L38.2869952,24.2845035 C38.7469633,25.4331655 39,26.6870328 39,28 C39,31.7279676 36.9600475,34.9794789 33.9355153,36.6991609 L34.6657736,42.6989153 C37.2257707,43.8925757 39,46.4890911 39,49.5 C39,53.6421356 35.6421356,57 31.5,57 C27.3578644,57 24,53.6421356 24,49.5 C24,46.855531 25.3686471,44.5307267 27.436238,43.1952903 L26.683045,37.7302199 C22.3505658,36.702429 19.1091608,32.8559857 19.0027015,28.2347616 L11.3041874,22.9649842 C10.1888799,23.622681 8.88850376,24 7.5,24 C3.35786438,24 0,20.6421356 0,16.5 C0,12.3578644 3.35786438,9 7.5,9 C11.6421356,9 15,12.3578644 15,16.5 C15,16.5437915 14.9996247,16.5874953 14.9988771,16.6311085 Z" fill="#599ED8" />
              </g>
            </g>
          </g>
        </g>
      </g>
    </g>
  </g>
</svg>