<svg viewBox="0 0 42 41">
  <g fill-rule="evenodd">
    <g transform="translate(-8.000000, -8.000000)">
      <path d="M24.3017578,41.2841797 C17.9287109,34.0585937 12.0822464,20.3607839 14.6181641,15.1523438 C17.1540818,9.94390358 39.3984382,20.7744138 39.3984382,20.7744138 C39.3984382,20.7744138 46.6063683,26.5884987 47.5585926,30.5978558 C48.4449097,34.3297097 44.9140625,43.9980469 44.9140625,43.9980469 L32.3242188,47.3984375 C32.3242188,47.3984375 30.6748047,48.5097656 24.3017578,41.2841797 Z" fill="#E9DFCB" />
      <path d="M38.8965449,17.963318 C35.5316981,7.92393911 31.8358828,3.01457249 27.9745832,3.12489533 C21.9619881,3.23521818 18.1558499,14.6536327 17.4939129,16.8600896 C17.2181058,17.5771881 10.7642193,35.1736819 16.8319758,45.3233837 C19.0935941,49.1295219 22.8445709,51.3911402 27.8642603,52.0530773 L28.1400675,52.0530773 C33.3252412,51.3911402 37.0762179,49.0743605 39.3929977,45.2682223 C45.3504313,35.2840048 39.172352,18.6252551 38.8965449,17.963318 Z M36.8004108,18.735578 C33.0494341,7.48264773 29.8500716,5.49683651 28.1952289,5.44167509 C25.2165121,14.1020185 21.300051,27.4510827 22.4584409,30.2091539 C24.1132836,34.2910992 25.1613506,36.7182018 25.2165121,36.7182018 L23.8374765,37.3249774 C23.8374765,37.3249774 22.7894095,34.8978748 21.0794054,30.7607681 C19.5348855,27.0097914 24.6648978,11.2887859 26.4852248,5.93812789 C23.2307008,7.86877769 20.4726297,15.0397626 19.6452084,17.7426724 C19.2590784,18.735578 13.467129,35.1736819 18.8729484,44.1649938 C20.7484368,47.3091949 23.8926379,49.1846833 28.1400675,49.7362975 C30.5671701,49.405329 32.6081427,48.6330691 34.2629854,47.4746792 C26.9265162,41.1311156 31.4497528,28.6094726 31.6152371,28.0578584 L33.0494341,28.5543112 C32.9942727,28.664634 28.6365203,40.8553085 35.4765367,46.4817736 C36.303958,45.7646751 37.0210565,44.9372537 37.5726707,43.9995096 C42.8681673,35.0633591 36.8555722,18.8459008 36.8004108,18.735578 Z M21.300051,38.7591744 L20.1416612,37.8214302 C18.7074642,39.6417572 19.0935941,41.2965998 19.0935941,41.3517613 L24.7200593,48.6882305 L25.8784491,47.7504863 L20.5277911,40.9104699 C20.5277911,40.5795014 20.5277911,39.75208 21.300051,38.7591744 Z M28.5813588,26.8443071 L29.7949101,25.9617243 C28.5813588,24.2517202 31.2291071,18.5700937 33.1597569,15.3707312 L31.8910442,14.5984713 C30.9533,16.0878297 26.3749019,23.8104288 28.5813588,26.8443071 L28.5813588,26.8443071 Z" stroke="#817764" stroke-width="0.5" stroke-linecap="round" stroke-linejoin="round" fill="#827764" transform="translate(28.108025, 27.588077) rotate(-47.000000) translate(-28.108025, -27.588077)" />
    </g>
  </g>
</svg>