<svg viewBox="0 0 21 55">
  <path d="M17.2832958,1.44099478 L17.2832958,9.06778914 L14.4013062,10.5087839 L14.4013062,4.32082394 C14.4013062,3.52538726 13.7577735,2.88198957 12.9624718,2.88198957 C12.1671702,2.88198957 11.521477,3.52538726 11.521477,4.32082394 L11.521477,11.9476183 L11.2176691,12.0995223 C10.7978741,12.3105675 10.4011684,12.622747 10.0488862,13.0004141 C9.71348227,12.6523177 9.34000105,12.365388 8.94545582,12.1670351 L8.64164788,12.0151312 L8.64164788,4.32082394 C8.64164788,3.52538726 7.99608978,2.88198957 7.2006531,2.88198957 C6.40521642,2.88198957 5.75965831,3.52538726 5.75965831,4.32082394 L5.75965831,10.5762968 L2.87982916,9.13530202 L2.87982916,1.44099478 C2.87982916,0.645558102 2.23427106,0 1.43883437,0 C0.64339769,0 0,0.645558102 0,1.44099478 L0,10.5762968 L0,11.5236375 L0,30.8980846 C0,32.4824767 1.15825087,34.3581194 2.57602122,35.0670046 L8.64164788,38.0987377 L8.64164788,54.1331831 C9.15839677,54.1331831 10.0488863,54.9018555 11.521477,54.1331831 C11.5214767,50.543457 11.521477,38.0312248 11.521477,38.0312248 L17.5871037,34.9994917 C19.0027136,34.2906065 20.1631249,32.4149638 20.1631249,30.8305717 L20.1631249,12.8274461 L20.1631249,10.5087839 L20.1631249,1.44099478 C20.1631249,0.645558102 19.5175668,0 18.7221301,0 C17.9266935,0 17.2832958,0.645558102 17.2832958,1.44099478 Z M8.64164788,16.3359551 L8.64164788,23.1970185 L3.86295163,20.808683 C3.42195754,20.5892662 2.87982916,19.7115988 2.87982916,19.2179447 L2.87982916,12.354856 L7.656365,14.7452168 C8.09735909,14.9646336 8.64164788,15.842301 8.64164788,16.3359551 L8.64164788,16.3359551 Z M8.64164788,26.4185978 L8.64164788,34.3555463 L3.86295163,31.9672109 C3.42195754,31.7456336 2.87982916,30.8679662 2.87982916,30.3743121 L2.87982916,23.5386336 L8.64164788,26.4185978 L8.64164788,26.4185978 Z M17.2832958,30.3069343 C17.2832958,30.8005884 16.739007,31.6782558 16.2980129,31.899833 L11.521477,34.2881684 L11.521477,26.3512199 L17.2832958,23.4713908 L17.2832958,30.3069343 L17.2832958,30.3069343 Z M17.2832958,19.1504318 C17.2832958,19.6440859 16.739007,20.5217533 16.2980129,20.7411702 L11.521477,23.1295056 L11.521477,16.2684422 C11.521477,15.7747881 12.0637404,14.8971207 12.5045995,14.6777039 L17.2832958,12.2873431 L17.2832958,12.8274461 L17.2832958,19.1504318 L17.2832958,19.1504318 Z" fill="#F59217" />
  <path d="M16.2980129,20.7411702 C16.2980129,20.7411702 14.3679808,21.7062135 13.4029648,22.1887351 C12.7758022,22.5023253 12.9621058,14.1451981 13.4029648,13.9257813 L17.2832958,12.2873431 L17.2832958,12.8274461 L17.2832958,19.1504318 C17.2832958,19.6440859 16.739007,20.5217533 16.2980129,20.7411702 Z" fill="#FFF3C2" />
  <path d="M16.2980129,31.899833 L13.3828334,33.357464 C12.7623813,33.6676988 13.8176698,25.2035541 13.8176698,25.2035541 L17.2832958,23.4713908 L17.2832958,30.3069343 C17.2832958,30.8005884 16.739007,31.6782558 16.2980129,31.899833 Z" fill="#FFF3C2" />
  <path d="M8.64164788,34.3555463 L4.93403791,32.211914 C4.49304382,31.9903367 4.9340379,24.565401 4.9340379,24.565401 L8.64164788,26.4185978 L8.64164788,34.3555463 Z" fill="#FFF3C2" />
  <path d="M8.64164788,23.1970185 L4.73484932,21.3837894 C4.29385522,21.1643725 4.11650927,12.9737379 4.73484933,13.2831788 C5.70868789,13.7705248 7.656365,14.7452168 7.656365,14.7452168 C8.09735909,14.9646336 8.64164788,15.842301 8.64164788,16.3359551 L8.64164788,23.1970185 Z" fill="#FFF3C2" />
</svg>